{"glyphs":{"0":{"ha":853,"x_min":24,"x_max":828,"o":"m 24 453 q 138 794 24 660 q 428 928 253 928 q 715 796 601 928 q 828 454 828 664 q 719 108 828 240 q 431 -24 611 -24 q 136 110 249 -24 q 24 453 24 244 m 378 781 q 332 654 349 743 q 315 467 315 565 q 349 226 315 329 q 450 122 383 122 q 481 128 465 122 q 524 253 508 169 q 540 435 540 338 q 506 680 540 576 q 407 783 472 783 l 378 781 z "},"1":{"ha":651,"x_min":7,"x_max":663,"o":"m 663 76 l 660 0 l 40 0 l 32 44 q 221 125 90 86 l 221 672 l 58 608 l 7 708 l 385 931 l 500 846 l 500 106 l 663 76 z "},"2":{"ha":857,"x_min":46,"x_max":807,"o":"m 807 307 q 756 0 801 157 l 724 1 l 724 0 l 76 0 l 46 136 l 343 451 q 471 679 471 596 q 440 761 471 729 q 350 799 408 793 l 269 539 l 93 539 q 63 796 63 640 l 64 835 q 404 931 229 931 q 656 849 558 931 q 754 644 754 768 q 704 485 754 565 q 531 285 654 404 l 363 121 l 368 111 l 560 151 l 690 339 l 807 307 z "},"3":{"ha":849,"x_min":50,"x_max":794,"o":"m 576 475 q 733 399 671 465 q 794 243 794 333 q 685 48 794 124 q 401 -28 576 -28 q 50 46 218 -28 l 129 300 l 303 189 q 453 119 393 133 q 499 224 499 165 q 453 324 499 282 q 331 367 407 367 l 260 365 l 253 493 l 269 493 q 415 544 357 497 q 472 654 472 590 q 431 748 472 710 q 325 793 390 786 l 256 574 l 94 574 q 74 771 74 651 l 76 839 l 75 842 q 410 931 207 931 q 662 863 565 931 q 758 689 758 794 q 712 564 758 622 q 576 475 665 506 z "},"4":{"ha":875,"x_min":13,"x_max":854,"o":"m 697 210 l 697 94 l 794 76 l 792 0 l 268 0 l 260 44 q 429 124 303 78 l 429 210 l 67 210 l 13 356 l 492 931 l 544 917 l 697 906 l 697 375 l 847 378 l 854 253 l 810 210 l 697 210 m 429 368 l 429 518 l 436 638 l 247 365 l 429 368 z "},"5":{"ha":808,"x_min":42,"x_max":765,"o":"m 426 567 q 667 482 569 564 q 765 275 765 400 q 663 53 765 140 q 399 -33 561 -33 q 217 -9 314 -33 q 42 63 121 15 l 121 315 q 296 191 201 244 q 467 118 390 138 q 514 225 514 167 q 447 338 514 300 q 269 376 381 376 q 161 360 217 376 l 85 443 l 125 903 l 633 903 l 633 901 l 722 903 l 724 871 q 714 730 724 813 q 692 604 704 647 l 521 604 l 483 761 l 349 769 l 332 557 q 426 567 360 567 z "},"6":{"ha":832,"x_min":44,"x_max":800,"o":"m 353 485 q 536 554 428 554 q 724 478 647 554 q 800 286 800 403 q 703 60 800 149 q 453 -28 606 -28 q 159 81 274 -28 q 44 367 44 190 q 114 631 44 506 q 326 835 183 756 q 679 914 469 914 l 726 913 l 725 654 l 449 728 q 353 597 388 693 q 318 390 318 501 q 360 181 318 265 q 479 99 401 96 q 542 243 542 147 q 514 345 542 303 q 446 388 486 388 q 383 364 418 388 l 353 485 z "},"7":{"ha":732,"x_min":29,"x_max":746,"o":"m 746 761 q 365 -36 522 351 l 104 56 q 301 423 208 261 q 499 735 393 585 l 489 746 l 271 738 l 243 581 l 60 581 q 38 710 47 622 q 29 863 29 797 l 31 903 l 678 903 l 746 761 z "},"8":{"ha":821,"x_min":50,"x_max":771,"o":"m 607 489 q 771 236 771 381 q 673 43 771 117 q 415 -31 575 -31 q 152 42 254 -31 q 50 228 50 114 q 89 358 50 296 q 197 460 128 419 q 81 661 81 546 q 174 852 81 776 q 414 928 267 928 q 644 859 554 928 q 733 689 733 790 q 701 576 733 631 q 607 489 669 522 m 353 788 q 324 714 324 758 q 357 641 324 671 q 463 572 390 611 q 513 688 513 619 q 483 767 513 736 q 406 799 453 799 q 353 788 376 799 m 492 97 q 518 179 518 138 q 487 269 518 233 q 375 353 456 306 q 307 213 307 293 q 340 124 307 160 q 432 88 374 88 q 492 97 461 88 z "},"9":{"ha":822,"x_min":36,"x_max":786,"o":"m 471 339 q 340 311 410 311 q 125 398 214 311 q 36 613 36 485 q 135 840 36 750 q 389 931 233 931 q 676 812 565 931 q 786 506 786 693 q 626 133 786 282 q 221 -17 467 -17 l 154 -14 l 111 247 l 396 167 q 491 297 458 201 q 524 507 524 392 q 487 710 524 628 q 378 783 450 792 q 332 730 349 771 q 315 638 315 689 q 347 526 315 572 q 432 481 378 481 l 457 483 l 471 339 z "},"\u0000":{"ha":833,"x_min":0,"x_max":0,"o":""},"\r":{"ha":833,"x_min":0,"x_max":0,"o":""}," ":{"ha":368,"x_min":0,"x_max":0,"o":""}," ":{"ha":368,"x_min":0,"x_max":0,"o":""}," ":{"ha":694,"x_min":0,"x_max":0,"o":""}," ":{"ha":1319,"x_min":0,"x_max":0,"o":""}," ":{"ha":139,"x_min":0,"x_max":0,"o":""},"!":{"ha":508,"x_min":92,"x_max":418,"o":"m 92 996 q 258 1021 161 1021 q 418 993 361 1021 l 349 369 l 158 369 l 92 996 m 249 281 q 401 125 371 225 q 272 -28 369 22 q 113 101 161 8 q 249 281 128 213 z "},"\"":{"ha":660,"x_min":8,"x_max":658,"o":"m 8 589 q 67 856 67 731 l 65 883 l 139 963 l 311 929 l 313 908 q 267 720 313 833 q 158 533 221 607 l 8 589 m 354 589 q 413 856 413 731 l 411 883 l 485 963 l 657 929 l 658 908 q 613 720 658 833 q 504 533 567 607 l 354 589 z "},"#":{"ha":863,"x_min":72,"x_max":790,"o":"m 653 435 l 631 294 l 750 294 l 750 163 l 611 163 l 583 -17 l 446 0 l 471 163 l 339 163 l 311 -17 l 174 0 l 199 163 l 72 163 l 72 294 l 218 294 l 240 435 l 113 435 l 113 565 l 260 565 l 286 736 l 424 721 l 400 565 l 532 565 l 558 736 l 696 721 l 672 565 l 790 565 l 790 435 l 653 435 m 513 435 l 381 435 l 358 294 l 490 294 l 513 435 z "},"$":{"ha":863,"x_min":67,"x_max":818,"o":"m 818 264 q 742 79 818 153 q 543 -17 667 6 l 543 -201 l 344 -201 l 344 -21 q 69 54 186 -3 l 71 57 l 69 96 q 99 335 69 235 l 224 335 l 336 128 q 460 103 388 110 q 532 194 532 135 q 429 313 532 261 l 279 383 l 219 417 q 67 657 67 510 q 142 841 67 764 q 344 943 217 918 l 344 1090 l 542 1090 l 542 949 q 776 896 672 938 q 743 621 768 718 l 597 621 l 529 801 q 399 828 469 824 q 338 731 338 792 q 371 667 338 694 q 554 574 404 640 q 761 433 704 507 q 818 264 818 360 z "},"%":{"ha":1157,"x_min":50,"x_max":1107,"o":"m 50 601 q 50 652 50 601 q 118 777 50 703 q 279 851 186 851 q 442 776 374 851 q 510 599 510 700 q 444 428 510 497 q 286 358 379 358 q 120 429 190 358 q 50 601 50 500 m 833 844 l 943 757 l 307 -42 l 197 47 l 833 844 m 310 497 q 346 601 346 533 q 326 678 346 647 q 271 710 307 710 q 242 704 257 710 q 208 603 208 665 q 230 527 208 558 q 293 496 251 496 l 310 497 m 647 215 q 647 266 647 215 q 715 390 647 317 q 876 464 783 464 q 1039 389 971 464 q 1107 213 1107 314 q 1042 42 1107 111 q 883 -28 976 -28 q 717 43 788 -28 q 647 215 647 114 m 907 110 q 943 215 943 149 q 924 291 943 260 q 868 322 904 322 l 839 318 q 806 215 806 276 q 828 139 806 169 q 892 108 850 108 l 907 110 z "},"&":{"ha":989,"x_min":13,"x_max":1050,"o":"m 982 417 q 838 485 897 474 q 876 314 876 403 q 760 58 876 157 q 454 -40 644 -40 q 138 53 264 -40 q 13 288 13 146 q 157 510 13 442 q 42 682 42 569 q 140 857 42 786 q 393 928 239 928 q 697 864 561 928 l 613 651 l 365 764 q 310 719 333 751 q 288 647 288 686 q 324 556 288 597 l 465 500 l 439 386 q 311 351 358 388 q 264 256 264 315 q 319 151 264 189 q 453 113 375 113 q 590 146 536 113 q 657 306 657 201 q 626 433 657 376 l 557 390 l 499 499 q 901 665 761 665 q 1050 601 990 665 l 982 417 z "},"'":{"ha":267,"x_min":-39,"x_max":246,"o":"m -39 681 q 0 897 0 776 l -4 964 l 68 1043 l 240 1021 q 206 818 246 938 q 110 625 167 699 l -39 681 z "},"(":{"ha":536,"x_min":46,"x_max":479,"o":"m 314 -215 q 46 425 46 93 q 318 1017 46 753 l 479 925 q 326 431 326 667 q 365 167 326 300 q 478 -122 404 33 l 314 -215 z "},")":{"ha":536,"x_min":57,"x_max":490,"o":"m 58 -122 q 171 167 132 33 q 210 431 210 300 q 57 925 210 667 l 218 1017 q 490 425 490 753 q 222 -215 490 93 l 58 -122 z "},"*":{"ha":603,"x_min":-26,"x_max":596,"o":"m 176 801 l -26 864 l 35 1085 l 190 925 l 192 1136 l 419 1140 l 297 917 l 192 924 l 214 901 l 176 801 m 317 944 l 518 1014 l 596 801 l 347 843 l 317 944 m 382 836 l 507 665 l 326 526 l 293 778 l 382 836 m 213 818 l 296 751 l 169 578 l -15 713 l 213 818 z "},"+":{"ha":790,"x_min":72,"x_max":718,"o":"m 718 292 l 476 292 l 476 44 l 314 44 l 314 292 l 72 292 l 72 444 l 314 444 l 314 693 l 476 693 l 476 444 l 718 444 l 718 292 z "},",":{"ha":457,"x_min":71,"x_max":375,"o":"m 71 -118 q 138 -40 111 -85 q 167 38 164 4 l 92 103 q 226 279 108 214 q 375 97 375 221 q 303 -69 375 17 q 136 -194 231 -156 l 71 -118 z "},"-":{"ha":694,"x_min":47,"x_max":617,"o":"m 47 439 l 82 507 l 526 507 l 617 364 l 582 296 l 138 296 l 47 439 z "},".":{"ha":444,"x_min":140,"x_max":444,"o":"m 313 -62 q 219 -6 271 -46 q 140 71 167 35 q 279 240 200 193 q 369 183 322 222 q 444 107 417 143 q 389 13 426 61 q 313 -62 351 -36 z "},"/":{"ha":594,"x_min":10,"x_max":599,"o":"m 438 1026 l 599 956 l 174 -165 l 10 -97 l 438 1026 z "},":":{"ha":519,"x_min":103,"x_max":392,"o":"m 392 556 q 263 401 361 454 q 103 531 151 439 q 239 710 118 644 q 392 556 360 656 m 392 125 q 263 -28 360 22 q 103 101 151 8 q 239 281 118 213 q 392 125 361 225 z "},";":{"ha":464,"x_min":71,"x_max":382,"o":"m 382 556 q 253 401 351 454 q 93 531 142 439 q 229 710 108 644 q 382 556 350 656 m 71 -118 q 138 -40 111 -85 q 167 38 164 4 l 92 103 q 226 279 108 214 q 375 97 375 221 q 303 -69 375 17 q 136 -194 231 -156 l 71 -118 z "},"<":{"ha":803,"x_min":78,"x_max":724,"o":"m 718 557 l 318 342 l 319 333 l 724 135 l 649 -8 l 81 281 l 78 378 l 647 694 l 718 557 z "},"=":{"ha":800,"x_min":72,"x_max":728,"o":"m 728 422 l 72 422 l 72 557 l 728 557 l 728 422 m 728 161 l 72 161 l 72 296 l 728 296 l 728 161 z "},">":{"ha":803,"x_min":79,"x_max":725,"o":"m 156 694 l 725 378 l 722 281 l 154 -8 l 79 135 l 483 333 l 485 342 l 85 557 l 156 694 z "},"?":{"ha":918,"x_min":118,"x_max":799,"o":"m 439 1021 q 699 939 599 1021 q 799 732 799 857 q 733 574 799 638 l 618 471 q 550 353 563 417 l 319 353 q 349 483 319 432 q 431 592 378 535 q 497 675 485 650 q 510 729 510 700 q 429 846 510 815 l 404 844 l 311 631 l 151 631 q 118 872 118 760 l 119 897 l 118 901 q 439 1021 253 1021 m 444 281 q 597 125 567 225 q 468 -28 565 22 q 308 101 357 8 q 444 281 324 213 z "},"@":{"ha":1525,"x_min":46,"x_max":1497,"o":"m 782 1042 q 1176 956 1014 1042 q 1417 733 1338 869 q 1497 447 1497 597 q 1393 139 1497 269 q 1117 -24 1289 8 l 1074 -25 q 853 78 913 -25 l 708 -17 l 654 -21 q 499 33 561 -21 q 438 161 438 88 q 467 256 438 208 q 556 331 497 303 l 817 336 l 817 432 q 754 567 817 536 q 703 554 721 564 l 663 396 l 504 394 q 481 561 481 485 l 485 621 q 685 671 576 651 q 865 690 794 690 q 988 663 929 690 q 1079 589 1047 636 q 1096 461 1096 564 l 1096 188 q 1118 153 1096 153 q 1158 175 1139 153 q 1215 285 1193 211 q 1236 435 1236 360 q 1115 723 1236 614 q 790 832 993 832 q 441 704 574 832 q 308 375 308 576 q 432 8 308 182 l 290 -78 q 108 163 169 31 q 46 432 46 296 q 132 734 46 594 q 385 958 218 874 q 782 1042 551 1042 m 710 182 q 731 124 710 147 l 817 142 l 817 246 q 710 182 710 246 z "},"A":{"ha":1029,"x_min":-28,"x_max":1051,"o":"m 1051 76 l 1050 0 l 547 0 l 539 44 q 643 110 588 82 l 600 225 l 317 225 l 268 96 l 381 76 l 379 0 l -19 0 l -28 44 q 89 117 19 82 l 376 831 l 353 896 l 606 958 l 953 93 l 1051 76 m 553 353 l 458 610 l 364 353 l 553 353 z "},"B":{"ha":996,"x_min":31,"x_max":957,"o":"m 754 486 q 905 403 853 465 q 957 257 957 340 q 858 72 957 140 q 588 0 760 4 l 39 0 l 31 44 q 149 117 82 83 l 149 832 l 50 849 l 51 925 q 556 936 246 936 q 816 867 714 936 q 918 696 918 799 q 875 569 918 631 q 754 486 832 507 m 632 661 q 610 747 632 706 q 554 801 589 789 l 440 781 l 440 533 l 500 533 q 599 571 565 533 q 632 661 632 608 m 525 129 l 543 128 q 631 169 600 128 q 661 265 661 210 q 624 375 661 325 q 533 425 588 425 l 440 425 l 440 140 l 525 129 z "},"C":{"ha":849,"x_min":10,"x_max":843,"o":"m 843 99 l 546 -24 l 506 -25 q 215 46 325 -25 q 57 224 104 117 q 10 450 10 332 q 66 696 10 581 q 236 882 122 811 q 514 953 350 953 q 817 861 682 953 l 818 838 q 781 576 818 726 l 608 576 l 558 775 q 406 808 489 800 q 299 486 299 693 q 365 247 299 340 q 557 153 432 154 l 800 228 l 843 99 z "},"D":{"ha":1051,"x_min":31,"x_max":1040,"o":"m 531 936 q 808 869 693 936 q 982 694 924 801 q 1040 471 1040 588 q 908 135 1040 265 q 557 0 776 4 l 39 0 l 31 44 q 149 117 82 83 l 149 832 l 50 849 l 51 925 q 531 936 268 936 m 522 139 q 679 228 619 139 q 739 454 739 318 q 699 657 739 560 q 589 801 658 754 l 440 781 l 440 153 q 522 139 482 139 z "},"E":{"ha":931,"x_min":31,"x_max":864,"o":"m 861 303 q 844 0 864 165 l 39 0 l 31 44 q 149 117 82 83 l 149 831 l 43 849 l 44 925 l 857 925 q 851 784 860 874 q 828 626 843 694 l 668 626 l 640 774 l 440 788 l 440 522 l 722 546 l 722 386 l 440 397 l 440 140 l 647 158 l 701 315 l 861 303 z "},"F":{"ha":897,"x_min":33,"x_max":851,"o":"m 432 789 l 432 496 l 736 518 l 736 347 l 432 363 l 432 107 l 604 76 l 603 0 l 42 0 l 33 44 q 140 111 71 75 l 140 831 l 35 849 l 36 925 l 849 925 q 843 778 851 874 q 819 615 835 683 l 660 615 l 631 775 l 432 789 z "},"G":{"ha":1000,"x_min":10,"x_max":981,"o":"m 875 328 l 875 93 l 554 -28 l 508 -29 q 217 43 329 -29 q 58 224 106 115 q 10 446 10 332 q 160 808 10 664 q 546 953 310 953 q 858 868 728 953 l 860 840 q 825 597 860 721 l 654 597 l 604 778 q 408 808 508 807 q 326 670 354 756 q 297 490 297 585 q 372 236 297 332 q 569 140 447 140 l 617 142 l 617 304 q 492 378 538 343 l 500 424 l 979 424 l 981 358 l 875 328 z "},"H":{"ha":1188,"x_min":31,"x_max":1157,"o":"m 1157 76 l 1156 0 l 632 0 l 624 44 q 742 117 675 83 l 742 390 l 440 390 l 440 97 l 564 76 l 563 0 l 39 0 l 31 44 q 149 117 82 83 l 149 831 l 42 849 l 43 925 l 550 925 l 558 881 q 440 808 507 842 l 440 532 l 742 532 l 742 831 l 635 849 l 636 925 l 1143 925 l 1151 881 q 1033 808 1100 842 l 1033 97 l 1157 76 z "},"I":{"ha":594,"x_min":31,"x_max":564,"o":"m 564 76 l 563 0 l 39 0 l 31 44 q 149 117 82 83 l 149 831 l 42 849 l 43 925 l 550 925 l 558 881 q 440 808 507 842 l 440 97 l 564 76 z "},"J":{"ha":590,"x_min":-43,"x_max":565,"o":"m 565 881 q 446 807 508 838 l 446 243 q 349 -69 446 49 q 4 -264 253 -187 l -43 -182 q 113 -22 71 -110 q 156 201 154 67 l 156 829 l 43 849 l 44 925 l 557 925 l 565 881 z "},"K":{"ha":1093,"x_min":31,"x_max":1086,"o":"m 1086 76 l 1085 0 l 719 0 l 464 365 l 440 340 l 440 94 l 542 76 l 540 0 l 39 0 l 31 44 q 149 117 82 83 l 149 831 l 42 849 l 43 925 l 550 925 l 558 881 q 440 808 507 842 l 440 540 l 714 833 l 626 849 l 628 925 l 1017 925 l 1025 881 q 890 814 990 854 l 653 564 l 999 97 l 1086 76 z "},"L":{"ha":893,"x_min":31,"x_max":894,"o":"m 894 310 q 874 0 894 115 l 39 0 l 31 44 q 149 117 82 83 l 149 831 l 42 849 l 43 925 l 550 925 l 558 881 q 440 808 507 842 l 440 140 l 660 165 l 729 378 l 894 363 l 894 310 z "},"M":{"ha":1399,"x_min":29,"x_max":1368,"o":"m 1368 65 l 1367 0 l 856 0 l 847 44 q 965 117 893 81 l 964 367 l 983 619 l 754 22 l 557 -10 l 331 618 l 350 367 l 349 100 l 467 65 l 465 0 l 38 0 l 29 44 q 151 119 75 82 l 165 803 l 46 838 l 47 903 l 501 903 l 500 901 l 721 282 l 956 903 l 1349 903 l 1357 858 q 1232 782 1306 818 l 1243 101 l 1368 65 z "},"N":{"ha":1114,"x_min":31,"x_max":1083,"o":"m 1083 881 q 975 813 1038 844 l 965 0 l 717 -19 l 328 554 l 346 389 l 346 97 l 468 76 l 467 0 l 39 0 l 31 44 q 149 117 82 83 l 149 828 l 44 849 l 46 925 l 415 925 l 415 924 l 799 343 l 779 514 l 779 825 l 643 849 l 644 925 l 1075 925 l 1083 881 z "},"O":{"ha":969,"x_min":11,"x_max":958,"o":"m 482 953 q 824 813 689 953 q 958 449 958 672 q 829 102 958 232 q 492 -28 700 -28 q 144 106 278 -28 q 11 456 11 239 q 144 813 11 674 q 482 953 276 953 m 393 789 q 337 675 358 754 q 315 486 315 596 q 369 217 315 315 q 517 118 424 118 q 568 129 540 118 q 631 256 607 171 q 654 446 654 342 q 606 700 654 596 q 464 804 557 804 q 393 789 431 804 z "},"P":{"ha":947,"x_min":33,"x_max":935,"o":"m 432 318 l 432 107 l 604 76 l 603 0 l 42 0 l 33 44 q 140 111 71 75 l 140 831 l 35 849 l 36 925 l 546 936 q 826 848 717 938 q 935 619 935 758 q 829 405 935 489 q 560 319 724 321 l 432 318 m 432 781 l 432 474 q 507 463 469 463 q 608 508 574 463 q 642 622 642 554 q 625 728 642 675 q 581 801 608 781 l 432 781 z "},"Q":{"ha":1021,"x_min":11,"x_max":1021,"o":"m 889 -281 l 503 -28 q 144 106 278 -28 q 11 456 11 239 q 144 813 11 674 q 482 953 276 953 q 824 813 689 953 q 958 449 958 672 q 894 186 958 294 q 719 24 829 78 l 1021 -44 l 889 -281 m 315 486 q 369 217 315 315 q 517 118 424 118 q 568 129 540 118 q 631 256 607 171 q 654 446 654 342 q 606 700 654 596 q 464 804 557 804 q 393 789 431 804 q 337 675 358 754 q 315 486 315 596 z "},"R":{"ha":1036,"x_min":31,"x_max":1032,"o":"m 1032 76 l 1031 0 l 686 0 l 507 346 l 440 344 l 440 94 l 544 76 l 543 0 l 39 0 l 31 44 q 149 117 82 83 l 149 831 l 43 849 l 44 925 l 543 936 q 829 852 717 936 q 942 639 942 768 q 894 492 942 558 q 767 386 847 425 l 950 90 l 1032 76 m 440 486 q 506 476 474 476 q 647 632 647 476 q 589 801 647 738 l 440 781 l 440 486 z "},"S":{"ha":864,"x_min":67,"x_max":818,"o":"m 818 264 q 713 53 818 133 q 438 -26 607 -26 q 249 -5 351 -26 q 69 54 146 17 l 71 57 l 69 96 q 99 335 69 235 l 224 335 l 336 128 q 460 103 388 110 q 532 194 532 135 q 429 313 532 261 l 279 383 l 219 417 q 67 657 67 510 q 175 871 67 789 q 457 953 283 953 q 625 937 535 953 q 776 896 715 921 q 743 621 768 718 l 597 621 l 529 801 q 399 828 469 824 q 338 731 338 792 q 371 667 338 694 q 554 574 404 640 q 761 433 704 507 q 818 264 818 360 z "},"T":{"ha":961,"x_min":8,"x_max":954,"o":"m 953 933 l 954 901 q 944 740 954 839 q 922 582 935 642 l 774 582 l 751 796 l 628 810 l 628 99 l 756 76 l 754 0 l 213 0 l 204 44 q 336 122 247 79 l 336 810 l 210 796 l 188 582 l 40 582 q 8 894 8 728 l 10 933 l 483 928 l 951 933 l 953 933 z "},"U":{"ha":1074,"x_min":8,"x_max":1065,"o":"m 1065 881 q 947 808 1014 842 l 947 396 q 839 70 946 168 q 561 -28 732 -28 q 240 88 358 -28 q 115 406 121 203 l 115 831 l 8 849 l 10 925 l 517 925 l 525 881 q 407 808 474 842 l 407 357 q 458 178 407 236 q 593 121 510 121 q 703 158 658 121 q 750 399 749 222 l 750 829 l 639 849 l 640 925 l 1057 925 l 1065 881 z "},"V":{"ha":1025,"x_min":-6,"x_max":1031,"o":"m 649 4 l 650 3 q 397 -25 547 -14 l 92 832 l -6 849 l -4 925 l 486 925 l 494 881 q 388 814 457 850 l 515 399 l 532 200 l 544 200 l 747 828 l 628 849 l 629 925 l 1022 925 l 1031 881 q 924 814 988 847 l 649 4 z "},"W":{"ha":1457,"x_min":6,"x_max":1463,"o":"m 1463 881 q 1361 817 1419 846 l 1126 3 q 883 -25 1035 -14 l 739 421 l 704 257 l 626 3 q 383 -25 535 -14 l 99 832 l 6 849 l 7 925 l 494 925 l 503 881 q 394 813 457 844 l 504 408 l 511 200 l 519 200 l 656 676 l 594 865 l 865 922 l 1004 438 l 1015 200 l 1017 200 l 1186 826 l 1057 849 l 1058 925 l 1454 925 l 1463 881 z "},"X":{"ha":1010,"x_min":-8,"x_max":1040,"o":"m 1040 76 l 1039 0 l 553 0 l 544 44 l 617 93 l 461 322 l 313 94 l 418 76 l 417 0 l 0 0 l -8 44 q 115 119 49 88 l 360 469 l 111 833 l 22 849 l 24 925 l 492 925 l 500 881 l 432 835 l 575 626 l 703 831 l 597 849 l 599 925 l 990 925 l 999 881 q 878 807 951 843 l 669 489 l 940 93 l 1040 76 z "},"Y":{"ha":968,"x_min":-6,"x_max":981,"o":"m 628 97 l 746 76 l 744 0 l 239 0 l 231 44 q 347 117 278 82 l 347 336 l 83 833 l -6 849 l -4 925 l 424 925 l 432 881 l 367 836 l 478 628 l 517 504 l 526 504 l 692 832 l 597 849 l 599 925 l 972 925 l 981 881 q 853 803 932 842 l 628 383 l 628 97 z "},"Z":{"ha":957,"x_min":43,"x_max":907,"o":"m 907 326 q 871 0 903 189 l 124 -1 l 43 125 l 560 796 l 328 776 l 260 578 l 101 578 q 86 778 86 672 l 93 925 l 838 925 l 900 803 l 394 143 l 656 156 l 738 350 l 907 326 z "},"[":{"ha":611,"x_min":117,"x_max":575,"o":"m 575 900 l 394 847 l 394 -28 l 575 -81 l 567 -169 l 117 -169 l 117 989 l 567 989 l 575 900 z "},"\\":{"ha":579,"x_min":-54,"x_max":576,"o":"m -54 946 l 149 1026 l 576 -97 l 371 -175 l -54 946 z "},"]":{"ha":611,"x_min":36,"x_max":494,"o":"m 494 989 l 494 -169 l 44 -169 l 36 -81 l 217 -28 l 217 847 l 36 900 l 44 989 l 494 989 z "},"^":{"ha":671,"x_min":11,"x_max":663,"o":"m 401 903 l 663 528 l 533 444 l 340 722 l 331 722 l 147 443 l 11 526 l 265 903 l 401 903 z "},"_":{"ha":739,"x_min":14,"x_max":725,"o":"m 725 -307 l 14 -307 l 14 -172 l 725 -172 l 725 -307 z "},"`":{"ha":421,"x_min":17,"x_max":401,"o":"m 17 975 l 183 1122 l 401 849 l 265 743 q 17 975 76 926 z "},"a":{"ha":807,"x_min":33,"x_max":803,"o":"m 803 90 l 604 -24 q 449 79 510 -24 l 304 -17 l 251 -21 q 96 34 158 -21 q 33 163 33 89 q 63 256 33 210 q 151 332 93 303 l 413 338 l 413 442 q 350 578 413 544 q 299 564 319 575 l 258 408 l 100 407 q 76 563 76 488 l 82 631 q 283 682 171 663 q 463 701 394 701 q 675 599 597 701 q 692 471 692 574 l 692 193 q 725 150 692 150 l 771 151 l 799 153 l 803 90 m 306 183 q 326 125 306 149 l 413 143 l 413 247 q 306 183 306 247 z "},"b":{"ha":819,"x_min":-33,"x_max":800,"o":"m 494 686 l 540 690 q 727 600 654 690 q 800 369 800 510 q 686 85 800 194 q 381 -25 572 -25 q 72 26 239 -25 l 74 28 l 74 874 l -31 900 l -33 969 q 271 1024 99 1015 l 353 949 l 353 579 l 494 686 m 439 117 q 513 322 513 193 q 478 451 513 399 q 386 504 444 504 l 353 500 l 353 119 l 404 114 l 439 117 z "},"c":{"ha":665,"x_min":11,"x_max":672,"o":"m 447 -17 q 368 -25 408 -25 q 114 76 217 -25 q 11 333 11 178 q 114 597 11 494 q 374 700 217 700 q 568 646 483 700 q 672 490 653 592 l 443 381 q 338 560 394 514 q 276 374 276 496 q 325 212 276 274 q 463 150 374 150 q 617 194 528 150 l 653 113 l 447 -17 z "},"d":{"ha":846,"x_min":11,"x_max":843,"o":"m 843 90 l 643 -24 q 551 8 594 -24 q 479 97 507 40 l 476 97 l 318 -24 q 97 74 183 -25 q 11 325 11 174 q 115 590 11 488 q 388 693 218 693 l 453 689 l 453 874 l 349 900 l 346 969 q 650 1024 478 1015 l 732 949 l 732 193 q 765 150 732 150 l 811 151 l 839 153 l 843 90 m 301 353 q 333 224 301 275 q 421 172 364 172 l 453 176 l 453 540 q 372 557 415 554 q 301 353 301 489 z "},"e":{"ha":717,"x_min":11,"x_max":699,"o":"m 617 304 l 271 306 q 336 190 285 231 q 464 150 388 150 q 640 204 540 150 l 679 118 l 460 -15 q 376 -24 418 -24 q 115 74 218 -24 q 11 328 11 172 q 118 593 11 486 q 378 700 225 700 q 609 615 519 700 q 699 386 699 529 l 617 304 m 350 574 q 272 422 294 536 l 450 435 q 416 528 443 489 q 350 574 389 568 z "},"f":{"ha":563,"x_min":4,"x_max":639,"o":"m 394 485 l 394 131 q 521 68 471 101 l 519 0 l 24 0 l 22 49 q 114 94 63 74 l 114 486 l 6 486 l 4 564 l 83 617 l 114 636 l 114 726 q 201 951 114 860 q 415 1043 289 1043 q 639 975 524 1043 l 497 732 q 289 881 410 817 l 392 658 l 550 658 l 551 581 l 479 485 l 394 485 z "},"g":{"ha":821,"x_min":10,"x_max":815,"o":"m 279 176 q 751 104 510 174 q 775 4 775 58 q 641 -242 775 -135 q 328 -350 507 -350 q 117 -298 210 -350 q 10 -131 25 -246 l 147 -10 l 85 -6 l 54 108 q 218 238 135 189 q 81 326 128 267 q 35 453 35 385 q 132 631 35 558 q 378 703 229 703 q 575 661 492 703 q 772 788 618 785 l 815 574 l 757 579 q 685 568 721 579 q 717 460 717 517 q 619 285 717 354 q 369 217 522 217 l 329 218 l 279 176 m 335 582 q 312 535 321 574 q 303 457 303 497 q 325 363 303 401 q 389 325 347 325 l 410 328 q 438 372 426 338 q 449 444 449 406 q 424 542 449 499 q 358 586 400 586 l 335 582 m 375 -151 q 493 -134 436 -151 q 578 -86 550 -117 q 240 -18 453 -43 q 219 -68 219 -46 q 263 -131 219 -110 q 375 -151 307 -151 z "},"h":{"ha":914,"x_min":8,"x_max":897,"o":"m 808 122 l 897 68 l 896 0 l 529 0 l 529 379 q 432 513 529 518 l 394 506 l 394 115 l 468 68 l 467 0 l 13 0 l 11 49 q 115 99 58 78 l 115 874 l 11 900 l 8 969 q 313 1024 140 1015 l 394 949 l 394 593 q 578 692 488 661 q 693 672 632 694 q 792 590 754 650 q 808 461 807 563 l 808 122 z "},"i":{"ha":508,"x_min":6,"x_max":492,"o":"m 267 754 q 82 896 154 806 q 236 1083 142 1011 q 411 922 342 1024 q 267 754 358 819 m 392 122 q 492 68 451 97 l 490 0 l 8 0 l 7 49 q 113 100 51 76 l 113 550 l 8 576 l 6 644 q 310 699 139 692 l 392 625 l 392 122 z "},"j":{"ha":481,"x_min":-18,"x_max":413,"o":"m 268 754 q 83 896 156 806 q 238 1083 143 1011 q 413 922 343 1022 q 268 754 361 821 m 7 644 q 311 699 140 692 l 393 625 l 393 -54 q 288 -227 393 -157 q 6 -308 182 -297 l -18 -251 q 114 -96 114 -207 l 114 550 l 10 576 l 7 644 z "},"k":{"ha":894,"x_min":7,"x_max":871,"o":"m 807 106 q 871 63 842 78 l 865 -4 l 568 -4 q 513 68 550 13 l 394 256 l 394 0 l 11 0 l 10 49 q 115 100 54 76 l 115 874 l 10 900 l 7 969 q 311 1024 139 1015 l 313 1024 l 394 949 l 394 376 l 528 558 l 453 576 l 450 644 q 757 699 582 692 l 828 597 l 631 350 l 807 106 z "},"l":{"ha":513,"x_min":6,"x_max":492,"o":"m 392 122 q 492 68 451 97 l 490 0 l 8 0 l 7 49 q 113 100 51 76 l 113 874 l 8 900 l 6 969 q 310 1024 138 1015 l 392 949 l 392 122 z "},"m":{"ha":1344,"x_min":8,"x_max":1329,"o":"m 1219 126 q 1329 68 1285 100 l 1326 0 l 940 0 l 940 379 q 843 513 940 518 l 806 506 l 807 117 l 885 68 l 882 0 l 528 0 l 528 379 q 431 513 528 518 l 394 506 l 394 117 l 471 68 l 469 0 l 13 0 l 11 49 q 115 99 58 78 l 115 550 l 11 576 l 8 644 q 313 699 142 692 l 394 614 l 394 593 q 576 692 488 661 q 692 672 631 694 q 790 590 753 650 q 793 583 793 588 q 989 692 894 658 q 1104 672 1043 694 q 1203 590 1165 650 q 1219 461 1218 563 l 1219 126 z "},"n":{"ha":925,"x_min":8,"x_max":910,"o":"m 810 122 q 910 68 869 97 l 907 0 l 531 0 l 531 379 q 433 513 531 518 l 394 506 l 394 117 l 471 68 l 469 0 l 13 0 l 11 49 q 115 99 58 78 l 115 550 l 11 576 l 8 644 q 313 699 142 692 l 394 614 l 394 592 q 579 692 490 661 q 694 672 633 694 q 793 590 756 650 q 810 461 808 563 l 810 122 z "},"o":{"ha":749,"x_min":11,"x_max":731,"o":"m 11 340 q 113 599 11 499 q 371 700 215 700 q 629 598 528 700 q 731 335 731 496 q 631 73 731 174 q 378 -28 532 -28 q 116 76 221 -28 q 11 340 11 179 m 411 114 q 450 318 450 147 q 363 550 450 550 q 325 540 339 550 q 292 332 292 489 q 382 108 292 108 q 411 114 396 108 z "},"p":{"ha":860,"x_min":4,"x_max":836,"o":"m 483 -1 q 389 7 439 -1 l 389 -140 l 526 -211 l 525 -279 l 19 -279 l 18 -229 l 110 -193 l 110 550 l 7 576 l 4 644 q 308 699 138 692 l 308 697 l 389 625 l 389 579 l 531 686 l 576 690 q 764 599 692 690 q 836 368 836 508 q 740 103 836 207 q 483 -1 643 -1 m 422 504 l 389 500 l 389 131 q 475 121 429 121 q 539 322 539 194 q 508 451 539 399 q 422 504 478 504 z "},"q":{"ha":836,"x_min":24,"x_max":819,"o":"m 746 -164 l 819 -211 l 818 -279 l 324 -279 l 322 -229 q 467 -167 389 -189 l 467 90 l 331 -14 q 110 83 197 -15 q 24 332 24 182 q 135 598 24 496 q 432 700 246 700 q 746 642 588 700 l 746 -164 m 433 181 l 467 185 l 467 549 q 385 565 429 563 q 314 361 314 497 q 345 232 314 283 q 433 181 376 181 z "},"r":{"ha":718,"x_min":8,"x_max":735,"o":"m 561 365 q 394 467 458 454 l 394 139 q 549 68 492 104 l 547 0 l 13 0 l 11 49 q 115 99 58 78 l 115 550 l 11 576 l 8 644 q 313 699 142 692 l 394 576 l 492 690 q 550 699 518 699 q 665 666 613 699 q 735 578 718 633 l 561 365 z "},"s":{"ha":656,"x_min":21,"x_max":625,"o":"m 293 533 q 326 480 293 503 q 422 423 358 457 q 525 363 486 389 q 594 292 564 336 q 625 192 625 249 q 543 33 625 93 q 325 -28 461 -28 q 21 47 168 -28 l 108 250 q 350 100 228 154 q 371 143 371 118 q 351 183 371 164 q 228 258 332 203 q 84 363 124 313 q 44 475 44 414 q 135 638 44 575 q 365 700 226 700 q 593 653 501 700 l 596 603 q 572 453 596 528 l 435 453 l 382 582 l 353 585 q 293 533 293 574 z "},"t":{"ha":585,"x_min":-6,"x_max":563,"o":"m 383 485 l 383 228 q 438 174 383 174 l 543 179 l 549 106 l 303 -24 q 166 22 226 -26 q 104 136 106 69 l 104 486 l -4 486 l -6 564 q 119 661 46 611 l 203 851 l 328 851 l 374 658 l 563 658 l 563 579 l 492 485 l 383 485 z "},"u":{"ha":911,"x_min":0,"x_max":908,"o":"m 908 90 l 708 -24 q 619 9 663 -22 q 549 94 576 40 q 338 -24 439 11 q 226 -3 288 -29 q 125 83 164 24 q 107 213 108 110 l 107 550 l 3 576 l 0 644 q 304 699 133 692 l 386 625 l 386 269 q 485 161 386 153 l 518 167 l 518 557 l 447 582 l 444 650 q 715 699 563 694 l 797 625 l 797 193 q 831 150 797 150 l 876 151 l 904 153 l 908 90 z "},"v":{"ha":785,"x_min":-43,"x_max":790,"o":"m 790 596 l 729 554 l 561 146 l 499 4 q 344 -12 440 -12 q 249 -6 288 -12 l 47 531 l -43 592 l -43 669 l 297 669 l 400 339 l 419 247 l 435 247 q 478 669 463 450 l 789 669 l 790 596 z "},"w":{"ha":1115,"x_min":-43,"x_max":1119,"o":"m 1119 596 q 1063 557 1092 572 l 861 6 q 710 -12 803 -12 q 621 -6 658 -12 l 556 176 l 481 6 q 322 -12 422 -12 q 229 -6 267 -12 l 32 539 l -43 592 l -43 669 l 281 669 l 419 224 l 436 224 l 488 365 l 381 661 l 663 667 l 785 224 l 800 224 l 799 669 l 1118 669 l 1119 596 z "},"x":{"ha":836,"x_min":4,"x_max":828,"o":"m 713 135 q 828 68 772 108 l 826 0 l 507 0 l 363 201 l 325 0 l 6 0 l 4 61 l 25 68 l 275 324 l 140 511 l 18 592 l 18 669 l 344 669 l 472 483 l 507 669 l 806 669 l 807 607 l 789 600 l 558 360 l 713 135 z "},"y":{"ha":811,"x_min":-44,"x_max":815,"o":"m 815 596 l 754 558 l 689 319 q 510 -79 615 61 q 206 -325 404 -219 l 63 -78 q 390 31 233 -32 l 233 69 l 69 518 l -44 592 l -44 669 l 308 669 l 393 353 l 400 258 l 422 258 q 496 669 474 515 l 814 669 l 815 596 z "},"z":{"ha":746,"x_min":14,"x_max":731,"o":"m 714 246 l 658 -29 l 196 38 l 106 -25 l 14 51 l 385 568 l 276 549 l 213 413 l 64 413 q 53 550 53 464 q 60 661 53 619 l 60 669 l 597 669 l 643 699 l 731 614 l 394 160 l 558 200 l 714 246 z "},"{":{"ha":785,"x_min":86,"x_max":672,"o":"m 654 -201 q 347 -117 471 -192 q 224 54 224 -43 l 224 219 q 192 338 222 310 q 86 372 163 367 l 94 454 q 193 489 164 460 q 224 599 222 518 l 224 738 q 344 925 224 850 q 664 1013 465 1000 l 672 844 l 499 844 l 521 624 l 522 601 q 440 422 522 504 l 440 410 q 522 229 522 325 l 521 207 l 499 -17 l 668 -33 l 654 -201 z "},"|":{"ha":463,"x_min":129,"x_max":332,"o":"m 129 1021 l 331 1021 l 332 -312 l 129 -312 l 129 1021 z "},"}":{"ha":788,"x_min":114,"x_max":700,"o":"m 118 -33 l 288 -17 l 265 207 l 264 229 q 346 410 264 322 l 346 422 q 264 601 264 507 l 265 624 l 288 844 l 114 844 l 122 1013 q 442 925 321 1000 q 563 738 563 850 l 563 599 q 593 489 564 518 q 692 454 622 460 l 700 372 q 594 338 624 367 q 563 219 564 310 l 563 54 q 439 -117 563 -43 q 132 -201 315 -192 l 118 -33 z "},"~":{"ha":843,"x_min":88,"x_max":760,"o":"m 88 318 q 201 478 163 432 q 278 524 240 524 q 568 400 326 524 l 690 500 l 760 440 q 651 274 692 324 q 567 225 610 225 q 413 282 524 225 q 279 339 303 339 q 169 257 249 339 l 88 318 z "},"¡":{"ha":508,"x_min":92,"x_max":418,"o":"m 92 -294 q 258 -319 161 -319 q 418 -292 361 -319 l 349 332 l 158 332 l 92 -294 m 249 421 q 401 576 371 476 q 272 729 369 679 q 113 600 161 693 q 249 421 128 489 z "},"¢":{"ha":688,"x_min":11,"x_max":672,"o":"m 653 128 l 456 11 l 456 -162 l 303 -162 l 303 3 q 92 115 172 22 q 11 336 11 207 q 91 561 11 468 q 303 676 171 654 l 303 829 l 456 829 l 456 674 q 598 609 539 657 q 672 485 657 561 l 443 381 q 338 550 396 504 q 276 374 276 489 q 325 221 276 279 q 463 163 374 163 q 617 204 529 163 l 653 128 z "},"£":{"ha":857,"x_min":17,"x_max":814,"o":"m 796 335 q 814 99 814 260 l 810 6 l 811 0 l 33 0 l 25 44 q 153 122 74 83 q 183 263 183 193 l 176 332 l 25 332 l 17 383 l 76 440 l 142 440 q 93 624 93 563 q 203 840 93 750 q 478 931 313 931 q 785 854 650 931 l 786 854 l 788 796 q 767 576 788 647 l 629 576 l 524 767 l 451 785 q 390 674 390 753 q 429 465 390 638 l 604 465 l 613 414 l 553 357 l 442 357 q 383 149 442 239 l 581 163 l 669 346 l 796 335 z "},"¤":{"ha":708,"x_min":61,"x_max":647,"o":"m 615 496 q 565 328 615 399 l 644 242 l 572 171 l 493 257 q 354 217 428 217 q 217 254 278 217 l 144 168 l 69 236 l 146 319 q 90 496 90 394 q 142 657 90 588 l 61 747 l 138 815 l 217 728 q 357 769 282 769 q 499 731 438 769 l 569 814 l 647 749 l 568 664 q 615 496 615 594 m 375 360 q 419 365 399 360 q 460 483 460 408 q 428 584 460 543 q 332 625 397 625 l 289 621 q 246 506 246 578 q 279 403 246 446 q 375 360 313 360 z "},"¥":{"ha":951,"x_min":-39,"x_max":947,"o":"m 594 326 l 594 268 l 774 268 l 782 217 l 722 163 l 594 163 l 594 97 l 713 76 l 711 0 l 206 0 l 197 44 q 314 117 244 82 l 314 163 l 136 163 l 128 214 l 188 268 l 314 268 l 314 326 l 136 326 l 128 378 l 188 432 l 263 432 l 50 833 l -39 849 l -37 925 l 390 925 l 399 881 l 333 836 l 444 628 l 483 504 l 493 504 l 658 832 l 564 849 l 565 925 l 939 925 l 947 881 q 819 803 899 842 l 621 432 l 774 432 l 782 381 l 722 326 l 594 326 z "},"¦":{"ha":461,"x_min":129,"x_max":331,"o":"m 129 856 l 331 856 l 331 497 l 129 497 l 129 856 m 129 253 l 331 253 l 331 -106 l 129 -106 l 129 253 z "},"§":{"ha":763,"x_min":92,"x_max":706,"o":"m 582 183 q 669 13 669 113 q 591 -145 669 -82 q 389 -208 513 -208 q 92 -124 231 -208 l 201 67 q 425 -78 275 -3 q 468 -15 468 -57 q 449 27 468 10 q 333 90 431 44 q 141 216 189 163 q 93 338 93 269 q 211 518 93 451 q 106 697 106 596 q 195 866 106 800 q 425 932 285 932 q 663 883 560 932 l 664 835 q 643 672 664 746 l 506 672 l 449 810 l 397 817 q 350 787 368 808 q 332 739 332 765 q 399 657 332 693 l 479 615 q 646 507 586 561 q 706 368 706 453 q 582 183 706 250 m 290 385 q 316 328 290 351 q 481 244 342 304 q 507 301 507 272 q 410 413 507 364 l 325 453 q 290 385 290 421 z "},"¨":{"ha":772,"x_min":72,"x_max":707,"o":"m 350 908 q 225 761 317 810 q 72 885 122 796 q 201 1056 89 993 q 350 908 322 1003 m 707 908 q 582 761 674 810 q 429 885 479 796 q 558 1056 446 993 q 707 908 679 1003 z "},"©":{"ha":1068,"x_min":33,"x_max":1035,"o":"m 535 -36 q 179 108 325 -36 q 33 461 33 251 q 178 816 33 671 q 529 961 322 961 q 886 815 738 961 q 1035 458 1035 668 q 889 108 1035 251 q 535 -36 743 -36 m 531 79 q 806 190 694 79 q 918 461 918 301 q 806 734 918 622 q 535 846 693 846 q 263 733 375 846 q 151 457 151 621 q 260 188 151 296 q 531 79 369 79 m 599 190 l 553 188 q 345 262 426 188 q 264 458 264 336 q 344 658 264 581 q 553 735 425 735 q 789 565 725 735 l 613 481 q 522 629 581 588 q 471 488 471 575 q 518 378 471 421 q 650 336 565 336 q 747 354 690 336 l 772 289 l 599 190 z "},"ª":{"ha":629,"x_min":43,"x_max":588,"o":"m 311 640 l 311 703 q 268 788 311 769 l 229 783 l 200 678 l 85 676 q 75 789 75 735 l 76 828 q 356 872 213 872 q 490 801 444 867 q 500 726 500 783 l 500 560 q 522 531 500 531 l 572 532 l 574 492 l 436 411 q 325 483 363 414 l 229 417 l 188 413 q 85 447 122 413 q 47 528 47 481 q 122 639 47 600 l 311 640 m 222 543 q 222 533 222 543 q 238 513 222 524 l 311 524 l 311 581 l 290 582 q 242 574 263 585 q 222 543 222 563 m 588 354 l 588 261 l 43 261 l 43 354 l 588 354 z "},"«":{"ha":913,"x_min":72,"x_max":840,"o":"m 317 667 l 444 576 l 324 351 l 454 138 l 317 40 l 72 288 l 72 415 l 317 667 m 703 667 l 831 576 l 710 351 l 840 138 l 703 40 l 458 288 l 458 415 l 703 667 z "},"¬":{"ha":822,"x_min":72,"x_max":750,"o":"m 750 0 l 588 0 l 588 239 l 72 239 l 72 392 l 750 392 l 750 0 z "},"­":{"ha":694,"x_min":47,"x_max":617,"o":"m 47 439 l 82 507 l 526 507 l 617 364 l 582 296 l 138 296 l 47 439 z "},"®":{"ha":799,"x_min":15,"x_max":782,"o":"m 403 1081 q 674 973 565 1081 q 782 701 782 865 q 674 428 782 539 q 399 318 567 318 q 124 426 232 318 q 15 699 15 535 q 126 972 15 863 q 403 1081 236 1081 m 392 404 q 607 488 524 404 q 690 699 690 571 q 608 913 690 829 q 399 996 526 996 q 189 910 271 996 q 107 692 107 824 q 185 483 107 561 q 392 404 264 404 m 567 565 l 604 560 l 604 526 l 458 526 l 386 663 l 363 663 l 363 567 l 407 560 l 406 526 l 201 526 l 197 547 l 247 575 l 247 846 l 203 853 l 203 889 l 413 889 q 531 856 486 889 q 575 775 575 824 q 499 674 575 703 l 567 565 m 363 717 l 389 714 q 450 771 450 714 q 417 836 450 814 l 363 828 l 363 717 z "},"¯":{"ha":631,"x_min":86,"x_max":596,"o":"m 589 940 l 596 858 l 531 789 l 94 789 l 86 906 q 243 940 157 940 l 589 940 z "},"°":{"ha":519,"x_min":42,"x_max":436,"o":"m 42 724 q 98 863 42 806 q 236 921 154 921 q 378 864 319 921 q 436 724 436 807 q 382 581 436 635 q 242 528 328 528 q 99 583 157 528 q 42 724 42 639 m 278 651 q 299 714 299 676 q 280 773 299 747 q 229 799 261 799 q 193 790 213 799 q 175 729 175 764 q 193 672 175 696 q 246 647 211 647 l 278 651 z "},"±":{"ha":779,"x_min":72,"x_max":707,"o":"m 707 475 l 471 475 l 471 232 l 308 232 l 308 475 l 72 475 l 72 626 l 308 626 l 308 869 l 471 869 l 471 626 l 707 626 l 707 475 m 703 0 l 74 0 l 74 151 l 703 151 l 703 0 z "},"²":{"ha":467,"x_min":42,"x_max":429,"o":"m 429 728 l 404 576 l 69 576 l 42 650 l 135 731 q 250 894 250 831 q 203 968 250 953 l 153 824 l 63 824 q 44 963 44 878 l 46 982 q 231 1043 129 1043 q 361 1000 310 1043 q 413 896 413 957 q 240 689 413 790 l 246 679 l 429 728 z "},"³":{"ha":479,"x_min":42,"x_max":439,"o":"m 353 808 q 415 769 392 799 q 439 699 439 739 q 378 597 439 632 q 229 563 317 563 q 42 600 125 563 l 78 751 q 235 636 169 669 q 271 688 271 653 q 186 747 271 747 l 153 747 l 149 822 l 188 822 q 263 893 263 831 q 204 964 263 953 l 146 853 l 69 853 q 59 923 63 876 q 58 996 56 969 q 239 1043 132 1043 q 367 1003 317 1043 q 418 908 418 964 q 353 813 418 843 l 353 808 z "},"⁴":{"ha":478,"x_min":-6,"x_max":450,"o":"m 450 760 l 450 704 l 422 674 l 371 674 l 371 631 l 421 618 l 421 576 l 122 576 l 118 597 q 219 642 157 625 l 219 674 l 28 674 l -6 750 l 233 1042 l 233 1043 l 236 1043 l 371 1019 l 371 758 l 450 760 m 219 757 l 219 786 l 239 900 l 131 756 l 219 757 z "},"´":{"ha":421,"x_min":19,"x_max":404,"o":"m 19 849 l 238 1122 l 404 975 q 156 743 344 926 l 19 849 z "},"µ":{"ha":865,"x_min":61,"x_max":863,"o":"m 863 90 l 663 -24 q 501 96 564 -24 q 303 -18 399 18 q 219 24 260 -17 l 213 24 l 344 -254 q 261 -302 325 -279 q 132 -325 197 -325 q 63 -315 93 -325 l 61 658 q 340 686 196 689 l 340 269 q 440 161 340 156 l 472 167 l 472 658 q 751 686 607 689 l 751 193 q 785 150 751 150 l 831 151 l 858 153 l 863 90 z "},"¶":{"ha":1001,"x_min":0,"x_max":976,"o":"m 853 801 l 853 -143 l 963 -156 l 961 -229 l 853 -229 l 853 -231 l 681 -231 l 681 810 l 582 814 l 582 -231 l 410 -231 l 410 -229 l 269 -229 l 261 -168 q 410 -121 307 -146 l 410 794 q 306 703 344 765 q 268 560 268 642 q 314 386 268 478 l 261 335 q 72 457 144 368 q 0 653 0 546 q 114 877 0 792 q 417 963 228 963 l 468 961 l 976 897 l 967 796 l 853 801 z "},"·":{"ha":429,"x_min":42,"x_max":346,"o":"m 214 249 q 120 306 172 265 q 42 382 68 346 q 181 551 101 504 q 271 494 224 533 q 346 418 318 454 q 290 324 328 372 q 214 249 253 275 z "},"¸":{"ha":414,"x_min":43,"x_max":372,"o":"m 185 -78 q 317 -112 263 -78 q 372 -194 372 -147 q 287 -328 372 -274 q 78 -379 201 -383 l 49 -332 q 144 -278 111 -310 q 178 -215 178 -246 q 152 -174 178 -189 q 81 -164 126 -160 l 43 -99 l 131 8 l 232 8 l 185 -78 z "},"¹":{"ha":397,"x_min":22,"x_max":376,"o":"m 376 617 l 376 576 l 43 576 l 39 597 q 131 644 78 632 l 131 892 l 50 861 l 22 919 l 228 1031 l 228 1032 l 229 1032 l 229 1031 l 299 988 l 299 642 l 376 617 z "},"º":{"ha":614,"x_min":22,"x_max":556,"o":"m 39 635 q 113 808 39 740 q 293 876 188 876 q 465 808 394 876 q 536 633 536 739 q 465 461 536 528 q 289 394 394 394 q 110 463 182 394 q 39 635 39 531 m 318 504 q 342 613 342 514 q 281 753 342 753 l 260 749 q 235 632 235 733 q 300 503 235 503 l 318 504 m 556 261 l 22 261 l 22 354 l 556 354 l 556 261 z "},"»":{"ha":913,"x_min":72,"x_max":840,"o":"m 210 40 l 72 138 l 203 351 l 82 576 l 210 667 l 454 415 l 454 288 l 210 40 m 596 40 l 458 138 l 589 351 l 468 576 l 596 667 l 840 415 l 840 288 l 596 40 z "},"¼":{"ha":1158,"x_min":22,"x_max":1131,"o":"m 376 504 l 376 464 l 43 464 l 39 485 q 131 532 78 519 l 131 779 l 50 749 l 22 807 l 228 918 l 228 919 l 229 919 l 229 918 l 299 875 l 299 529 l 376 504 m 935 969 l 1033 872 l 213 14 l 113 108 l 935 969 m 1131 183 l 1131 128 l 1103 97 l 1051 97 l 1051 54 l 1101 42 l 1101 0 l 803 0 l 799 21 q 900 65 838 49 l 900 97 l 708 97 l 675 174 l 914 465 l 914 467 l 917 467 l 1051 443 l 1051 182 l 1131 183 m 900 181 l 900 210 l 919 324 l 811 179 l 900 181 z "},"½":{"ha":1125,"x_min":22,"x_max":1113,"o":"m 376 504 l 376 464 l 43 464 l 39 485 q 131 532 78 519 l 131 779 l 50 749 l 22 807 l 228 918 l 228 919 l 229 919 l 229 918 l 299 875 l 299 529 l 376 504 m 935 969 l 1033 872 l 213 14 l 113 108 l 935 969 m 1113 151 l 1088 0 l 753 0 l 725 74 l 818 154 q 933 318 933 254 q 886 392 933 376 l 836 247 l 746 247 q 728 386 728 301 l 729 406 q 914 467 813 467 q 1044 424 993 467 q 1096 319 1096 381 q 924 113 1096 214 l 929 103 l 1113 151 z "},"¾":{"ha":1206,"x_min":32,"x_max":1178,"o":"m 343 696 q 406 656 382 686 q 429 586 429 626 q 368 485 429 519 q 219 450 307 450 q 32 488 115 450 l 68 639 q 225 524 160 557 q 261 575 261 540 q 176 635 261 635 l 143 635 l 139 710 l 178 710 q 253 781 253 718 q 194 851 253 840 l 136 740 l 60 740 q 49 810 53 764 q 49 883 46 857 q 229 931 122 931 q 358 891 307 931 q 408 796 408 851 q 343 700 408 731 l 343 696 m 982 969 l 1081 872 l 260 14 l 160 108 l 982 969 m 1178 183 l 1178 128 l 1150 97 l 1099 97 l 1099 54 l 1149 42 l 1149 0 l 850 0 l 846 21 q 947 65 885 49 l 947 97 l 756 97 l 722 174 l 961 465 l 961 467 l 964 467 l 1099 443 l 1099 182 l 1178 183 m 947 181 l 947 210 l 967 324 l 858 179 l 947 181 z "},"¿":{"ha":918,"x_min":117,"x_max":797,"o":"m 476 -368 q 217 -286 317 -368 q 117 -79 117 -204 q 182 79 117 15 l 297 182 q 365 300 353 236 l 596 300 q 567 169 596 221 q 484 60 538 118 q 418 -22 431 3 q 406 -76 406 -47 q 486 -193 406 -162 l 511 -192 l 604 22 l 764 22 q 797 -219 797 -107 l 796 -244 l 797 -249 q 476 -368 663 -368 m 471 372 q 318 528 349 428 q 447 681 350 631 q 607 551 558 644 q 471 372 592 440 z "},"À":{"ha":1029,"x_min":-28,"x_max":1051,"o":"m 1051 76 l 1050 0 l 547 0 l 539 44 q 643 110 588 82 l 600 225 l 317 225 l 268 96 l 381 76 l 379 0 l -19 0 l -28 44 q 89 117 19 82 l 376 831 l 353 896 l 606 958 l 953 93 l 1051 76 m 553 353 l 458 610 l 364 353 l 553 353 m 640 950 l 274 1089 l 365 1281 l 711 1074 l 640 950 z "},"Á":{"ha":1029,"x_min":-28,"x_max":1051,"o":"m 1051 76 l 1050 0 l 547 0 l 539 44 q 643 110 588 82 l 600 225 l 317 225 l 268 96 l 381 76 l 379 0 l -19 0 l -28 44 q 89 117 19 82 l 376 831 l 353 896 l 606 958 l 953 93 l 1051 76 m 553 353 l 458 610 l 364 353 l 553 353 m 636 1281 l 728 1089 l 361 950 l 290 1074 l 636 1281 z "},"Â":{"ha":1029,"x_min":-28,"x_max":1051,"o":"m 1051 76 l 1050 0 l 547 0 l 539 44 q 643 110 588 82 l 600 225 l 317 225 l 268 96 l 381 76 l 379 0 l -19 0 l -28 44 q 89 117 19 82 l 376 831 l 353 896 l 606 958 l 953 93 l 1051 76 m 553 353 l 458 610 l 364 353 l 553 353 m 413 1311 l 594 1311 l 813 1068 l 724 982 l 500 1143 l 288 982 l 193 1068 l 413 1311 z "},"Ã":{"ha":1029,"x_min":-28,"x_max":1051,"o":"m 1051 76 l 1050 0 l 547 0 l 539 44 q 643 110 588 82 l 600 225 l 317 225 l 268 96 l 381 76 l 379 0 l -19 0 l -28 44 q 89 117 19 82 l 376 831 l 353 896 l 606 958 l 953 93 l 1051 76 m 553 353 l 458 610 l 364 353 l 553 353 m 176 1065 q 290 1225 251 1179 q 367 1271 329 1271 q 657 1147 415 1271 l 779 1247 l 849 1188 q 740 1022 781 1071 q 656 972 699 972 q 502 1029 613 972 q 368 1086 392 1086 q 258 1004 338 1086 l 176 1065 z "},"Ä":{"ha":1029,"x_min":-28,"x_max":1051,"o":"m 1051 76 l 1050 0 l 547 0 l 539 44 q 643 110 588 82 l 600 225 l 317 225 l 268 96 l 381 76 l 379 0 l -19 0 l -28 44 q 89 117 19 82 l 376 831 l 353 896 l 606 958 l 953 93 l 1051 76 m 553 353 l 458 610 l 364 353 l 553 353 m 461 1153 q 336 1006 428 1054 q 183 1129 233 1040 q 313 1300 200 1238 q 461 1153 433 1247 m 818 1153 q 693 1006 785 1054 q 540 1129 590 1040 q 669 1300 557 1238 q 818 1153 790 1247 z "},"Å":{"ha":1029,"x_min":-28,"x_max":1051,"o":"m 1051 76 l 1050 0 l 547 0 l 539 44 q 643 110 588 82 l 600 225 l 317 225 l 268 96 l 381 76 l 379 0 l -19 0 l -28 44 q 89 117 19 82 l 376 831 l 353 896 l 606 958 l 953 93 l 1051 76 m 553 353 l 458 610 l 364 353 l 553 353 m 324 1161 q 374 1289 324 1238 q 500 1340 424 1340 q 626 1288 575 1340 q 678 1157 678 1236 q 630 1033 678 1081 q 506 985 582 985 q 376 1033 429 985 q 324 1161 324 1082 m 419 1136 q 444 1078 419 1100 q 503 1056 468 1056 q 560 1078 538 1056 q 582 1135 582 1100 q 558 1194 582 1171 q 500 1217 535 1217 q 442 1194 465 1217 q 419 1136 419 1171 z "},"Æ":{"ha":1364,"x_min":-8,"x_max":1317,"o":"m 1314 303 q 1297 0 1317 165 l 1274 1 l 1274 0 l 490 0 l 482 46 q 600 118 518 75 l 600 225 l 354 225 l 289 96 l 400 76 l 399 0 l 0 0 l -8 46 q 126 126 29 76 l 488 831 l 381 849 l 382 925 l 1308 925 q 1303 784 1311 874 q 1279 626 1294 694 l 1119 626 l 1092 772 l 881 786 l 881 521 l 1174 546 l 1174 386 l 881 399 l 881 150 l 1101 164 l 1154 315 l 1314 303 m 600 353 l 600 719 l 418 353 l 600 353 z "},"Ç":{"ha":849,"x_min":10,"x_max":843,"o":"m 467 -78 q 599 -112 544 -78 q 654 -194 654 -147 q 569 -328 654 -274 q 360 -379 483 -383 l 331 -332 q 426 -278 393 -310 q 460 -215 460 -246 q 434 -174 460 -189 q 363 -164 408 -160 l 325 -99 l 393 -17 q 111 137 213 13 q 10 450 10 261 q 66 696 10 581 q 236 882 122 811 q 514 953 350 953 q 817 861 682 953 l 818 838 q 781 576 818 726 l 608 576 l 558 775 q 406 808 489 800 q 299 486 299 693 q 365 247 299 340 q 557 153 432 154 l 800 228 l 843 99 l 546 -24 l 496 -25 l 467 -78 z "},"È":{"ha":931,"x_min":31,"x_max":864,"o":"m 861 303 q 844 0 864 165 l 39 0 l 31 44 q 149 117 82 83 l 149 831 l 43 849 l 44 925 l 857 925 q 851 784 860 874 q 828 626 843 694 l 668 626 l 640 774 l 440 788 l 440 522 l 722 546 l 722 386 l 440 397 l 440 140 l 647 158 l 701 315 l 861 303 m 601 950 l 235 1089 l 326 1281 l 672 1074 l 601 950 z "},"É":{"ha":931,"x_min":31,"x_max":864,"o":"m 861 303 q 844 0 864 165 l 39 0 l 31 44 q 149 117 82 83 l 149 831 l 43 849 l 44 925 l 857 925 q 851 784 860 874 q 828 626 843 694 l 668 626 l 640 774 l 440 788 l 440 522 l 722 546 l 722 386 l 440 397 l 440 140 l 647 158 l 701 315 l 861 303 m 597 1281 l 689 1089 l 322 950 l 251 1074 l 597 1281 z "},"Ê":{"ha":931,"x_min":31,"x_max":864,"o":"m 861 303 q 844 0 864 165 l 39 0 l 31 44 q 149 117 82 83 l 149 831 l 43 849 l 44 925 l 857 925 q 851 784 860 874 q 828 626 843 694 l 668 626 l 640 774 l 440 788 l 440 522 l 722 546 l 722 386 l 440 397 l 440 140 l 647 158 l 701 315 l 861 303 m 374 1311 l 556 1311 l 774 1068 l 685 982 l 461 1143 l 249 982 l 154 1068 l 374 1311 z "},"Ë":{"ha":931,"x_min":31,"x_max":864,"o":"m 861 303 q 844 0 864 165 l 39 0 l 31 44 q 149 117 82 83 l 149 831 l 43 849 l 44 925 l 857 925 q 851 784 860 874 q 828 626 843 694 l 668 626 l 640 774 l 440 788 l 440 522 l 722 546 l 722 386 l 440 397 l 440 140 l 647 158 l 701 315 l 861 303 m 422 1153 q 297 1006 389 1054 q 144 1129 194 1040 q 274 1300 161 1238 q 422 1153 394 1247 m 779 1153 q 654 1006 746 1054 q 501 1129 551 1040 q 631 1300 518 1238 q 779 1153 751 1247 z "},"Ì":{"ha":594,"x_min":31,"x_max":564,"o":"m 564 76 l 563 0 l 39 0 l 31 44 q 149 117 82 83 l 149 831 l 42 849 l 43 925 l 550 925 l 558 881 q 440 808 507 842 l 440 97 l 564 76 m 436 950 l 69 1089 l 161 1281 l 507 1074 l 436 950 z "},"Í":{"ha":594,"x_min":31,"x_max":564,"o":"m 564 76 l 563 0 l 39 0 l 31 44 q 149 117 82 83 l 149 831 l 42 849 l 43 925 l 550 925 l 558 881 q 440 808 507 842 l 440 97 l 564 76 m 432 1281 l 524 1089 l 157 950 l 86 1074 l 432 1281 z "},"Î":{"ha":594,"x_min":-11,"x_max":608,"o":"m 564 76 l 563 0 l 39 0 l 31 44 q 149 117 82 83 l 149 831 l 42 849 l 43 925 l 550 925 l 558 881 q 440 808 507 842 l 440 97 l 564 76 m 208 1311 l 390 1311 l 608 1068 l 519 982 l 296 1143 l 83 982 l -11 1068 l 208 1311 z "},"Ï":{"ha":594,"x_min":-21,"x_max":614,"o":"m 564 76 l 563 0 l 39 0 l 31 44 q 149 117 82 83 l 149 831 l 42 849 l 43 925 l 550 925 l 558 881 q 440 808 507 842 l 440 97 l 564 76 m 257 1153 q 132 1006 224 1054 q -21 1129 29 1040 q 108 1300 -4 1238 q 257 1153 229 1247 m 614 1153 q 489 1006 581 1054 q 336 1129 386 1040 q 465 1300 353 1238 q 614 1153 586 1247 z "},"Ð":{"ha":1089,"x_min":17,"x_max":1040,"o":"m 531 936 q 808 869 693 936 q 982 694 924 801 q 1040 471 1040 588 q 908 135 1040 265 q 557 0 776 4 l 39 0 l 31 44 q 149 117 82 83 l 149 364 l 25 364 l 17 415 l 76 475 l 149 475 l 149 832 l 50 849 l 51 925 q 531 936 268 936 m 522 139 q 679 228 619 139 q 739 454 739 318 q 699 657 739 560 q 589 801 658 754 l 440 781 l 440 475 l 607 475 l 615 424 l 556 364 l 440 364 l 440 153 q 522 139 482 139 z "},"Ñ":{"ha":1114,"x_min":31,"x_max":1083,"o":"m 1083 881 q 975 813 1038 844 l 965 0 l 717 -19 l 328 554 l 346 389 l 346 97 l 468 76 l 467 0 l 39 0 l 31 44 q 149 117 82 83 l 149 828 l 44 849 l 46 925 l 415 925 l 415 924 l 799 343 l 779 514 l 779 825 l 643 849 l 644 925 l 1075 925 l 1083 881 m 206 1065 q 319 1225 281 1179 q 396 1271 358 1271 q 686 1147 444 1271 l 808 1247 l 878 1188 q 769 1022 810 1071 q 685 972 728 972 q 531 1029 642 972 q 397 1086 421 1086 q 288 1004 367 1086 l 206 1065 z "},"Ò":{"ha":969,"x_min":11,"x_max":958,"o":"m 482 953 q 824 813 689 953 q 958 449 958 672 q 829 102 958 232 q 492 -28 700 -28 q 144 106 278 -28 q 11 456 11 239 q 144 813 11 674 q 482 953 276 953 m 393 789 q 337 675 358 754 q 315 486 315 596 q 369 217 315 315 q 517 118 424 118 q 568 129 540 118 q 631 256 607 171 q 654 446 654 342 q 606 700 654 596 q 464 804 557 804 q 393 789 431 804 m 626 950 l 260 1089 l 351 1281 l 697 1074 l 626 950 z "},"Ó":{"ha":969,"x_min":11,"x_max":958,"o":"m 482 953 q 824 813 689 953 q 958 449 958 672 q 829 102 958 232 q 492 -28 700 -28 q 144 106 278 -28 q 11 456 11 239 q 144 813 11 674 q 482 953 276 953 m 393 789 q 337 675 358 754 q 315 486 315 596 q 369 217 315 315 q 517 118 424 118 q 568 129 540 118 q 631 256 607 171 q 654 446 654 342 q 606 700 654 596 q 464 804 557 804 q 393 789 431 804 m 622 1281 l 714 1089 l 347 950 l 276 1074 l 622 1281 z "},"Ô":{"ha":969,"x_min":11,"x_max":958,"o":"m 482 953 q 824 813 689 953 q 958 449 958 672 q 829 102 958 232 q 492 -28 700 -28 q 144 106 278 -28 q 11 456 11 239 q 144 813 11 674 q 482 953 276 953 m 393 789 q 337 675 358 754 q 315 486 315 596 q 369 217 315 315 q 517 118 424 118 q 568 129 540 118 q 631 256 607 171 q 654 446 654 342 q 606 700 654 596 q 464 804 557 804 q 393 789 431 804 m 399 1311 l 581 1311 l 799 1068 l 710 982 l 486 1143 l 274 982 l 179 1068 l 399 1311 z "},"Õ":{"ha":969,"x_min":11,"x_max":958,"o":"m 482 953 q 824 813 689 953 q 958 449 958 672 q 829 102 958 232 q 492 -28 700 -28 q 144 106 278 -28 q 11 456 11 239 q 144 813 11 674 q 482 953 276 953 m 393 789 q 337 675 358 754 q 315 486 315 596 q 369 217 315 315 q 517 118 424 118 q 568 129 540 118 q 631 256 607 171 q 654 446 654 342 q 606 700 654 596 q 464 804 557 804 q 393 789 431 804 m 163 1065 q 276 1225 238 1179 q 353 1271 315 1271 q 643 1147 401 1271 l 765 1247 l 835 1188 q 726 1022 767 1071 q 642 972 685 972 q 488 1029 599 972 q 354 1086 378 1086 q 244 1004 324 1086 l 163 1065 z "},"Ö":{"ha":969,"x_min":11,"x_max":958,"o":"m 482 953 q 824 813 689 953 q 958 449 958 672 q 829 102 958 232 q 492 -28 700 -28 q 144 106 278 -28 q 11 456 11 239 q 144 813 11 674 q 482 953 276 953 m 393 789 q 337 675 358 754 q 315 486 315 596 q 369 217 315 315 q 517 118 424 118 q 568 129 540 118 q 631 256 607 171 q 654 446 654 342 q 606 700 654 596 q 464 804 557 804 q 393 789 431 804 m 447 1153 q 322 1006 414 1054 q 169 1129 219 1040 q 299 1300 186 1238 q 447 1153 419 1247 m 804 1153 q 679 1006 771 1054 q 526 1129 576 1040 q 656 1300 543 1238 q 804 1153 776 1247 z "},"×":{"ha":768,"x_min":76,"x_max":692,"o":"m 690 532 l 494 335 l 692 138 l 578 24 l 382 222 l 189 25 l 79 133 l 274 331 l 76 531 l 190 643 l 388 443 l 579 640 l 690 532 z "},"Ø":{"ha":990,"x_min":11,"x_max":958,"o":"m 789 846 q 958 449 958 703 q 829 102 958 232 q 492 -28 700 -28 q 315 1 399 -28 l 243 -129 l 133 -69 l 204 57 q 11 456 11 190 q 144 813 11 674 q 482 953 276 953 q 682 911 590 953 l 756 1043 l 865 981 l 789 846 m 315 486 q 338 296 315 382 l 585 736 q 464 804 535 804 q 393 789 431 804 q 337 675 358 754 q 315 486 315 596 m 568 129 q 631 256 607 171 q 654 446 654 342 q 642 583 654 519 l 407 164 q 517 118 456 118 q 568 129 540 118 z "},"Ù":{"ha":1074,"x_min":8,"x_max":1065,"o":"m 1065 881 q 947 808 1014 842 l 947 396 q 839 70 946 168 q 561 -28 732 -28 q 240 88 358 -28 q 115 406 121 203 l 115 831 l 8 849 l 10 925 l 517 925 l 525 881 q 407 808 474 842 l 407 357 q 458 178 407 236 q 593 121 510 121 q 703 158 658 121 q 750 399 749 222 l 750 829 l 639 849 l 640 925 l 1057 925 l 1065 881 m 675 950 l 308 1089 l 400 1281 l 746 1074 l 675 950 z "},"Ú":{"ha":1074,"x_min":8,"x_max":1065,"o":"m 1065 881 q 947 808 1014 842 l 947 396 q 839 70 946 168 q 561 -28 732 -28 q 240 88 358 -28 q 115 406 121 203 l 115 831 l 8 849 l 10 925 l 517 925 l 525 881 q 407 808 474 842 l 407 357 q 458 178 407 236 q 593 121 510 121 q 703 158 658 121 q 750 399 749 222 l 750 829 l 639 849 l 640 925 l 1057 925 l 1065 881 m 671 1281 l 763 1089 l 396 950 l 325 1074 l 671 1281 z "},"Û":{"ha":1074,"x_min":8,"x_max":1065,"o":"m 1065 881 q 947 808 1014 842 l 947 396 q 839 70 946 168 q 561 -28 732 -28 q 240 88 358 -28 q 115 406 121 203 l 115 831 l 8 849 l 10 925 l 517 925 l 525 881 q 407 808 474 842 l 407 357 q 458 178 407 236 q 593 121 510 121 q 703 158 658 121 q 750 399 749 222 l 750 829 l 639 849 l 640 925 l 1057 925 l 1065 881 m 447 1311 l 629 1311 l 847 1068 l 758 982 l 535 1143 l 322 982 l 228 1068 l 447 1311 z "},"Ü":{"ha":1074,"x_min":8,"x_max":1065,"o":"m 1065 881 q 947 808 1014 842 l 947 396 q 839 70 946 168 q 561 -28 732 -28 q 240 88 358 -28 q 115 406 121 203 l 115 831 l 8 849 l 10 925 l 517 925 l 525 881 q 407 808 474 842 l 407 357 q 458 178 407 236 q 593 121 510 121 q 703 158 658 121 q 750 399 749 222 l 750 829 l 639 849 l 640 925 l 1057 925 l 1065 881 m 496 1153 q 371 1006 463 1054 q 218 1129 268 1040 q 347 1300 235 1238 q 496 1153 468 1247 m 853 1153 q 728 1006 819 1054 q 575 1129 625 1040 q 704 1300 592 1238 q 853 1153 825 1247 z "},"Ý":{"ha":968,"x_min":-6,"x_max":981,"o":"m 628 97 l 746 76 l 744 0 l 239 0 l 231 44 q 347 117 278 82 l 347 336 l 83 833 l -6 849 l -4 925 l 424 925 l 432 881 l 367 836 l 478 628 l 517 504 l 526 504 l 692 832 l 597 849 l 599 925 l 972 925 l 981 881 q 853 803 932 842 l 628 383 l 628 97 m 650 1281 l 742 1089 l 375 950 l 304 1074 l 650 1281 z "},"Þ":{"ha":918,"x_min":36,"x_max":901,"o":"m 447 193 l 447 97 l 571 76 l 569 0 l 44 0 l 36 46 q 156 118 69 74 l 156 807 l 47 826 l 49 903 l 547 903 l 556 857 q 447 790 519 828 l 447 731 l 557 731 q 805 651 708 729 q 901 457 901 572 q 813 273 901 347 q 585 194 724 199 l 447 193 m 447 574 l 447 328 l 496 321 q 585 358 551 321 q 619 450 619 396 q 550 586 619 531 l 447 574 z "},"ß":{"ha":946,"x_min":-7,"x_max":928,"o":"m 692 529 q 778 430 697 494 q 894 315 860 365 q 928 197 928 265 q 849 33 928 93 q 646 -26 769 -26 q 440 6 544 -26 l 499 232 q 642 142 569 161 q 664 193 664 168 q 647 242 664 221 q 569 306 631 263 q 483 386 508 350 q 450 476 457 422 q 532 686 532 583 q 492 796 532 754 l 469 797 q 388 779 419 797 l 393 607 l 393 0 l 13 0 l 11 49 q 114 99 56 78 l 114 475 l -6 475 l -7 553 q 114 644 47 607 q 173 833 114 768 q 315 926 232 897 q 465 954 397 954 q 695 879 600 954 q 790 703 790 804 q 692 529 790 611 z "},"à":{"ha":807,"x_min":33,"x_max":803,"o":"m 803 90 l 604 -24 q 449 79 510 -24 l 304 -17 l 251 -21 q 96 34 158 -21 q 33 163 33 89 q 63 256 33 210 q 151 332 93 303 l 413 338 l 413 442 q 350 578 413 544 q 299 564 319 575 l 258 408 l 100 407 q 76 563 76 488 l 82 631 q 283 682 171 663 q 463 701 394 701 q 675 599 597 701 q 692 471 692 574 l 692 193 q 725 150 692 150 l 771 151 l 799 153 l 803 90 m 306 183 q 326 125 306 149 l 413 143 l 413 247 q 306 183 306 247 m 136 967 l 303 1114 l 521 840 l 385 735 q 136 967 196 918 z "},"á":{"ha":807,"x_min":33,"x_max":803,"o":"m 803 90 l 604 -24 q 449 79 510 -24 l 304 -17 l 251 -21 q 96 34 158 -21 q 33 163 33 89 q 63 256 33 210 q 151 332 93 303 l 413 338 l 413 442 q 350 578 413 544 q 299 564 319 575 l 258 408 l 100 407 q 76 563 76 488 l 82 631 q 283 682 171 663 q 463 701 394 701 q 675 599 597 701 q 692 471 692 574 l 692 193 q 725 150 692 150 l 771 151 l 799 153 l 803 90 m 306 183 q 326 125 306 149 l 413 143 l 413 247 q 306 183 306 247 m 232 840 l 450 1114 l 617 967 q 368 735 557 918 l 232 840 z "},"â":{"ha":807,"x_min":33,"x_max":803,"o":"m 803 90 l 604 -24 q 449 79 510 -24 l 304 -17 l 251 -21 q 96 34 158 -21 q 33 163 33 89 q 63 256 33 210 q 151 332 93 303 l 413 338 l 413 442 q 350 578 413 544 q 299 564 319 575 l 258 408 l 100 407 q 76 563 76 488 l 82 631 q 283 682 171 663 q 463 701 394 701 q 675 599 597 701 q 692 471 692 574 l 692 193 q 725 150 692 150 l 771 151 l 799 153 l 803 90 m 306 183 q 326 125 306 149 l 413 143 l 413 247 q 306 183 306 247 m 296 1035 l 472 1035 l 657 810 l 574 731 l 378 883 l 206 724 l 107 799 l 296 1035 z "},"ã":{"ha":807,"x_min":33,"x_max":803,"o":"m 803 90 l 604 -24 q 449 79 510 -24 l 304 -17 l 251 -21 q 96 34 158 -21 q 33 163 33 89 q 63 256 33 210 q 151 332 93 303 l 413 338 l 413 442 q 350 578 413 544 q 299 564 319 575 l 258 408 l 100 407 q 76 563 76 488 l 82 631 q 283 682 171 663 q 463 701 394 701 q 675 599 597 701 q 692 471 692 574 l 692 193 q 725 150 692 150 l 771 151 l 799 153 l 803 90 m 306 183 q 326 125 306 149 l 413 143 l 413 247 q 306 183 306 247 m 64 821 q 184 997 140 953 q 282 1040 228 1040 q 387 999 314 1040 q 521 913 460 958 l 638 1032 l 722 971 q 515 747 613 747 q 469 758 493 747 q 370 816 444 768 q 274 864 296 864 q 226 839 251 864 q 153 753 201 814 l 64 821 z "},"ä":{"ha":807,"x_min":33,"x_max":803,"o":"m 803 90 l 604 -24 q 449 79 510 -24 l 304 -17 l 251 -21 q 96 34 158 -21 q 33 163 33 89 q 63 256 33 210 q 151 332 93 303 l 413 338 l 413 442 q 350 578 413 544 q 299 564 319 575 l 258 408 l 100 407 q 76 563 76 488 l 82 631 q 283 682 171 663 q 463 701 394 701 q 675 599 597 701 q 692 471 692 574 l 692 193 q 725 150 692 150 l 771 151 l 799 153 l 803 90 m 306 183 q 326 125 306 149 l 413 143 l 413 247 q 306 183 306 247 m 338 900 q 213 753 304 801 q 60 876 110 788 q 189 1047 76 985 q 338 900 310 994 m 694 900 q 569 753 661 801 q 417 876 467 788 q 546 1047 433 985 q 694 900 667 994 z "},"å":{"ha":807,"x_min":33,"x_max":803,"o":"m 803 90 l 604 -24 q 449 79 510 -24 l 304 -17 l 251 -21 q 96 34 158 -21 q 33 163 33 89 q 63 256 33 210 q 151 332 93 303 l 413 338 l 413 442 q 350 578 413 544 q 299 564 319 575 l 258 408 l 100 407 q 76 563 76 488 l 82 631 q 283 682 171 663 q 463 701 394 701 q 675 599 597 701 q 692 471 692 574 l 692 193 q 725 150 692 150 l 771 151 l 799 153 l 803 90 m 306 183 q 326 125 306 149 l 413 143 l 413 247 q 306 183 306 247 m 200 908 q 250 1036 200 985 q 376 1088 300 1088 q 503 1035 451 1088 q 554 904 554 983 q 506 780 554 828 q 382 732 458 732 q 253 781 306 732 q 200 908 200 829 m 296 883 q 320 825 296 847 q 379 803 344 803 q 436 825 414 803 q 458 882 458 847 q 435 941 458 918 q 376 964 411 964 q 319 941 342 964 q 296 883 296 918 z "},"æ":{"ha":1124,"x_min":33,"x_max":1106,"o":"m 1013 304 l 676 306 q 741 189 689 228 q 869 150 793 150 q 1047 204 944 150 l 1086 118 l 867 -15 q 783 -24 825 -24 q 501 96 610 -24 l 304 -17 l 251 -21 q 96 34 158 -21 q 33 163 33 89 q 63 256 33 210 q 151 332 93 303 l 415 338 l 414 433 q 351 568 413 536 q 300 554 317 565 l 260 399 l 90 407 q 76 533 76 467 l 83 621 q 488 694 293 694 q 589 643 539 690 q 785 700 681 700 q 1016 615 926 700 q 1106 386 1106 529 l 1094 386 l 1013 304 m 757 574 q 678 424 696 532 l 857 436 q 823 528 850 489 q 757 574 796 568 m 326 125 q 458 158 363 129 q 426 247 438 196 l 415 247 q 306 183 306 247 q 326 125 306 149 z "},"ç":{"ha":665,"x_min":11,"x_max":672,"o":"m 447 -17 l 376 -25 l 347 -78 q 480 -112 425 -78 q 535 -194 535 -147 q 449 -328 535 -274 q 240 -379 364 -383 l 211 -332 q 307 -278 274 -310 q 340 -215 340 -246 q 315 -174 340 -189 q 243 -164 289 -160 l 206 -99 l 275 -14 q 85 107 160 15 q 11 333 11 199 q 114 597 11 494 q 374 700 217 700 q 568 646 483 700 q 672 490 653 592 l 443 381 q 338 560 394 514 q 276 374 276 496 q 325 212 276 274 q 463 150 374 150 q 617 194 528 150 l 653 113 l 447 -17 z "},"è":{"ha":717,"x_min":11,"x_max":699,"o":"m 617 304 l 271 306 q 336 190 285 231 q 464 150 388 150 q 640 204 540 150 l 679 118 l 460 -15 q 376 -24 418 -24 q 115 74 218 -24 q 11 328 11 172 q 118 593 11 486 q 378 700 225 700 q 609 615 519 700 q 699 386 699 529 l 617 304 m 350 574 q 272 422 294 536 l 450 435 q 416 528 443 489 q 350 574 389 568 m 131 967 l 297 1114 l 515 840 l 379 735 q 131 967 190 918 z "},"é":{"ha":717,"x_min":11,"x_max":699,"o":"m 617 304 l 271 306 q 336 190 285 231 q 464 150 388 150 q 640 204 540 150 l 679 118 l 460 -15 q 376 -24 418 -24 q 115 74 218 -24 q 11 328 11 172 q 118 593 11 486 q 378 700 225 700 q 609 615 519 700 q 699 386 699 529 l 617 304 m 350 574 q 272 422 294 536 l 450 435 q 416 528 443 489 q 350 574 389 568 m 226 840 l 444 1114 l 611 967 q 363 735 551 918 l 226 840 z "},"ê":{"ha":717,"x_min":11,"x_max":699,"o":"m 617 304 l 271 306 q 336 190 285 231 q 464 150 388 150 q 640 204 540 150 l 679 118 l 460 -15 q 376 -24 418 -24 q 115 74 218 -24 q 11 328 11 172 q 118 593 11 486 q 378 700 225 700 q 609 615 519 700 q 699 386 699 529 l 617 304 m 350 574 q 272 422 294 536 l 450 435 q 416 528 443 489 q 350 574 389 568 m 290 1035 l 467 1035 l 651 810 l 568 731 l 372 883 l 200 724 l 101 799 l 290 1035 z "},"ë":{"ha":717,"x_min":11,"x_max":699,"o":"m 617 304 l 271 306 q 336 190 285 231 q 464 150 388 150 q 640 204 540 150 l 679 118 l 460 -15 q 376 -24 418 -24 q 115 74 218 -24 q 11 328 11 172 q 118 593 11 486 q 378 700 225 700 q 609 615 519 700 q 699 386 699 529 l 617 304 m 350 574 q 272 422 294 536 l 450 435 q 416 528 443 489 q 350 574 389 568 m 332 900 q 207 753 299 801 q 54 876 104 788 q 183 1047 71 985 q 332 900 304 994 m 689 900 q 564 753 656 801 q 411 876 461 788 q 540 1047 428 985 q 689 900 661 994 z "},"ì":{"ha":485,"x_min":-6,"x_max":468,"o":"m 392 117 l 468 68 l 467 0 l 10 0 l 8 49 q 113 99 56 78 l 113 539 l 8 565 l 6 633 q 310 688 139 681 l 392 614 l 392 117 m -6 967 l 161 1114 l 379 840 l 243 735 q -6 967 54 918 z "},"í":{"ha":485,"x_min":6,"x_max":475,"o":"m 392 117 l 468 68 l 467 0 l 10 0 l 8 49 q 113 99 56 78 l 113 539 l 8 565 l 6 633 q 310 688 139 681 l 392 614 l 392 117 m 90 840 l 308 1114 l 475 967 q 226 735 415 918 l 90 840 z "},"î":{"ha":485,"x_min":-35,"x_max":515,"o":"m 392 117 l 468 68 l 467 0 l 10 0 l 8 49 q 113 99 56 78 l 113 539 l 8 565 l 6 633 q 310 688 139 681 l 392 614 l 392 117 m 154 1035 l 331 1035 l 515 810 l 432 731 l 236 883 l 64 724 l -35 799 l 154 1035 z "},"ï":{"ha":485,"x_min":-82,"x_max":553,"o":"m 392 117 l 468 68 l 467 0 l 10 0 l 8 49 q 113 99 56 78 l 113 539 l 8 565 l 6 633 q 310 688 139 681 l 392 614 l 392 117 m 196 900 q 71 753 163 801 q -82 876 -32 788 q 47 1047 -65 985 q 196 900 168 994 m 553 900 q 428 753 519 801 q 275 876 325 788 q 404 1047 292 985 q 553 900 525 994 z "},"ð":{"ha":774,"x_min":22,"x_max":767,"o":"m 628 832 q 767 354 767 572 q 666 70 767 179 q 407 -39 565 -39 q 133 66 243 -39 q 22 333 22 171 q 110 569 22 478 q 328 660 197 660 q 443 636 388 660 l 401 744 l 319 713 l 214 783 l 206 846 l 325 896 l 269 988 l 461 1082 l 536 983 l 647 1029 l 726 871 l 628 832 m 444 103 q 504 336 504 175 q 490 465 504 408 q 376 522 438 510 q 328 435 347 493 q 310 313 310 376 q 344 165 310 226 q 444 103 379 104 z "},"ñ":{"ha":925,"x_min":8,"x_max":910,"o":"m 810 122 q 910 68 869 97 l 907 0 l 531 0 l 531 379 q 433 513 531 518 l 394 506 l 394 117 l 471 68 l 469 0 l 13 0 l 11 49 q 115 99 58 78 l 115 550 l 11 576 l 8 644 q 313 699 142 692 l 394 614 l 394 592 q 579 692 490 661 q 694 672 633 694 q 793 590 756 650 q 810 461 808 563 l 810 122 m 150 821 q 270 997 226 953 q 368 1040 314 1040 q 473 999 400 1040 q 607 913 546 958 l 724 1032 l 808 971 q 601 747 699 747 q 555 758 579 747 q 456 816 531 768 q 360 864 382 864 q 313 839 338 864 q 239 753 288 814 l 150 821 z "},"ò":{"ha":749,"x_min":11,"x_max":731,"o":"m 11 340 q 113 599 11 499 q 371 700 215 700 q 629 598 528 700 q 731 335 731 496 q 631 73 731 174 q 378 -28 532 -28 q 116 76 221 -28 q 11 340 11 179 m 411 114 q 450 318 450 147 q 363 550 450 550 q 325 540 339 550 q 292 332 292 489 q 382 108 292 108 q 411 114 396 108 m 131 967 l 297 1114 l 515 840 l 379 735 q 131 967 190 918 z "},"ó":{"ha":749,"x_min":11,"x_max":731,"o":"m 11 340 q 113 599 11 499 q 371 700 215 700 q 629 598 528 700 q 731 335 731 496 q 631 73 731 174 q 378 -28 532 -28 q 116 76 221 -28 q 11 340 11 179 m 411 114 q 450 318 450 147 q 363 550 450 550 q 325 540 339 550 q 292 332 292 489 q 382 108 292 108 q 411 114 396 108 m 226 840 l 444 1114 l 611 967 q 363 735 551 918 l 226 840 z "},"ô":{"ha":749,"x_min":11,"x_max":731,"o":"m 11 340 q 113 599 11 499 q 371 700 215 700 q 629 598 528 700 q 731 335 731 496 q 631 73 731 174 q 378 -28 532 -28 q 116 76 221 -28 q 11 340 11 179 m 411 114 q 450 318 450 147 q 363 550 450 550 q 325 540 339 550 q 292 332 292 489 q 382 108 292 108 q 411 114 396 108 m 290 1035 l 467 1035 l 651 810 l 568 731 l 372 883 l 200 724 l 101 799 l 290 1035 z "},"õ":{"ha":749,"x_min":11,"x_max":731,"o":"m 11 340 q 113 599 11 499 q 371 700 215 700 q 629 598 528 700 q 731 335 731 496 q 631 73 731 174 q 378 -28 532 -28 q 116 76 221 -28 q 11 340 11 179 m 411 114 q 450 318 450 147 q 363 550 450 550 q 325 540 339 550 q 292 332 292 489 q 382 108 292 108 q 411 114 396 108 m 58 821 q 178 997 135 953 q 276 1040 222 1040 q 381 999 308 1040 q 515 913 454 958 l 632 1032 l 717 971 q 510 747 607 747 q 463 758 488 747 q 365 816 439 768 q 268 864 290 864 q 221 839 246 864 q 147 753 196 814 l 58 821 z "},"ö":{"ha":749,"x_min":11,"x_max":731,"o":"m 11 340 q 113 599 11 499 q 371 700 215 700 q 629 598 528 700 q 731 335 731 496 q 631 73 731 174 q 378 -28 532 -28 q 116 76 221 -28 q 11 340 11 179 m 411 114 q 450 318 450 147 q 363 550 450 550 q 325 540 339 550 q 292 332 292 489 q 382 108 292 108 q 411 114 396 108 m 332 900 q 207 753 299 801 q 54 876 104 788 q 183 1047 71 985 q 332 900 304 994 m 689 900 q 564 753 656 801 q 411 876 461 788 q 540 1047 428 985 q 689 900 661 994 z "},"÷":{"ha":825,"x_min":72,"x_max":753,"o":"m 543 621 q 428 485 513 528 q 285 600 331 514 q 406 760 300 701 q 543 621 517 710 m 753 292 l 72 292 l 72 444 l 753 444 l 753 292 m 543 108 q 428 -28 511 14 q 285 88 331 1 q 406 247 299 188 q 543 108 517 197 z "},"ø":{"ha":765,"x_min":11,"x_max":731,"o":"m 650 574 q 731 335 731 478 q 631 73 731 174 q 378 -28 532 -28 q 264 -11 318 -28 l 178 -135 l 32 -39 l 114 78 q 11 340 11 181 q 113 599 11 499 q 371 700 215 700 q 506 676 439 700 l 579 786 l 728 692 l 650 574 m 411 114 q 450 318 450 147 q 363 550 450 550 q 325 540 339 550 q 292 332 292 489 q 382 108 292 108 q 411 114 396 108 z "},"ù":{"ha":911,"x_min":0,"x_max":908,"o":"m 908 90 l 708 -24 q 619 9 663 -22 q 549 94 576 40 q 338 -24 439 11 q 226 -3 288 -29 q 125 83 164 24 q 107 213 108 110 l 107 550 l 3 576 l 0 644 q 304 699 133 692 l 386 625 l 386 269 q 485 161 386 153 l 518 167 l 518 557 l 447 582 l 444 650 q 715 699 563 694 l 797 625 l 797 193 q 831 150 797 150 l 876 151 l 904 153 l 908 90 m 186 967 l 353 1114 l 571 840 l 435 735 q 186 967 246 918 z "},"ú":{"ha":911,"x_min":0,"x_max":908,"o":"m 908 90 l 708 -24 q 619 9 663 -22 q 549 94 576 40 q 338 -24 439 11 q 226 -3 288 -29 q 125 83 164 24 q 107 213 108 110 l 107 550 l 3 576 l 0 644 q 304 699 133 692 l 386 625 l 386 269 q 485 161 386 153 l 518 167 l 518 557 l 447 582 l 444 650 q 715 699 563 694 l 797 625 l 797 193 q 831 150 797 150 l 876 151 l 904 153 l 908 90 m 282 840 l 500 1114 l 667 967 q 418 735 607 918 l 282 840 z "},"û":{"ha":911,"x_min":0,"x_max":908,"o":"m 908 90 l 708 -24 q 619 9 663 -22 q 549 94 576 40 q 338 -24 439 11 q 226 -3 288 -29 q 125 83 164 24 q 107 213 108 110 l 107 550 l 3 576 l 0 644 q 304 699 133 692 l 386 625 l 386 269 q 485 161 386 153 l 518 167 l 518 557 l 447 582 l 444 650 q 715 699 563 694 l 797 625 l 797 193 q 831 150 797 150 l 876 151 l 904 153 l 908 90 m 346 1035 l 522 1035 l 707 810 l 624 731 l 428 883 l 256 724 l 157 799 l 346 1035 z "},"ü":{"ha":911,"x_min":0,"x_max":908,"o":"m 908 90 l 708 -24 q 619 9 663 -22 q 549 94 576 40 q 338 -24 439 11 q 226 -3 288 -29 q 125 83 164 24 q 107 213 108 110 l 107 550 l 3 576 l 0 644 q 304 699 133 692 l 386 625 l 386 269 q 485 161 386 153 l 518 167 l 518 557 l 447 582 l 444 650 q 715 699 563 694 l 797 625 l 797 193 q 831 150 797 150 l 876 151 l 904 153 l 908 90 m 388 900 q 263 753 354 801 q 110 876 160 788 q 239 1047 126 985 q 388 900 360 994 m 744 900 q 619 753 711 801 q 467 876 517 788 q 596 1047 483 985 q 744 900 717 994 z "},"ý":{"ha":811,"x_min":-44,"x_max":815,"o":"m 815 596 l 754 558 l 689 319 q 510 -79 615 61 q 206 -325 404 -219 l 63 -78 q 390 31 233 -32 l 233 69 l 69 518 l -44 592 l -44 669 l 308 669 l 393 353 l 400 258 l 422 258 q 496 669 474 515 l 814 669 l 815 596 m 281 840 l 499 1114 l 665 967 q 417 735 606 918 l 281 840 z "},"þ":{"ha":840,"x_min":-33,"x_max":822,"o":"m 403 -25 l 371 -24 l 371 -142 l 507 -211 l 506 -279 l 1 -279 l 0 -229 l 92 -193 l 92 607 l 93 607 l 93 854 l -31 897 l -33 965 q 292 1024 103 1013 l 374 949 l 374 578 l 517 686 l 563 690 q 749 600 676 690 q 822 369 822 510 q 708 85 822 194 q 403 -25 594 -25 m 408 504 q 374 499 390 504 l 374 121 l 428 114 l 461 117 q 535 322 535 193 q 501 451 535 399 q 408 504 467 504 z "},"ÿ":{"ha":811,"x_min":-44,"x_max":815,"o":"m 815 596 l 754 558 l 689 319 q 510 -79 615 61 q 206 -325 404 -219 l 63 -78 q 390 31 233 -32 l 233 69 l 69 518 l -44 592 l -44 669 l 308 669 l 393 353 l 400 258 l 422 258 q 496 669 474 515 l 814 669 l 815 596 m 386 900 q 261 753 353 801 q 108 876 158 788 q 238 1047 125 985 q 386 900 358 994 m 743 900 q 618 753 710 801 q 465 876 515 788 q 594 1047 482 985 q 743 900 715 994 z "},"Ā":{"ha":1029,"x_min":-28,"x_max":1051,"o":"m 1051 76 l 1050 0 l 547 0 l 539 44 q 643 110 588 82 l 600 225 l 317 225 l 268 96 l 381 76 l 379 0 l -19 0 l -28 44 q 89 117 19 82 l 376 831 l 353 896 l 606 958 l 953 93 l 1051 76 m 553 353 l 458 610 l 364 353 l 553 353 m 803 1182 l 810 1100 l 744 1031 l 226 1031 l 218 1147 q 375 1182 286 1182 l 803 1182 z "},"ā":{"ha":807,"x_min":33,"x_max":803,"o":"m 803 90 l 604 -24 q 449 79 510 -24 l 304 -17 l 251 -21 q 96 34 158 -21 q 33 163 33 89 q 63 256 33 210 q 151 332 93 303 l 413 338 l 413 442 q 350 578 413 544 q 299 564 319 575 l 258 408 l 100 407 q 76 563 76 488 l 82 631 q 283 682 171 663 q 463 701 394 701 q 675 599 597 701 q 692 471 692 574 l 692 193 q 725 150 692 150 l 771 151 l 799 153 l 803 90 m 306 183 q 326 125 306 149 l 413 143 l 413 247 q 306 183 306 247 m 644 932 l 651 850 l 586 781 l 150 781 l 142 897 q 299 932 213 932 l 644 932 z "},"Ă":{"ha":1029,"x_min":-28,"x_max":1051,"o":"m 1051 76 l 1050 0 l 547 0 l 539 44 q 643 110 588 82 l 600 225 l 317 225 l 268 96 l 381 76 l 379 0 l -19 0 l -28 44 q 89 117 19 82 l 376 831 l 353 896 l 606 958 l 953 93 l 1051 76 m 553 353 l 458 610 l 364 353 l 553 353 m 749 1240 q 670 1068 738 1125 q 507 1011 603 1011 q 336 1071 406 1011 q 257 1239 267 1131 l 408 1243 q 494 1149 419 1149 q 578 1242 569 1149 l 749 1240 z "},"ă":{"ha":807,"x_min":33,"x_max":803,"o":"m 803 90 l 604 -24 q 449 79 510 -24 l 304 -17 l 251 -21 q 96 34 158 -21 q 33 163 33 89 q 63 256 33 210 q 151 332 93 303 l 413 338 l 413 442 q 350 578 413 544 q 299 564 319 575 l 258 408 l 100 407 q 76 563 76 488 l 82 631 q 283 682 171 663 q 463 701 394 701 q 675 599 597 701 q 692 471 692 574 l 692 193 q 725 150 692 150 l 771 151 l 799 153 l 803 90 m 306 183 q 326 125 306 149 l 413 143 l 413 247 q 306 183 306 247 m 624 990 q 554 820 622 886 q 381 754 486 754 q 207 819 276 754 q 132 990 138 885 l 283 993 q 312 921 286 946 q 371 896 338 896 q 429 922 406 896 q 453 993 453 947 l 624 990 z "},"Ą":{"ha":1029,"x_min":-28,"x_max":1051,"o":"m 1051 76 l 1050 0 l 951 0 q 813 -103 858 -58 q 767 -199 767 -149 q 842 -271 767 -271 q 947 -235 889 -271 l 983 -310 l 804 -408 l 769 -411 q 634 -364 688 -411 q 581 -247 581 -317 q 644 -112 581 -178 q 828 0 707 -47 l 547 0 l 539 44 q 643 110 588 82 l 600 225 l 317 225 l 268 96 l 381 76 l 379 0 l -19 0 l -28 44 q 89 117 19 82 l 376 831 l 353 896 l 606 958 l 953 93 l 1051 76 m 553 353 l 458 610 l 364 353 l 553 353 z "},"ą":{"ha":788,"x_min":33,"x_max":803,"o":"m 544 -149 q 619 -221 544 -221 q 726 -185 668 -221 l 761 -261 l 582 -358 l 547 -361 q 412 -314 465 -361 q 358 -199 358 -267 q 514 6 358 -85 q 449 79 474 35 l 304 -17 l 251 -21 q 96 34 158 -21 q 33 163 33 89 q 63 256 33 210 q 151 332 93 303 l 413 338 l 413 442 q 350 578 413 544 q 299 564 319 575 l 258 408 l 100 407 q 76 563 76 488 l 82 631 q 283 682 171 663 q 463 701 394 701 q 675 599 597 701 q 692 471 692 574 l 692 193 q 725 150 692 150 l 771 151 l 799 153 l 803 90 l 718 42 q 587 -58 629 -15 q 544 -149 544 -100 m 306 183 q 326 125 306 149 l 413 143 l 413 247 q 306 183 306 247 z "},"Ć":{"ha":849,"x_min":10,"x_max":843,"o":"m 843 99 l 546 -24 l 506 -25 q 215 46 325 -25 q 57 224 104 117 q 10 450 10 332 q 66 696 10 581 q 236 882 122 811 q 514 953 350 953 q 817 861 682 953 l 818 838 q 781 576 818 726 l 608 576 l 558 775 q 406 808 489 800 q 299 486 299 693 q 365 247 299 340 q 557 153 432 154 l 800 228 l 843 99 m 610 1281 l 701 1089 l 335 950 l 264 1074 l 610 1281 z "},"ć":{"ha":665,"x_min":11,"x_max":672,"o":"m 447 -17 q 368 -25 408 -25 q 114 76 217 -25 q 11 333 11 178 q 114 597 11 494 q 374 700 217 700 q 568 646 483 700 q 672 490 653 592 l 443 381 q 338 560 394 514 q 276 374 276 496 q 325 212 276 274 q 463 150 374 150 q 617 194 528 150 l 653 113 l 447 -17 m 232 840 l 450 1114 l 617 967 q 368 735 557 918 l 232 840 z "},"Č":{"ha":849,"x_min":10,"x_max":843,"o":"m 843 99 l 546 -24 l 506 -25 q 215 46 325 -25 q 57 224 104 117 q 10 450 10 332 q 66 696 10 581 q 236 882 122 811 q 514 953 350 953 q 817 861 682 953 l 818 838 q 781 576 818 726 l 608 576 l 558 775 q 406 808 489 800 q 299 486 299 693 q 365 247 299 340 q 557 153 432 154 l 800 228 l 843 99 m 474 1126 l 664 1299 l 771 1210 l 556 993 l 374 990 l 164 1194 l 286 1301 l 474 1126 z "},"č":{"ha":665,"x_min":11,"x_max":672,"o":"m 447 -17 q 368 -25 408 -25 q 114 76 217 -25 q 11 333 11 178 q 114 597 11 494 q 374 700 217 700 q 568 646 483 700 q 672 490 653 592 l 443 381 q 338 560 394 514 q 276 374 276 496 q 325 212 276 274 q 463 150 374 150 q 617 194 528 150 l 653 113 l 447 -17 m 383 883 l 554 1082 l 667 985 l 476 746 l 283 743 l 75 961 l 208 1081 l 383 883 z "},"Ď":{"ha":1051,"x_min":31,"x_max":1040,"o":"m 531 936 q 808 869 693 936 q 982 694 924 801 q 1040 471 1040 588 q 908 135 1040 265 q 557 0 776 4 l 39 0 l 31 44 q 149 117 82 83 l 149 832 l 50 849 l 51 925 q 531 936 268 936 m 522 139 q 679 228 619 139 q 739 454 739 318 q 699 657 739 560 q 589 801 658 754 l 440 781 l 440 153 q 522 139 482 139 m 529 1126 l 719 1299 l 826 1210 l 611 993 l 429 990 l 219 1194 l 342 1301 l 529 1126 z "},"ď":{"ha":1085,"x_min":11,"x_max":1086,"o":"m 843 90 l 643 -24 q 551 8 594 -24 q 479 97 507 40 l 476 97 l 318 -24 q 97 74 183 -25 q 11 325 11 174 q 115 590 11 488 q 388 693 218 693 l 453 689 l 453 874 l 349 900 l 346 969 q 650 1024 478 1015 l 732 949 l 732 193 q 765 150 732 150 l 811 151 l 839 153 l 843 90 m 301 353 q 333 224 301 275 q 421 172 364 172 l 453 176 l 453 540 q 372 557 415 554 q 301 353 301 489 m 1039 1128 q 1086 979 1086 1058 q 1035 809 1086 894 q 896 654 985 724 l 813 719 q 888 906 888 835 q 840 967 888 961 l 840 1043 l 1039 1128 z "},"Đ":{"ha":1089,"x_min":17,"x_max":1040,"o":"m 531 936 q 808 869 693 936 q 982 694 924 801 q 1040 471 1040 588 q 908 135 1040 265 q 557 0 776 4 l 39 0 l 31 44 q 149 117 82 83 l 149 364 l 25 364 l 17 415 l 76 475 l 149 475 l 149 832 l 50 849 l 51 925 q 531 936 268 936 m 522 139 q 679 228 619 139 q 739 454 739 318 q 699 657 739 560 q 589 801 658 754 l 440 781 l 440 475 l 607 475 l 615 424 l 556 364 l 440 364 l 440 153 q 522 139 482 139 z "},"đ":{"ha":869,"x_min":11,"x_max":857,"o":"m 765 150 l 811 151 l 839 153 l 843 90 l 643 -24 q 551 8 594 -24 q 479 97 507 40 l 476 97 l 318 -24 q 97 74 183 -25 q 11 325 11 174 q 115 590 11 488 q 388 693 218 693 l 453 689 l 453 731 l 308 731 l 300 782 l 360 838 l 453 838 l 453 874 l 349 900 l 346 969 q 650 1024 478 1015 l 732 949 l 732 838 l 849 838 l 857 786 l 797 731 l 732 731 l 732 186 q 765 150 732 150 m 301 353 q 333 224 301 275 q 421 172 364 172 l 453 176 l 453 540 q 372 557 415 554 q 301 353 301 489 z "},"Ē":{"ha":931,"x_min":31,"x_max":864,"o":"m 861 303 q 844 0 864 165 l 39 0 l 31 44 q 149 117 82 83 l 149 831 l 43 849 l 44 925 l 857 925 q 851 784 860 874 q 828 626 843 694 l 668 626 l 640 774 l 440 788 l 440 522 l 722 546 l 722 386 l 440 397 l 440 140 l 647 158 l 701 315 l 861 303 m 764 1182 l 771 1100 l 706 1031 l 188 1031 l 179 1147 q 336 1182 247 1182 l 764 1182 z "},"ē":{"ha":717,"x_min":11,"x_max":699,"o":"m 617 304 l 271 306 q 336 190 285 231 q 464 150 388 150 q 640 204 540 150 l 679 118 l 460 -15 q 376 -24 418 -24 q 115 74 218 -24 q 11 328 11 172 q 118 593 11 486 q 378 700 225 700 q 609 615 519 700 q 699 386 699 529 l 617 304 m 350 574 q 272 422 294 536 l 450 435 q 416 528 443 489 q 350 574 389 568 m 639 932 l 646 850 l 581 781 l 144 781 l 136 897 q 293 932 207 932 l 639 932 z "},"Ė":{"ha":931,"x_min":31,"x_max":864,"o":"m 861 303 q 844 0 864 165 l 39 0 l 31 44 q 149 117 82 83 l 149 831 l 43 849 l 44 925 l 857 925 q 851 784 860 874 q 828 626 843 694 l 668 626 l 640 774 l 440 788 l 440 522 l 722 546 l 722 386 l 440 397 l 440 140 l 647 158 l 701 315 l 861 303 m 606 1153 q 482 1006 574 1054 q 329 1129 378 1040 q 458 1300 344 1236 q 606 1153 579 1249 z "},"ė":{"ha":717,"x_min":11,"x_max":699,"o":"m 617 304 l 271 306 q 336 190 285 231 q 464 150 388 150 q 640 204 540 150 l 679 118 l 460 -15 q 376 -24 418 -24 q 115 74 218 -24 q 11 328 11 172 q 118 593 11 486 q 378 700 225 700 q 609 615 519 700 q 699 386 699 529 l 617 304 m 350 574 q 272 422 294 536 l 450 435 q 416 528 443 489 q 350 574 389 568 m 515 900 q 392 753 483 801 q 239 876 288 788 q 368 1047 254 983 q 515 900 489 996 z "},"Ę":{"ha":936,"x_min":31,"x_max":878,"o":"m 878 -312 l 699 -411 l 664 -414 q 528 -367 582 -414 q 475 -250 475 -319 q 540 -114 475 -181 q 729 0 606 -47 l 39 0 l 31 44 q 149 117 82 83 l 149 831 l 43 849 l 44 925 l 857 925 q 851 784 860 874 q 828 626 843 694 l 668 626 l 640 774 l 440 788 l 440 522 l 722 546 l 722 386 l 440 397 l 440 140 l 647 158 l 701 315 l 861 303 q 844 6 864 171 l 850 0 q 708 -106 754 -61 q 661 -201 661 -151 q 736 -274 661 -274 q 842 -237 783 -274 l 878 -312 z "},"ę":{"ha":736,"x_min":11,"x_max":699,"o":"m 617 304 l 271 306 q 336 190 285 231 q 464 150 388 150 q 640 204 540 150 l 679 118 q 481 -22 528 24 q 435 -117 435 -67 q 510 -189 435 -189 q 615 -154 556 -189 l 651 -229 l 471 -328 l 438 -331 q 303 -283 357 -331 q 249 -167 249 -235 q 324 -19 249 -90 q 97 94 182 -1 q 11 328 11 190 q 118 593 11 486 q 378 700 225 700 q 609 615 519 700 q 699 386 699 529 l 617 304 m 350 574 q 272 422 294 536 l 450 435 q 416 528 443 489 q 350 574 389 568 z "},"Ě":{"ha":931,"x_min":31,"x_max":864,"o":"m 861 303 q 844 0 864 165 l 39 0 l 31 44 q 149 117 82 83 l 149 831 l 43 849 l 44 925 l 857 925 q 851 784 860 874 q 828 626 843 694 l 668 626 l 640 774 l 440 788 l 440 522 l 722 546 l 722 386 l 440 397 l 440 140 l 647 158 l 701 315 l 861 303 m 461 1126 l 651 1299 l 758 1210 l 543 993 l 361 990 l 151 1194 l 274 1301 l 461 1126 z "},"ě":{"ha":717,"x_min":11,"x_max":699,"o":"m 617 304 l 271 306 q 336 190 285 231 q 464 150 388 150 q 640 204 540 150 l 679 118 l 460 -15 q 376 -24 418 -24 q 115 74 218 -24 q 11 328 11 172 q 118 593 11 486 q 378 700 225 700 q 609 615 519 700 q 699 386 699 529 l 617 304 m 350 574 q 272 422 294 536 l 450 435 q 416 528 443 489 q 350 574 389 568 m 378 883 l 549 1082 l 661 985 l 471 746 l 278 743 l 69 961 l 203 1081 l 378 883 z "},"Ğ":{"ha":1000,"x_min":10,"x_max":981,"o":"m 875 328 l 875 93 l 554 -28 l 508 -29 q 217 43 329 -29 q 58 224 106 115 q 10 446 10 332 q 160 808 10 664 q 546 953 310 953 q 858 868 728 953 l 860 840 q 825 597 860 721 l 654 597 l 604 778 q 408 808 508 807 q 326 670 354 756 q 297 490 297 585 q 372 236 297 332 q 569 140 447 140 l 617 142 l 617 304 q 492 378 538 343 l 500 424 l 979 424 l 981 358 l 875 328 m 744 1240 q 666 1068 733 1125 q 503 1011 599 1011 q 332 1071 401 1011 q 253 1239 263 1131 l 404 1243 q 490 1149 415 1149 q 574 1242 565 1149 l 744 1240 z "},"ğ":{"ha":821,"x_min":10,"x_max":815,"o":"m 279 176 q 751 104 510 174 q 775 4 775 58 q 641 -242 775 -135 q 328 -350 507 -350 q 117 -298 210 -350 q 10 -131 25 -246 l 147 -10 l 85 -6 l 54 108 q 218 238 135 189 q 81 326 128 267 q 35 453 35 385 q 132 631 35 558 q 378 703 229 703 q 575 661 492 703 q 772 788 618 785 l 815 574 l 757 579 q 685 568 721 579 q 717 460 717 517 q 619 285 717 354 q 369 217 522 217 l 329 218 l 279 176 m 335 582 q 312 535 321 574 q 303 457 303 497 q 325 363 303 401 q 389 325 347 325 l 410 328 q 438 372 426 338 q 449 444 449 406 q 424 542 449 499 q 358 586 400 586 l 335 582 m 375 -151 q 493 -134 436 -151 q 578 -86 550 -117 q 240 -18 453 -43 q 219 -68 219 -46 q 263 -131 219 -110 q 375 -151 307 -151 m 619 990 q 550 820 618 886 q 376 754 482 754 q 203 819 272 754 q 128 990 133 885 l 279 993 q 308 921 282 946 q 367 896 333 896 q 425 922 401 896 q 449 993 449 947 l 619 990 z "},"Ģ":{"ha":1000,"x_min":10,"x_max":981,"o":"m 875 328 l 875 93 l 554 -28 l 508 -29 q 217 43 329 -29 q 58 224 106 115 q 10 446 10 332 q 160 808 10 664 q 546 953 310 953 q 858 868 728 953 l 860 840 q 825 597 860 721 l 654 597 l 604 778 q 408 808 508 807 q 326 670 354 756 q 297 490 297 585 q 372 236 297 332 q 569 140 447 140 l 617 142 l 617 304 q 492 378 538 343 l 500 424 l 979 424 l 981 358 l 875 328 m 550 -96 q 635 -214 635 -135 q 585 -352 635 -278 q 474 -460 535 -426 l 396 -403 q 440 -292 440 -343 q 403 -217 440 -244 l 400 -160 l 550 -96 z "},"ģ":{"ha":821,"x_min":10,"x_max":815,"o":"m 279 176 q 751 104 510 174 q 775 4 775 58 q 641 -242 775 -135 q 328 -350 507 -350 q 117 -298 210 -350 q 10 -131 25 -246 l 147 -10 l 85 -6 l 54 108 q 218 238 135 189 q 81 326 128 267 q 35 453 35 385 q 132 631 35 558 q 378 703 229 703 q 575 661 492 703 q 772 788 618 785 l 815 574 l 757 579 q 685 568 721 579 q 717 460 717 517 q 619 285 717 354 q 369 217 522 217 l 329 218 l 279 176 m 335 582 q 312 535 321 574 q 303 457 303 497 q 325 363 303 401 q 389 325 347 325 l 410 328 q 438 372 426 338 q 449 444 449 406 q 424 542 449 499 q 358 586 400 586 l 335 582 m 375 -151 q 493 -134 436 -151 q 578 -86 550 -117 q 240 -18 453 -43 q 219 -68 219 -46 q 263 -131 219 -110 q 375 -151 307 -151 m 468 1097 q 553 979 553 1058 q 503 841 553 915 q 392 733 453 767 l 314 790 q 358 901 358 850 q 321 976 358 949 l 318 1033 l 468 1097 z "},"Ī":{"ha":613,"x_min":35,"x_max":576,"o":"m 56 1024 l 47 1140 q 204 1175 115 1175 l 569 1175 l 576 1093 l 511 1024 l 56 1024 m 444 97 l 568 76 l 567 0 l 43 0 l 35 44 q 153 117 86 83 l 153 831 l 46 849 l 47 925 l 554 925 l 563 881 q 444 808 511 842 l 444 97 z "},"ī":{"ha":508,"x_min":13,"x_max":490,"o":"m 26 783 l 18 900 q 175 935 89 935 l 483 935 l 490 853 l 425 783 l 26 783 m 399 117 l 475 68 l 474 0 l 17 0 l 15 49 q 119 99 63 78 l 119 539 l 15 565 l 13 633 q 317 688 146 681 l 399 614 l 399 117 z "},"Į":{"ha":594,"x_min":31,"x_max":564,"o":"m 440 0 q 301 -103 347 -58 q 256 -199 256 -149 q 331 -271 256 -271 q 436 -235 378 -271 l 472 -310 l 293 -408 l 258 -411 q 123 -364 176 -411 q 69 -247 69 -317 q 133 -112 69 -178 q 317 0 196 -47 l 39 0 l 31 44 q 149 117 82 83 l 149 831 l 42 849 l 43 925 l 550 925 l 558 881 q 440 808 507 842 l 440 97 l 564 76 l 563 0 l 440 0 z "},"į":{"ha":513,"x_min":6,"x_max":492,"o":"m 267 754 q 82 896 154 806 q 236 1083 142 1011 q 411 922 342 1024 q 267 754 358 819 m 426 0 q 301 -97 342 -56 q 260 -186 260 -139 q 335 -258 260 -258 q 442 -222 383 -258 l 476 -299 l 297 -396 l 263 -399 q 127 -351 181 -399 q 74 -236 74 -304 q 129 -109 74 -171 q 293 0 185 -47 l 8 0 l 7 49 q 113 100 51 76 l 113 550 l 8 576 l 6 644 q 310 699 139 692 l 392 625 l 392 122 q 492 68 451 97 l 490 0 l 426 0 z "},"İ":{"ha":594,"x_min":31,"x_max":564,"o":"m 564 76 l 563 0 l 39 0 l 31 44 q 149 117 82 83 l 149 831 l 42 849 l 43 925 l 550 925 l 558 881 q 440 808 507 842 l 440 97 l 564 76 m 440 1153 q 317 1006 408 1054 q 164 1129 213 1040 q 293 1300 179 1236 q 440 1153 414 1249 z "},"ı":{"ha":485,"x_min":6,"x_max":468,"o":"m 392 117 l 468 68 l 467 0 l 10 0 l 8 49 q 113 99 56 78 l 113 539 l 8 565 l 6 633 q 310 688 139 681 l 392 614 l 392 117 z "},"Ķ":{"ha":1093,"x_min":31,"x_max":1086,"o":"m 1086 76 l 1085 0 l 719 0 l 464 365 l 440 340 l 440 94 l 542 76 l 540 0 l 39 0 l 31 44 q 149 117 82 83 l 149 831 l 42 849 l 43 925 l 550 925 l 558 881 q 440 808 507 842 l 440 540 l 714 833 l 626 849 l 628 925 l 1017 925 l 1025 881 q 890 814 990 854 l 653 564 l 999 97 l 1086 76 m 621 -96 q 706 -214 706 -135 q 656 -352 706 -278 q 544 -460 606 -426 l 467 -403 q 511 -292 511 -343 q 474 -217 511 -244 l 471 -160 l 621 -96 z "},"ķ":{"ha":894,"x_min":7,"x_max":871,"o":"m 807 106 q 871 63 842 78 l 865 -4 l 568 -4 q 513 68 550 13 l 394 256 l 394 0 l 11 0 l 10 49 q 115 100 54 76 l 115 874 l 10 900 l 7 969 q 311 1024 139 1015 l 313 1024 l 394 949 l 394 376 l 528 558 l 453 576 l 450 644 q 757 699 582 692 l 828 597 l 631 350 l 807 106 m 510 -96 q 594 -214 594 -135 q 544 -352 594 -278 q 433 -460 494 -426 l 356 -403 q 400 -292 400 -343 q 363 -217 400 -244 l 360 -160 l 510 -96 z "},"Ĺ":{"ha":893,"x_min":31,"x_max":894,"o":"m 894 310 q 874 0 894 115 l 39 0 l 31 44 q 149 117 82 83 l 149 831 l 42 849 l 43 925 l 550 925 l 558 881 q 440 808 507 842 l 440 140 l 660 165 l 729 378 l 894 363 l 894 310 m 456 1281 l 547 1089 l 181 950 l 110 1074 l 456 1281 z "},"ĺ":{"ha":513,"x_min":6,"x_max":492,"o":"m 392 122 q 492 68 451 97 l 490 0 l 8 0 l 7 49 q 113 100 51 76 l 113 874 l 8 900 l 6 969 q 310 1024 138 1015 l 392 949 l 392 122 m 379 1399 l 471 1207 l 104 1068 l 33 1192 l 379 1399 z "},"Ļ":{"ha":893,"x_min":31,"x_max":894,"o":"m 894 310 q 874 0 894 115 l 39 0 l 31 44 q 149 117 82 83 l 149 831 l 42 849 l 43 925 l 550 925 l 558 881 q 440 808 507 842 l 440 140 l 660 165 l 729 378 l 894 363 l 894 310 m 515 -96 q 600 -214 600 -135 q 550 -352 600 -278 q 439 -460 500 -426 l 361 -403 q 406 -292 406 -343 q 368 -217 406 -244 l 365 -160 l 515 -96 z "},"ļ":{"ha":513,"x_min":6,"x_max":492,"o":"m 392 122 q 492 68 451 97 l 490 0 l 8 0 l 7 49 q 113 100 51 76 l 113 874 l 8 900 l 6 969 q 310 1024 138 1015 l 392 949 l 392 122 m 322 -96 q 407 -214 407 -135 q 357 -352 407 -278 q 246 -460 307 -426 l 168 -403 q 213 -292 213 -343 q 175 -217 213 -244 l 172 -160 l 322 -96 z "},"Ľ":{"ha":914,"x_min":31,"x_max":899,"o":"m 894 310 q 874 0 894 115 l 39 0 l 31 44 q 149 117 82 83 l 149 831 l 42 849 l 43 925 l 550 925 l 558 881 q 440 808 507 842 l 440 140 l 660 165 l 729 378 l 894 363 l 894 310 m 851 1050 q 899 901 899 981 q 848 731 899 817 q 708 576 797 646 l 625 642 q 700 828 700 757 q 653 889 700 883 l 653 965 l 851 1050 z "},"ľ":{"ha":746,"x_min":6,"x_max":743,"o":"m 392 122 q 492 68 451 97 l 490 0 l 8 0 l 7 49 q 113 100 51 76 l 113 874 l 8 900 l 6 969 q 310 1024 138 1015 l 392 949 l 392 122 m 696 1114 q 743 965 743 1044 q 692 795 743 881 q 553 640 642 710 l 469 706 q 544 892 544 821 q 497 953 544 947 l 497 1029 l 696 1114 z "},"Ł":{"ha":914,"x_min":36,"x_max":921,"o":"m 921 310 q 900 0 921 115 l 65 0 l 57 44 q 175 117 108 83 l 175 351 l 74 307 l 36 393 l 175 454 l 175 831 l 68 849 l 69 925 l 576 925 l 585 881 q 467 808 533 842 l 467 583 l 607 644 l 629 610 l 606 539 l 467 478 l 467 140 l 686 165 l 756 378 l 921 363 l 921 310 z "},"ł":{"ha":633,"x_min":4,"x_max":547,"o":"m 425 536 l 425 122 q 525 68 485 97 l 524 0 l 42 0 l 40 49 q 146 100 85 76 l 146 399 l 54 354 l 4 454 l 146 524 l 146 874 l 42 900 l 39 969 q 343 1024 171 1015 l 425 949 l 425 661 l 510 703 l 547 681 l 547 596 l 425 536 z "},"Ń":{"ha":1114,"x_min":31,"x_max":1083,"o":"m 1083 881 q 975 813 1038 844 l 965 0 l 717 -19 l 328 554 l 346 389 l 346 97 l 468 76 l 467 0 l 39 0 l 31 44 q 149 117 82 83 l 149 828 l 44 849 l 46 925 l 415 925 l 415 924 l 799 343 l 779 514 l 779 825 l 643 849 l 644 925 l 1075 925 l 1083 881 m 665 1281 l 757 1089 l 390 950 l 319 1074 l 665 1281 z "},"ń":{"ha":925,"x_min":8,"x_max":910,"o":"m 810 122 q 910 68 869 97 l 907 0 l 531 0 l 531 379 q 433 513 531 518 l 394 506 l 394 117 l 471 68 l 469 0 l 13 0 l 11 49 q 115 99 58 78 l 115 550 l 11 576 l 8 644 q 313 699 142 692 l 394 614 l 394 592 q 579 692 490 661 q 694 672 633 694 q 793 590 756 650 q 810 461 808 563 l 810 122 m 318 840 l 536 1114 l 703 967 q 454 735 643 918 l 318 840 z "},"Ņ":{"ha":1114,"x_min":31,"x_max":1083,"o":"m 1083 881 q 975 813 1038 844 l 965 0 l 717 -19 l 328 554 l 346 389 l 346 97 l 468 76 l 467 0 l 39 0 l 31 44 q 149 117 82 83 l 149 828 l 44 849 l 46 925 l 415 925 l 415 924 l 799 343 l 779 514 l 779 825 l 643 849 l 644 925 l 1075 925 l 1083 881 m 603 -96 q 688 -214 688 -135 q 638 -352 688 -278 q 526 -460 588 -426 l 449 -403 q 493 -292 493 -343 q 456 -217 493 -244 l 453 -160 l 603 -96 z "},"ņ":{"ha":925,"x_min":8,"x_max":910,"o":"m 810 122 q 910 68 869 97 l 907 0 l 531 0 l 531 379 q 433 513 531 518 l 394 506 l 394 117 l 471 68 l 469 0 l 13 0 l 11 49 q 115 99 58 78 l 115 550 l 11 576 l 8 644 q 313 699 142 692 l 394 614 l 394 592 q 579 692 490 661 q 694 672 633 694 q 793 590 756 650 q 810 461 808 563 l 810 122 m 522 -96 q 607 -214 607 -135 q 557 -352 607 -278 q 446 -460 507 -426 l 368 -403 q 413 -292 413 -343 q 375 -217 413 -244 l 372 -160 l 522 -96 z "},"Ň":{"ha":1114,"x_min":31,"x_max":1083,"o":"m 1083 881 q 975 813 1038 844 l 965 0 l 717 -19 l 328 554 l 346 389 l 346 97 l 468 76 l 467 0 l 39 0 l 31 44 q 149 117 82 83 l 149 828 l 44 849 l 46 925 l 415 925 l 415 924 l 799 343 l 779 514 l 779 825 l 643 849 l 644 925 l 1075 925 l 1083 881 m 529 1126 l 719 1299 l 826 1210 l 611 993 l 429 990 l 219 1194 l 342 1301 l 529 1126 z "},"ň":{"ha":925,"x_min":8,"x_max":910,"o":"m 810 122 q 910 68 869 97 l 907 0 l 531 0 l 531 379 q 433 513 531 518 l 394 506 l 394 117 l 471 68 l 469 0 l 13 0 l 11 49 q 115 99 58 78 l 115 550 l 11 576 l 8 644 q 313 699 142 692 l 394 614 l 394 592 q 579 692 490 661 q 694 672 633 694 q 793 590 756 650 q 810 461 808 563 l 810 122 m 469 883 l 640 1082 l 753 985 l 563 746 l 369 743 l 161 961 l 294 1081 l 469 883 z "},"Ō":{"ha":969,"x_min":11,"x_max":958,"o":"m 482 953 q 824 813 689 953 q 958 449 958 672 q 829 102 958 232 q 492 -28 700 -28 q 144 106 278 -28 q 11 456 11 239 q 144 813 11 674 q 482 953 276 953 m 393 789 q 337 675 358 754 q 315 486 315 596 q 369 217 315 315 q 517 118 424 118 q 568 129 540 118 q 631 256 607 171 q 654 446 654 342 q 606 700 654 596 q 464 804 557 804 q 393 789 431 804 m 789 1182 l 796 1100 l 731 1031 l 213 1031 l 204 1147 q 361 1182 272 1182 l 789 1182 z "},"ō":{"ha":749,"x_min":11,"x_max":731,"o":"m 11 340 q 113 599 11 499 q 371 700 215 700 q 629 598 528 700 q 731 335 731 496 q 631 73 731 174 q 378 -28 532 -28 q 116 76 221 -28 q 11 340 11 179 m 411 114 q 450 318 450 147 q 363 550 450 550 q 325 540 339 550 q 292 332 292 489 q 382 108 292 108 q 411 114 396 108 m 639 932 l 646 850 l 581 781 l 144 781 l 136 897 q 293 932 207 932 l 639 932 z "},"Ő":{"ha":969,"x_min":11,"x_max":958,"o":"m 482 953 q 824 813 689 953 q 958 449 958 672 q 829 102 958 232 q 492 -28 700 -28 q 144 106 278 -28 q 11 456 11 239 q 144 813 11 674 q 482 953 276 953 m 393 789 q 337 675 358 754 q 315 486 315 596 q 369 217 315 315 q 517 118 424 118 q 568 129 540 118 q 631 256 607 171 q 654 446 654 342 q 606 700 654 596 q 464 804 557 804 q 393 789 431 804 m 440 1307 l 578 1174 q 336 983 515 1129 l 225 1082 l 440 1307 m 744 1282 l 882 1149 q 640 958 831 1113 l 529 1057 l 744 1282 z "},"ő":{"ha":749,"x_min":11,"x_max":761,"o":"m 11 340 q 113 599 11 499 q 371 700 215 700 q 629 598 528 700 q 731 335 731 496 q 631 73 731 174 q 378 -28 532 -28 q 116 76 221 -28 q 11 340 11 179 m 411 114 q 450 318 450 147 q 363 550 450 550 q 325 540 339 550 q 292 332 292 489 q 382 108 292 108 q 411 114 396 108 m 303 1081 l 456 958 q 282 794 382 897 l 219 735 l 100 824 l 303 1081 m 608 1081 l 761 958 q 588 794 688 897 l 525 735 l 406 824 l 608 1081 z "},"Œ":{"ha":1396,"x_min":39,"x_max":1369,"o":"m 1367 303 q 1350 0 1369 165 l 703 0 q 535 -25 628 -25 q 296 28 410 -25 q 110 192 182 82 q 39 458 39 301 q 181 813 39 674 q 536 951 324 951 q 699 925 619 951 l 1361 925 q 1356 784 1364 874 q 1332 626 1347 694 l 1172 626 l 1144 771 l 925 785 l 925 522 l 1206 546 l 1206 386 l 925 397 l 925 150 l 1154 165 l 1207 315 l 1367 303 m 326 472 q 382 223 326 325 q 543 121 438 121 q 633 140 588 121 l 633 774 q 515 799 588 799 q 426 786 464 799 q 353 660 379 746 q 326 472 326 575 z "},"œ":{"ha":1165,"x_min":11,"x_max":1147,"o":"m 1065 304 l 714 306 q 778 190 726 229 q 910 150 829 150 q 1089 204 990 150 l 1128 118 l 910 -15 l 835 -22 q 606 51 708 -22 q 378 -28 510 -28 q 116 76 221 -28 q 11 340 11 179 q 113 599 11 499 q 371 700 215 700 q 600 621 504 700 q 826 700 699 700 q 1058 615 968 700 q 1147 386 1147 529 l 1065 304 m 799 574 q 717 422 739 536 l 899 435 q 865 528 892 489 q 799 574 838 568 m 411 114 q 450 318 450 147 q 361 550 450 550 q 325 540 339 550 q 292 331 292 489 q 382 108 292 108 q 411 114 396 108 z "},"Ŕ":{"ha":1036,"x_min":31,"x_max":1032,"o":"m 1032 76 l 1031 0 l 686 0 l 507 346 l 440 344 l 440 94 l 544 76 l 543 0 l 39 0 l 31 44 q 149 117 82 83 l 149 831 l 43 849 l 44 925 l 543 936 q 829 852 717 936 q 942 639 942 768 q 894 492 942 558 q 767 386 847 425 l 950 90 l 1032 76 m 440 486 q 506 476 474 476 q 647 632 647 476 q 589 801 647 738 l 440 781 l 440 486 m 632 1281 l 724 1089 l 357 950 l 286 1074 l 632 1281 z "},"ŕ":{"ha":718,"x_min":8,"x_max":735,"o":"m 561 365 q 394 467 458 454 l 394 139 q 549 68 492 104 l 547 0 l 13 0 l 11 49 q 115 99 58 78 l 115 550 l 11 576 l 8 644 q 313 699 142 692 l 394 576 l 492 690 q 550 699 518 699 q 665 666 613 699 q 735 578 718 633 l 561 365 m 240 840 l 458 1114 l 625 967 q 376 735 565 918 l 240 840 z "},"Ŗ":{"ha":1036,"x_min":31,"x_max":1032,"o":"m 1032 76 l 1031 0 l 686 0 l 507 346 l 440 344 l 440 94 l 544 76 l 543 0 l 39 0 l 31 44 q 149 117 82 83 l 149 831 l 43 849 l 44 925 l 543 936 q 829 852 717 936 q 942 639 942 768 q 894 492 942 558 q 767 386 847 425 l 950 90 l 1032 76 m 440 486 q 506 476 474 476 q 647 632 647 476 q 589 801 647 738 l 440 781 l 440 486 m 568 -96 q 653 -214 653 -135 q 603 -352 653 -278 q 492 -460 553 -426 l 414 -403 q 458 -292 458 -343 q 421 -217 458 -244 l 418 -160 l 568 -96 z "},"ŗ":{"ha":718,"x_min":8,"x_max":735,"o":"m 561 365 q 394 467 458 454 l 394 139 q 549 68 492 104 l 547 0 l 13 0 l 11 49 q 115 99 58 78 l 115 550 l 11 576 l 8 644 q 313 699 142 692 l 394 576 l 492 690 q 550 699 518 699 q 665 666 613 699 q 735 578 718 633 l 561 365 m 328 -96 q 413 -214 413 -135 q 363 -352 413 -278 q 251 -460 313 -426 l 174 -403 q 218 -292 218 -343 q 181 -217 218 -244 l 178 -160 l 328 -96 z "},"Ř":{"ha":1036,"x_min":31,"x_max":1032,"o":"m 1032 76 l 1031 0 l 686 0 l 507 346 l 440 344 l 440 94 l 544 76 l 543 0 l 39 0 l 31 44 q 149 117 82 83 l 149 831 l 43 849 l 44 925 l 543 936 q 829 852 717 936 q 942 639 942 768 q 894 492 942 558 q 767 386 847 425 l 950 90 l 1032 76 m 440 486 q 506 476 474 476 q 647 632 647 476 q 589 801 647 738 l 440 781 l 440 486 m 496 1126 l 686 1299 l 793 1210 l 578 993 l 396 990 l 186 1194 l 308 1301 l 496 1126 z "},"ř":{"ha":718,"x_min":8,"x_max":735,"o":"m 561 365 q 394 467 458 454 l 394 139 q 549 68 492 104 l 547 0 l 13 0 l 11 49 q 115 99 58 78 l 115 550 l 11 576 l 8 644 q 313 699 142 692 l 394 576 l 492 690 q 550 699 518 699 q 665 666 613 699 q 735 578 718 633 l 561 365 m 392 883 l 563 1082 l 675 985 l 485 746 l 292 743 l 83 961 l 217 1081 l 392 883 z "},"Ś":{"ha":864,"x_min":67,"x_max":818,"o":"m 818 264 q 713 53 818 133 q 438 -26 607 -26 q 249 -5 351 -26 q 69 54 146 17 l 71 57 l 69 96 q 99 335 69 235 l 224 335 l 336 128 q 460 103 388 110 q 532 194 532 135 q 429 313 532 261 l 279 383 l 219 417 q 67 657 67 510 q 175 871 67 789 q 457 953 283 953 q 625 937 535 953 q 776 896 715 921 q 743 621 768 718 l 597 621 l 529 801 q 399 828 469 824 q 338 731 338 792 q 371 667 338 694 q 554 574 404 640 q 761 433 704 507 q 818 264 818 360 m 585 1281 l 676 1089 l 310 950 l 239 1074 l 585 1281 z "},"ś":{"ha":656,"x_min":21,"x_max":625,"o":"m 293 533 q 326 480 293 503 q 422 423 358 457 q 525 363 486 389 q 594 292 564 336 q 625 192 625 249 q 543 33 625 93 q 325 -28 461 -28 q 21 47 168 -28 l 108 250 q 350 100 228 154 q 371 143 371 118 q 351 183 371 164 q 228 258 332 203 q 84 363 124 313 q 44 475 44 414 q 135 638 44 575 q 365 700 226 700 q 593 653 501 700 l 596 603 q 572 453 596 528 l 435 453 l 382 582 l 353 585 q 293 533 293 574 m 201 840 l 419 1114 l 586 967 q 338 735 526 918 l 201 840 z "},"Ş":{"ha":864,"x_min":67,"x_max":818,"o":"m 818 264 q 718 58 818 139 q 454 -26 618 -22 l 426 -78 q 559 -112 504 -78 q 614 -194 614 -147 q 528 -328 614 -274 q 319 -379 443 -383 l 290 -332 q 386 -278 353 -310 q 419 -215 419 -246 q 394 -174 419 -189 q 322 -164 368 -160 l 285 -99 l 349 -21 q 69 54 197 -7 l 71 57 l 69 96 q 99 335 69 235 l 224 335 l 336 128 q 460 103 388 110 q 532 194 532 135 q 429 313 532 261 l 279 383 l 219 417 q 67 657 67 510 q 175 871 67 789 q 457 953 283 953 q 625 937 535 953 q 776 896 715 921 q 743 621 768 718 l 597 621 l 529 801 q 399 828 469 824 q 338 731 338 792 q 371 667 338 694 q 554 574 404 640 q 761 433 704 507 q 818 264 818 360 z "},"ş":{"ha":656,"x_min":21,"x_max":625,"o":"m 625 192 q 556 43 625 103 q 364 -26 486 -17 l 336 -78 q 469 -112 414 -78 q 524 -194 524 -147 q 438 -328 524 -274 q 229 -379 353 -383 l 200 -332 q 296 -278 263 -310 q 329 -215 329 -246 q 303 -174 329 -189 q 232 -164 278 -160 l 194 -99 l 256 -24 q 21 47 131 -10 l 108 250 q 350 100 228 154 q 371 143 371 118 q 351 183 371 164 q 228 258 332 203 q 84 363 124 313 q 44 475 44 414 q 135 638 44 575 q 365 700 226 700 q 593 653 501 700 l 596 603 q 572 453 596 528 l 435 453 l 382 582 l 353 585 q 293 533 293 574 q 326 480 293 503 q 422 423 358 457 q 525 363 486 389 q 594 292 564 336 q 625 192 625 249 z "},"Š":{"ha":864,"x_min":67,"x_max":818,"o":"m 818 264 q 713 53 818 133 q 438 -26 607 -26 q 249 -5 351 -26 q 69 54 146 17 l 71 57 l 69 96 q 99 335 69 235 l 224 335 l 336 128 q 460 103 388 110 q 532 194 532 135 q 429 313 532 261 l 279 383 l 219 417 q 67 657 67 510 q 175 871 67 789 q 457 953 283 953 q 625 937 535 953 q 776 896 715 921 q 743 621 768 718 l 597 621 l 529 801 q 399 828 469 824 q 338 731 338 792 q 371 667 338 694 q 554 574 404 640 q 761 433 704 507 q 818 264 818 360 m 449 1126 l 639 1299 l 746 1210 l 531 993 l 349 990 l 139 1194 l 261 1301 l 449 1126 z "},"š":{"ha":656,"x_min":21,"x_max":636,"o":"m 293 533 q 326 480 293 503 q 422 423 358 457 q 525 363 486 389 q 594 292 564 336 q 625 192 625 249 q 543 33 625 93 q 325 -28 461 -28 q 21 47 168 -28 l 108 250 q 350 100 228 154 q 371 143 371 118 q 351 183 371 164 q 228 258 332 203 q 84 363 124 313 q 44 475 44 414 q 135 638 44 575 q 365 700 226 700 q 593 653 501 700 l 596 603 q 572 453 596 528 l 435 453 l 382 582 l 353 585 q 293 533 293 574 m 353 883 l 524 1082 l 636 985 l 446 746 l 253 743 l 44 961 l 178 1081 l 353 883 z "},"Ţ":{"ha":961,"x_min":8,"x_max":954,"o":"m 953 933 l 954 901 q 944 740 954 839 q 922 582 935 642 l 774 582 l 751 796 l 628 810 l 628 99 l 756 76 l 754 0 l 517 0 l 474 -78 q 606 -112 551 -78 q 661 -194 661 -147 q 576 -328 661 -274 q 367 -379 490 -383 l 338 -332 q 433 -278 400 -310 q 467 -215 467 -246 q 441 -174 467 -189 q 369 -164 415 -160 l 332 -99 l 413 0 l 213 0 l 204 44 q 336 122 247 79 l 336 810 l 210 796 l 188 582 l 40 582 q 8 894 8 728 l 10 933 l 483 928 l 951 933 l 953 933 z "},"ţ":{"ha":585,"x_min":-6,"x_max":563,"o":"m 383 485 l 383 228 q 438 174 383 174 l 543 179 l 549 106 l 303 -24 l 299 -24 l 269 -78 q 402 -112 347 -78 q 457 -194 457 -147 q 372 -328 457 -274 q 163 -379 286 -383 l 133 -332 q 229 -278 196 -310 q 263 -215 263 -246 q 237 -174 263 -189 q 165 -164 211 -160 l 128 -99 l 206 -3 q 104 150 104 44 l 104 486 l -4 486 l -6 564 q 119 661 46 611 l 203 851 l 328 851 l 374 658 l 563 658 l 563 579 l 492 485 l 383 485 z "},"Ť":{"ha":961,"x_min":8,"x_max":954,"o":"m 953 933 l 954 901 q 944 740 954 839 q 922 582 935 642 l 774 582 l 751 796 l 628 810 l 628 99 l 756 76 l 754 0 l 213 0 l 204 44 q 336 122 247 79 l 336 810 l 210 796 l 188 582 l 40 582 q 8 894 8 728 l 10 933 l 483 928 l 951 933 l 953 933 m 481 1126 l 671 1299 l 778 1210 l 563 993 l 381 990 l 171 1194 l 293 1301 l 481 1126 z "},"ť":{"ha":878,"x_min":-6,"x_max":876,"o":"m 383 485 l 383 228 q 438 174 383 174 l 543 179 l 549 106 l 303 -24 q 166 22 226 -26 q 104 136 106 69 l 104 486 l -4 486 l -6 564 q 119 661 46 611 l 203 851 l 328 851 l 374 658 l 563 658 l 563 579 l 492 485 l 383 485 m 829 1106 q 876 957 876 1036 q 826 787 876 872 q 686 632 775 701 l 603 697 q 678 883 678 813 q 631 944 678 939 l 631 1021 l 829 1106 z "},"Ū":{"ha":1074,"x_min":8,"x_max":1065,"o":"m 1065 881 q 947 808 1014 842 l 947 396 q 839 70 946 168 q 561 -28 732 -28 q 240 88 358 -28 q 115 406 121 203 l 115 831 l 8 849 l 10 925 l 517 925 l 525 881 q 407 808 474 842 l 407 357 q 458 178 407 236 q 593 121 510 121 q 703 158 658 121 q 750 399 749 222 l 750 829 l 639 849 l 640 925 l 1057 925 l 1065 881 m 838 1182 l 844 1100 l 779 1031 l 261 1031 l 253 1147 q 410 1182 321 1182 l 838 1182 z "},"ū":{"ha":911,"x_min":0,"x_max":908,"o":"m 908 90 l 708 -24 q 619 9 663 -22 q 549 94 576 40 q 338 -24 439 11 q 226 -3 288 -29 q 125 83 164 24 q 107 213 108 110 l 107 550 l 3 576 l 0 644 q 304 699 133 692 l 386 625 l 386 269 q 485 161 386 153 l 518 167 l 518 557 l 447 582 l 444 650 q 715 699 563 694 l 797 625 l 797 193 q 831 150 797 150 l 876 151 l 904 153 l 908 90 m 694 932 l 701 850 l 636 781 l 200 781 l 192 897 q 349 932 263 932 l 694 932 z "},"Ů":{"ha":1074,"x_min":8,"x_max":1065,"o":"m 1065 881 q 947 808 1014 842 l 947 396 q 839 70 946 168 q 561 -28 732 -28 q 240 88 358 -28 q 115 406 121 203 l 115 831 l 8 849 l 10 925 l 517 925 l 525 881 q 407 808 474 842 l 407 357 q 458 178 407 236 q 593 121 510 121 q 703 158 658 121 q 750 399 749 222 l 750 829 l 639 849 l 640 925 l 1057 925 l 1065 881 m 358 1161 q 408 1289 358 1238 q 535 1340 458 1340 q 661 1288 610 1340 q 713 1157 713 1236 q 665 1033 713 1081 q 540 985 617 985 q 411 1033 464 985 q 358 1161 358 1082 m 454 1136 q 478 1078 454 1100 q 538 1056 503 1056 q 594 1078 572 1056 q 617 1135 617 1100 q 593 1194 617 1171 q 535 1217 569 1217 q 477 1194 500 1217 q 454 1136 454 1171 z "},"ů":{"ha":911,"x_min":0,"x_max":908,"o":"m 908 90 l 708 -24 q 619 9 663 -22 q 549 94 576 40 q 338 -24 439 11 q 226 -3 288 -29 q 125 83 164 24 q 107 213 108 110 l 107 550 l 3 576 l 0 644 q 304 699 133 692 l 386 625 l 386 269 q 485 161 386 153 l 518 167 l 518 557 l 447 582 l 444 650 q 715 699 563 694 l 797 625 l 797 193 q 831 150 797 150 l 876 151 l 904 153 l 908 90 m 250 908 q 300 1036 250 985 q 426 1088 350 1088 q 553 1035 501 1088 q 604 904 604 983 q 556 780 604 828 q 432 732 508 732 q 303 781 356 732 q 250 908 250 829 m 346 883 q 370 825 346 847 q 429 803 394 803 q 486 825 464 803 q 508 882 508 847 q 485 941 508 918 q 426 964 461 964 q 369 941 392 964 q 346 883 346 918 z "},"Ű":{"ha":1074,"x_min":8,"x_max":1065,"o":"m 1065 881 q 947 808 1014 842 l 947 396 q 839 70 946 168 q 561 -28 732 -28 q 240 88 358 -28 q 115 406 121 203 l 115 831 l 8 849 l 10 925 l 517 925 l 525 881 q 407 808 474 842 l 407 357 q 458 178 407 236 q 593 121 510 121 q 703 158 658 121 q 750 399 749 222 l 750 829 l 639 849 l 640 925 l 1057 925 l 1065 881 m 489 1307 l 626 1174 q 385 983 564 1129 l 274 1082 l 489 1307 m 793 1282 l 931 1149 q 689 958 879 1113 l 578 1057 l 793 1282 z "},"ű":{"ha":911,"x_min":0,"x_max":908,"o":"m 908 90 l 708 -24 q 619 9 663 -22 q 549 94 576 40 q 338 -24 439 11 q 226 -3 288 -29 q 125 83 164 24 q 107 213 108 110 l 107 550 l 3 576 l 0 644 q 304 699 133 692 l 386 625 l 386 269 q 485 161 386 153 l 518 167 l 518 557 l 447 582 l 444 650 q 715 699 563 694 l 797 625 l 797 193 q 831 150 797 150 l 876 151 l 904 153 l 908 90 m 358 1081 l 511 958 q 338 794 438 897 l 275 735 l 156 824 l 358 1081 m 664 1081 l 817 958 q 643 794 743 897 l 581 735 l 461 824 l 664 1081 z "},"Ų":{"ha":1074,"x_min":8,"x_max":1065,"o":"m 1065 881 q 947 808 1014 842 l 947 390 q 708 -7 943 67 q 578 -106 621 -62 q 535 -199 535 -150 q 610 -271 535 -271 q 715 -235 657 -271 l 751 -310 l 572 -408 l 538 -411 q 402 -364 456 -411 q 349 -247 349 -317 q 535 -28 349 -121 q 225 101 335 -18 q 115 425 115 221 l 115 831 l 8 849 l 10 925 l 517 925 l 525 881 q 407 808 474 842 l 407 357 q 458 178 407 236 q 593 121 510 121 q 703 158 658 121 q 750 399 749 222 l 750 829 l 639 849 l 640 925 l 1057 925 l 1065 881 z "},"ų":{"ha":911,"x_min":0,"x_max":908,"o":"m 649 -149 q 724 -221 649 -221 q 831 -185 772 -221 l 865 -261 l 686 -358 l 651 -361 q 516 -314 569 -361 q 463 -199 463 -267 q 621 7 463 -83 q 549 94 576 40 q 338 -24 439 11 q 226 -3 288 -29 q 125 83 164 24 q 107 213 108 110 l 107 550 l 3 576 l 0 644 q 304 699 133 692 l 386 625 l 386 269 q 485 161 386 153 l 518 167 l 518 557 l 447 582 l 444 650 q 715 699 563 694 l 797 625 l 797 193 q 831 150 797 150 l 876 151 l 904 153 l 908 90 l 817 38 q 690 -58 732 -17 q 649 -149 649 -100 z "},"Ÿ":{"ha":968,"x_min":-6,"x_max":981,"o":"m 628 97 l 746 76 l 744 0 l 239 0 l 231 44 q 347 117 278 82 l 347 336 l 83 833 l -6 849 l -4 925 l 424 925 l 432 881 l 367 836 l 478 628 l 517 504 l 526 504 l 692 832 l 597 849 l 599 925 l 972 925 l 981 881 q 853 803 932 842 l 628 383 l 628 97 m 475 1153 q 350 1006 442 1054 q 197 1129 247 1040 q 326 1300 214 1238 q 475 1153 447 1247 m 832 1153 q 707 1006 799 1054 q 554 1129 604 1040 q 683 1300 571 1238 q 832 1153 804 1247 z "},"Ź":{"ha":957,"x_min":43,"x_max":907,"o":"m 907 326 q 871 0 903 189 l 124 -1 l 43 125 l 560 796 l 328 776 l 260 578 l 101 578 q 86 778 86 672 l 93 925 l 838 925 l 900 803 l 394 143 l 656 156 l 738 350 l 907 326 m 629 1281 l 721 1089 l 354 950 l 283 1074 l 629 1281 z "},"ź":{"ha":746,"x_min":14,"x_max":731,"o":"m 714 246 l 658 -29 l 196 38 l 106 -25 l 14 51 l 385 568 l 276 549 l 213 413 l 64 413 q 53 550 53 464 q 60 661 53 619 l 60 669 l 597 669 l 643 699 l 731 614 l 394 160 l 558 200 l 714 246 m 238 840 l 456 1114 l 622 967 q 374 735 563 918 l 238 840 z "},"Ż":{"ha":957,"x_min":43,"x_max":907,"o":"m 907 326 q 871 0 903 189 l 124 -1 l 43 125 l 560 796 l 328 776 l 260 578 l 101 578 q 86 778 86 672 l 93 925 l 838 925 l 900 803 l 394 143 l 656 156 l 738 350 l 907 326 m 638 1153 q 514 1006 606 1054 q 361 1129 410 1040 q 490 1300 376 1236 q 638 1153 611 1249 z "},"ż":{"ha":746,"x_min":14,"x_max":731,"o":"m 714 246 l 658 -29 l 196 38 l 106 -25 l 14 51 l 385 568 l 276 549 l 213 413 l 64 413 q 53 550 53 464 q 60 661 53 619 l 60 669 l 597 669 l 643 699 l 731 614 l 394 160 l 558 200 l 714 246 m 526 900 q 403 753 494 801 q 250 876 299 788 q 379 1047 265 983 q 526 900 500 996 z "},"Ž":{"ha":957,"x_min":43,"x_max":907,"o":"m 907 326 q 871 0 903 189 l 124 -1 l 43 125 l 560 796 l 328 776 l 260 578 l 101 578 q 86 778 86 672 l 93 925 l 838 925 l 900 803 l 394 143 l 656 156 l 738 350 l 907 326 m 493 1126 l 683 1299 l 790 1210 l 575 993 l 393 990 l 183 1194 l 306 1301 l 493 1126 z "},"ž":{"ha":746,"x_min":14,"x_max":731,"o":"m 714 246 l 658 -29 l 196 38 l 106 -25 l 14 51 l 385 568 l 276 549 l 213 413 l 64 413 q 53 550 53 464 q 60 661 53 619 l 60 669 l 597 669 l 643 699 l 731 614 l 394 160 l 558 200 l 714 246 m 389 883 l 560 1082 l 672 985 l 482 746 l 289 743 l 81 961 l 214 1081 l 389 883 z "},"Ș":{"ha":864,"x_min":67,"x_max":818,"o":"m 818 264 q 713 53 818 133 q 438 -26 607 -26 q 249 -5 351 -26 q 69 54 146 17 l 71 57 l 69 96 q 99 335 69 235 l 224 335 l 336 128 q 460 103 388 110 q 532 194 532 135 q 429 313 532 261 l 279 383 l 219 417 q 67 657 67 510 q 175 871 67 789 q 457 953 283 953 q 625 937 535 953 q 776 896 715 921 q 743 621 768 718 l 597 621 l 529 801 q 399 828 469 824 q 338 731 338 792 q 371 667 338 694 q 554 574 404 640 q 761 433 704 507 q 818 264 818 360 m 488 -96 q 572 -214 572 -135 q 522 -352 572 -278 q 411 -460 472 -426 l 333 -403 q 378 -292 378 -343 q 340 -217 378 -244 l 338 -160 l 488 -96 z "},"ș":{"ha":656,"x_min":21,"x_max":625,"o":"m 293 533 q 326 480 293 503 q 422 423 358 457 q 525 363 486 389 q 594 292 564 336 q 625 192 625 249 q 543 33 625 93 q 325 -28 461 -28 q 21 47 168 -28 l 108 250 q 350 100 228 154 q 371 143 371 118 q 351 183 371 164 q 228 258 332 203 q 84 363 124 313 q 44 475 44 414 q 135 638 44 575 q 365 700 226 700 q 593 653 501 700 l 596 603 q 572 453 596 528 l 435 453 l 382 582 l 353 585 q 293 533 293 574 m 397 -96 q 482 -214 482 -135 q 432 -352 482 -278 q 321 -460 382 -426 l 243 -403 q 288 -292 288 -343 q 250 -217 288 -244 l 247 -160 l 397 -96 z "},"Ț":{"ha":961,"x_min":8,"x_max":954,"o":"m 953 933 l 954 901 q 944 740 954 839 q 922 582 935 642 l 774 582 l 751 796 l 628 810 l 628 99 l 756 76 l 754 0 l 213 0 l 204 44 q 336 122 247 79 l 336 810 l 210 796 l 188 582 l 40 582 q 8 894 8 728 l 10 933 l 483 928 l 951 933 l 953 933 m 535 -96 q 619 -214 619 -135 q 569 -352 619 -278 q 458 -460 519 -426 l 381 -403 q 425 -292 425 -343 q 388 -217 425 -244 l 385 -160 l 535 -96 z "},"ț":{"ha":585,"x_min":-6,"x_max":563,"o":"m 383 485 l 383 228 q 438 174 383 174 l 543 179 l 549 106 l 303 -24 q 166 22 226 -26 q 104 136 106 69 l 104 486 l -4 486 l -6 564 q 119 661 46 611 l 203 851 l 328 851 l 374 658 l 563 658 l 563 579 l 492 485 l 383 485 m 331 -96 q 415 -214 415 -135 q 365 -352 415 -278 q 254 -460 315 -426 l 176 -403 q 221 -292 221 -343 q 183 -217 221 -244 l 181 -160 l 331 -96 z "},"ˆ":{"ha":626,"x_min":38,"x_max":588,"o":"m 226 1043 l 403 1043 l 588 818 l 504 739 l 308 892 l 136 732 l 38 807 l 226 1043 z "},"ˇ":{"ha":658,"x_min":40,"x_max":632,"o":"m 349 892 l 519 1090 l 632 993 l 442 754 l 249 751 l 40 969 l 174 1089 l 349 892 z "},"ˉ":{"ha":0,"x_min":-233,"x_max":276,"o":"m 269 940 l 276 858 l 211 789 l -225 789 l -233 906 q -76 940 -162 940 l 269 940 z "},"˘":{"ha":553,"x_min":33,"x_max":525,"o":"m 525 999 q 456 828 524 894 q 282 763 388 763 q 108 828 178 763 q 33 999 39 893 l 185 1001 q 213 929 188 954 q 272 904 239 904 q 331 930 307 904 q 354 1001 354 956 l 525 999 z "},"˙":{"ha":361,"x_min":42,"x_max":318,"o":"m 318 908 q 194 761 286 810 q 42 885 90 796 q 171 1056 57 992 q 318 908 292 1004 z "},"˚":{"ha":425,"x_min":35,"x_max":389,"o":"m 35 1161 q 85 1289 35 1238 q 211 1340 135 1340 q 338 1288 286 1340 q 389 1157 389 1236 q 341 1033 389 1081 q 217 985 293 985 q 88 1033 140 985 q 35 1161 35 1082 m 131 1136 q 155 1078 131 1100 q 214 1056 179 1056 q 271 1078 249 1056 q 293 1135 293 1100 q 269 1194 293 1171 q 211 1217 246 1217 q 153 1194 176 1217 q 131 1136 131 1171 z "},"˛":{"ha":440,"x_min":32,"x_max":435,"o":"m 407 50 q 264 -56 310 -11 q 218 -150 218 -100 q 293 -222 218 -222 q 400 -186 342 -222 l 435 -262 l 256 -360 l 221 -362 q 85 -315 139 -362 q 32 -200 32 -268 q 122 -41 32 -117 q 381 82 211 35 l 407 50 z "},"˜":{"ha":738,"x_min":39,"x_max":697,"o":"m 39 829 q 159 1005 115 961 q 257 1049 203 1049 q 362 1008 289 1049 q 496 921 435 967 l 613 1040 l 697 979 q 490 756 588 756 q 444 766 468 756 q 345 824 419 776 q 249 872 271 872 q 201 847 226 872 q 128 761 176 822 l 39 829 z "},"˝":{"ha":757,"x_min":42,"x_max":703,"o":"m 244 1089 l 397 967 q 224 803 324 906 l 161 743 l 42 832 l 244 1089 m 550 1089 l 703 967 q 529 803 629 906 l 467 743 l 347 832 l 550 1089 z "},"π":{"ha":1135,"x_min":42,"x_max":1104,"o":"m 1050 474 l 921 482 l 967 0 l 758 -1 l 678 47 l 674 497 l 581 503 l 575 321 q 552 135 572 208 q 478 17 532 61 q 324 -26 424 -26 q 57 28 197 -26 l 136 225 q 275 97 199 161 q 299 231 293 121 l 310 521 l 235 525 l 94 431 l 42 517 q 131 600 69 553 q 232 658 192 647 l 1099 658 l 1104 514 l 1050 474 z "},"–":{"ha":814,"x_min":49,"x_max":740,"o":"m 733 456 l 740 375 l 675 301 l 57 301 l 49 419 q 203 456 122 454 l 733 456 z "},"—":{"ha":1454,"x_min":49,"x_max":1381,"o":"m 1374 456 l 1381 375 l 1315 301 l 57 301 l 49 419 q 211 456 124 456 l 1374 456 z "},"‘":{"ha":375,"x_min":31,"x_max":319,"o":"m 319 978 q 225 818 240 904 l 307 740 q 256 649 296 694 q 165 592 215 604 q 61 669 92 619 q 31 768 31 718 q 95 924 31 849 q 263 1047 160 1000 l 319 978 z "},"’":{"ha":375,"x_min":56,"x_max":344,"o":"m 56 661 q 150 822 135 732 l 68 900 q 120 991 79 946 q 210 1047 161 1036 q 314 971 283 1021 q 344 871 344 921 q 280 715 344 790 q 113 592 215 639 l 56 661 z "},"‚":{"ha":375,"x_min":56,"x_max":344,"o":"m 56 -172 q 150 -11 135 -101 l 68 67 q 120 158 79 113 q 210 214 161 203 q 314 138 283 188 q 344 38 344 88 q 280 -119 344 -43 q 113 -242 215 -194 l 56 -172 z "},"“":{"ha":704,"x_min":31,"x_max":649,"o":"m 319 978 q 225 818 240 904 l 307 740 q 256 649 296 694 q 165 592 215 604 q 61 669 92 619 q 31 768 31 718 q 95 924 31 849 q 263 1047 160 1000 l 319 978 m 649 978 q 554 818 569 904 l 636 740 q 585 649 625 694 q 494 592 544 604 q 390 669 421 619 q 360 768 360 718 q 424 924 360 849 q 592 1047 489 1000 l 649 978 z "},"”":{"ha":706,"x_min":56,"x_max":674,"o":"m 56 661 q 150 822 135 732 l 68 900 q 120 991 79 946 q 210 1047 161 1036 q 314 971 283 1021 q 344 871 344 921 q 280 715 344 790 q 113 592 215 639 l 56 661 m 385 661 q 479 822 464 732 l 397 900 q 449 991 408 946 q 539 1047 490 1036 q 643 971 613 1021 q 674 871 674 921 q 609 715 674 790 q 442 592 544 639 l 385 661 z "},"„":{"ha":706,"x_min":56,"x_max":674,"o":"m 56 -172 q 150 -11 135 -101 l 68 67 q 120 158 79 113 q 210 214 161 203 q 314 138 283 188 q 344 38 344 88 q 280 -119 344 -43 q 113 -242 215 -194 l 56 -172 m 385 -172 q 479 -11 464 -101 l 397 67 q 449 158 408 113 q 539 214 490 203 q 643 138 613 188 q 674 38 674 88 q 609 -119 674 -43 q 442 -242 544 -194 l 385 -172 z "},"†":{"ha":804,"x_min":47,"x_max":757,"o":"m 697 515 l 532 515 l 492 -250 l 296 -250 l 264 515 l 56 515 l 47 567 l 107 651 l 257 651 l 247 890 l 306 957 l 556 951 l 540 651 l 749 651 l 757 600 l 697 515 z "},"‡":{"ha":807,"x_min":47,"x_max":760,"o":"m 749 329 l 757 278 l 697 194 l 518 194 l 494 -250 l 299 -250 l 279 194 l 56 194 l 47 246 l 107 329 l 274 329 l 267 515 l 58 515 l 50 567 l 110 651 l 260 651 l 250 890 l 308 957 l 558 951 l 543 651 l 751 651 l 760 600 l 700 515 l 535 515 l 525 329 l 749 329 z "},"•":{"ha":582,"x_min":68,"x_max":514,"o":"m 514 349 q 314 113 463 190 q 68 311 143 172 q 276 586 94 483 q 514 349 461 504 z "},"…":{"ha":1310,"x_min":138,"x_max":1282,"o":"m 426 126 q 297 -28 396 25 q 138 101 186 10 q 274 281 153 215 q 426 126 394 226 m 854 126 q 725 -28 824 24 q 565 101 614 10 q 701 281 581 215 q 854 126 822 226 m 1282 126 q 1153 -28 1251 24 q 993 101 1042 10 q 1129 281 1008 215 q 1282 126 1250 226 z "},"‰":{"ha":1667,"x_min":50,"x_max":1617,"o":"m 50 604 q 117 777 50 703 q 278 851 185 851 q 441 777 372 851 q 510 604 510 703 q 445 429 510 500 q 285 358 381 358 q 119 431 188 358 q 50 604 50 503 m 792 828 l 896 747 l 328 -53 l 225 31 l 792 828 m 319 497 q 350 586 350 531 q 324 675 350 639 q 261 711 299 711 q 232 704 250 711 q 207 625 207 668 q 230 535 207 576 q 297 494 253 494 l 319 497 m 647 215 q 715 388 647 314 q 875 463 782 463 q 1038 388 969 463 q 1107 215 1107 314 q 1043 41 1107 111 q 882 -29 979 -29 q 717 42 786 -29 q 647 215 647 114 m 1157 215 q 1224 388 1157 314 q 1385 463 1292 463 q 1548 388 1479 463 q 1617 215 1617 314 q 1553 41 1617 111 q 1392 -29 1489 -29 q 1226 42 1296 -29 q 1157 215 1157 114 m 917 108 q 947 197 947 142 q 922 284 947 246 q 858 322 897 322 q 829 315 847 322 q 804 232 804 279 q 830 144 804 182 q 897 106 856 106 l 917 108 m 1426 108 q 1457 197 1457 142 q 1432 284 1457 246 q 1368 322 1407 322 q 1339 315 1357 322 q 1314 232 1314 279 q 1340 144 1314 182 q 1407 106 1365 106 l 1426 108 z "},"‹":{"ha":526,"x_min":72,"x_max":454,"o":"m 317 667 l 444 576 l 321 351 l 454 138 l 317 40 l 72 288 l 72 415 l 317 667 z "},"›":{"ha":526,"x_min":72,"x_max":454,"o":"m 454 288 l 210 40 l 72 138 l 206 351 l 82 576 l 210 667 l 454 415 l 454 288 z "},"⁄":{"ha":283,"x_min":-285,"x_max":636,"o":"m 538 969 l 636 872 l -185 14 l -285 108 l 538 969 z "},"€":{"ha":928,"x_min":-32,"x_max":911,"o":"m 864 196 l 906 71 l 650 -31 q 309 49 432 -39 q 143 275 186 136 l -24 275 l -32 313 l 25 381 l 122 381 l 119 457 l 7 457 l -1 494 l 56 563 l 136 563 q 306 831 178 732 q 614 931 435 931 q 910 843 796 931 l 911 843 q 856 614 890 707 l 731 614 l 708 732 q 519 768 617 775 q 407 563 435 692 l 810 563 l 818 525 l 761 457 l 396 457 l 396 451 l 400 381 l 754 381 l 763 343 l 706 275 l 432 275 q 661 143 496 156 l 864 196 z "},"₽":{"ha":969,"x_min":36,"x_max":951,"o":"m 449 318 l 449 272 l 588 272 l 596 215 l 536 161 l 449 161 l 449 107 l 621 76 l 619 0 l 58 0 l 50 44 q 157 111 88 75 l 157 161 l 44 161 l 36 213 l 96 272 l 157 272 l 157 329 l 44 329 l 36 381 l 96 447 l 157 447 l 157 831 l 51 849 l 53 925 l 563 936 q 842 848 733 938 q 951 619 951 758 q 848 406 951 492 q 583 318 744 321 l 449 318 m 449 783 l 449 451 l 524 451 q 624 497 590 451 q 658 611 658 543 q 642 724 658 665 q 597 803 625 782 l 449 783 z "},"™":{"ha":1304,"x_min":1,"x_max":1274,"o":"m 274 1021 l 543 1024 q 539 924 546 997 q 524 831 532 850 l 429 831 l 410 946 l 361 950 l 361 671 l 428 658 l 426 622 l 122 622 l 118 642 q 186 683 133 657 l 186 950 l 136 946 l 117 831 l 21 831 q 8 906 14 847 q 1 1003 1 964 l 3 1024 l 274 1021 m 1274 660 l 1274 624 l 1011 624 l 1007 643 q 1061 682 1028 663 l 1053 813 l 1058 882 l 956 633 l 843 619 l 731 888 l 736 818 l 729 672 l 793 660 l 793 624 l 567 624 l 563 643 q 622 685 582 661 l 636 975 l 588 985 l 589 1021 l 836 1021 l 940 775 l 1042 1021 l 1250 1021 l 1254 1001 q 1203 965 1231 981 l 1218 671 l 1274 660 z "},"Ω":{"ha":1033,"x_min":39,"x_max":994,"o":"m 994 510 q 931 283 994 389 q 760 100 868 178 l 961 76 l 960 0 l 571 0 l 571 121 q 690 331 651 221 q 729 538 729 442 q 677 726 729 656 q 532 796 625 796 q 386 724 439 796 q 333 533 333 653 q 373 326 333 433 q 497 126 413 218 l 497 0 l 89 0 l 81 44 q 289 103 146 79 q 39 497 39 261 q 108 722 39 622 q 290 876 178 821 q 524 931 401 931 q 856 809 718 931 q 994 510 994 688 z "},"∂":{"ha":833,"x_min":60,"x_max":779,"o":"m 274 1057 q 656 797 533 975 q 779 401 779 619 q 678 76 779 199 q 408 -46 576 -46 q 157 51 254 -46 q 60 301 60 149 q 151 553 60 446 q 365 661 242 661 l 503 596 q 400 808 474 717 q 217 939 326 900 l 274 1057 m 408 97 q 492 241 463 147 q 521 443 521 335 l 519 494 q 370 410 422 482 q 318 251 318 339 q 341 149 318 192 q 408 97 364 106 z "},"∆":{"ha":1032,"x_min":56,"x_max":988,"o":"m 988 53 l 929 0 l 64 0 l 56 51 l 367 874 l 619 936 l 979 106 l 981 106 l 988 53 m 675 106 l 451 661 l 254 106 l 675 106 z "},"∏":{"ha":1169,"x_min":31,"x_max":1139,"o":"m 971 -42 l 1094 -62 l 1093 -139 l 679 -139 l 679 871 l 478 871 l 478 -42 l 601 -62 l 600 -139 l 76 -139 l 68 -94 q 186 -22 119 -56 l 186 871 l 50 871 l 31 983 q 182 1021 106 1021 l 1133 1021 l 1139 939 l 1076 871 l 971 871 l 971 -42 z "},"∑":{"ha":999,"x_min":42,"x_max":914,"o":"m 913 -139 l 64 -139 l 64 -39 l 65 -39 l 64 -37 l 310 344 l 42 910 l 42 1021 l 874 1021 l 872 1014 q 865 838 875 957 q 842 669 856 718 l 671 669 l 613 843 l 415 851 l 344 863 l 544 428 l 267 -1 l 382 19 l 649 29 l 710 213 l 881 213 q 904 44 894 164 q 911 -132 914 -75 l 913 -139 z "},"−":{"ha":825,"x_min":72,"x_max":753,"o":"m 753 292 l 72 292 l 72 444 l 753 444 l 753 292 z "},"∕":{"ha":283,"x_min":-285,"x_max":636,"o":"m 538 969 l 636 872 l -185 14 l -285 108 l 538 969 z "},"∙":{"ha":429,"x_min":42,"x_max":346,"o":"m 214 231 q 120 288 172 247 q 42 364 68 328 q 181 533 101 486 q 271 476 224 515 q 346 400 318 436 q 290 306 328 354 q 214 231 253 257 z "},"√":{"ha":1118,"x_min":57,"x_max":1026,"o":"m 1026 976 l 685 -117 q 569 -137 646 -131 q 439 -140 492 -143 l 283 407 l 156 324 l 57 464 l 271 658 l 440 658 l 561 178 l 831 1043 l 1026 976 z "},"∞":{"ha":1076,"x_min":42,"x_max":1046,"o":"m 817 742 q 980 664 914 742 q 1046 469 1046 586 q 968 263 1046 343 q 778 182 890 182 q 644 223 704 182 q 525 338 585 264 q 289 183 419 183 q 113 258 185 183 q 42 447 42 332 q 122 658 42 571 q 315 744 203 744 q 456 703 392 744 q 585 589 519 661 q 817 742 697 742 m 232 521 q 268 425 232 463 q 358 388 304 388 q 456 425 413 388 q 361 531 401 494 q 281 568 321 568 q 243 558 261 568 q 232 521 232 536 m 851 389 q 869 449 869 413 q 842 520 869 488 q 771 553 815 553 q 653 508 717 553 q 741 412 704 444 q 815 379 778 379 q 851 389 833 379 z "},"∫":{"ha":660,"x_min":-46,"x_max":706,"o":"m 346 892 q 575 732 451 858 l 706 975 q 458 1043 560 1043 q 185 915 311 1043 q 58 631 58 788 l 315 -97 q 85 63 211 -64 l -46 -181 q 197 -249 119 -249 q 386 -191 292 -249 q 542 -37 481 -133 q 603 164 603 58 l 346 892 z "},"≈":{"ha":815,"x_min":74,"x_max":746,"o":"m 74 436 q 188 596 149 550 q 264 642 226 642 q 554 518 313 642 l 676 618 l 746 558 q 637 392 678 442 q 553 343 596 343 q 399 400 510 343 q 265 457 289 457 q 156 375 235 457 l 74 436 m 74 156 q 188 315 149 269 q 264 361 226 361 q 554 238 313 361 l 676 338 l 746 278 q 637 112 678 161 q 553 63 596 63 q 399 119 510 63 q 265 176 289 176 q 156 94 235 176 l 74 156 z "},"≠":{"ha":800,"x_min":72,"x_max":728,"o":"m 499 422 l 421 296 l 728 296 l 728 161 l 338 161 l 233 -8 l 164 32 l 244 161 l 72 161 l 72 296 l 328 296 l 406 422 l 72 422 l 72 557 l 489 557 l 594 728 l 664 689 l 582 557 l 728 557 l 728 422 l 499 422 z "},"≤":{"ha":825,"x_min":72,"x_max":753,"o":"m 731 739 l 300 528 l 301 519 l 731 326 l 665 207 l 97 468 l 86 565 l 664 854 l 731 739 m 753 0 l 72 0 l 72 135 l 753 135 l 753 0 z "},"≥":{"ha":825,"x_min":72,"x_max":753,"o":"m 739 565 l 728 468 l 160 207 l 94 326 l 524 519 l 525 528 l 94 739 l 163 854 l 739 565 m 753 135 l 753 0 l 72 0 l 72 135 l 753 135 z "},"◊":{"ha":764,"x_min":47,"x_max":717,"o":"m 717 510 l 467 0 l 325 -11 l 47 511 l 297 1021 l 439 1032 l 717 510 m 526 510 l 376 801 l 368 800 l 238 511 l 388 219 l 396 221 l 526 510 z "},"́":{"ha":0,"x_min":-144,"x_max":240,"o":"m -144 849 l 74 1122 l 240 975 q -8 743 181 926 l -144 849 z "},"̆":{"ha":0,"x_min":-244,"x_max":247,"o":"m 247 999 q 178 828 246 894 q 4 763 110 763 q -169 828 -100 763 q -244 999 -239 893 l -93 1001 q -65 929 -90 954 q -6 904 -39 904 q 53 930 29 904 q 76 1001 76 956 l 247 999 z "},"̌":{"ha":0,"x_min":-301,"x_max":290,"o":"m 7 892 l 178 1090 l 290 993 l 100 754 l -93 751 l -301 969 l -168 1089 l 7 892 z "},"̧":{"ha":0,"x_min":-149,"x_max":181,"o":"m -7 -78 q 126 -112 71 -78 q 181 -194 181 -147 q 95 -328 181 -274 q -114 -379 10 -383 l -143 -332 q -47 -278 -81 -310 q -14 -215 -14 -246 q -40 -174 -14 -189 q -111 -164 -65 -160 l -149 -99 l -61 8 l 40 8 l -7 -78 z "},"̂":{"ha":0,"x_min":-269,"x_max":281,"o":"m -81 1043 l 96 1043 l 281 818 l 197 739 l 1 892 l -171 732 l -269 807 l -81 1043 z "},"̦":{"ha":0,"x_min":-100,"x_max":139,"o":"m 54 -96 q 139 -214 139 -135 q 89 -352 139 -278 q -22 -460 39 -426 l -100 -403 q -56 -292 -56 -343 q -93 -217 -56 -244 l -96 -160 l 54 -96 z "},"̈":{"ha":0,"x_min":-317,"x_max":318,"o":"m -39 908 q -164 761 -72 810 q -317 885 -267 796 q -187 1056 -300 993 q -39 908 -67 1003 m 318 908 q 193 761 285 810 q 40 885 90 796 q 169 1056 57 993 q 318 908 290 1003 z "},"̇":{"ha":0,"x_min":-132,"x_max":144,"o":"m 144 908 q 21 761 113 810 q -132 885 -83 796 q -3 1056 -117 992 q 144 908 118 1004 z "},"̣":{"ha":0,"x_min":-132,"x_max":144,"o":"m 144 -283 q 21 -431 113 -382 q -132 -307 -83 -393 q -3 -135 -117 -199 q 144 -283 118 -187 z "},"̀":{"ha":0,"x_min":-240,"x_max":144,"o":"m -240 975 l -74 1122 l 144 849 l 8 743 q -240 975 -181 926 z "},"̋":{"ha":0,"x_min":-271,"x_max":390,"o":"m -68 1089 l 85 967 q -89 803 11 906 l -151 743 l -271 832 l -68 1089 m 238 1089 l 390 967 q 217 803 317 906 l 154 743 l 35 832 l 238 1089 z "},"̱":{"ha":0,"x_min":-269,"x_max":278,"o":"m 271 -178 l 278 -260 l 213 -329 l -261 -329 l -269 -212 q -106 -178 -197 -178 l 271 -178 z "},"̄":{"ha":0,"x_min":-233,"x_max":276,"o":"m 269 940 l 276 858 l 211 789 l -225 789 l -233 906 q -76 940 -162 940 l 269 940 z "},"̨":{"ha":0,"x_min":-357,"x_max":46,"o":"m 18 50 q -125 -56 -79 -11 q -171 -150 -171 -100 q -96 -222 -171 -222 q 11 -186 -47 -222 l 46 -262 l -133 -360 l -168 -362 q -303 -315 -250 -362 q -357 -200 -357 -268 q -267 -41 -357 -117 q -8 82 -178 35 l 18 50 z "},"̊":{"ha":0,"x_min":-176,"x_max":178,"o":"m -176 1161 q -126 1289 -176 1238 q 0 1340 -76 1340 q 126 1288 75 1340 q 178 1157 178 1236 q 130 1033 178 1081 q 6 985 82 985 q -124 1033 -71 985 q -176 1161 -176 1082 m -81 1136 q -56 1078 -81 1100 q 3 1056 -32 1056 q 60 1078 38 1056 q 82 1135 82 1100 q 58 1194 82 1171 q 0 1217 35 1217 q -58 1194 -35 1217 q -81 1136 -81 1171 z "},"̃":{"ha":0,"x_min":-312,"x_max":346,"o":"m -312 829 q -192 1005 -236 961 q -94 1049 -149 1049 q 10 1008 -62 1049 q 144 921 83 967 l 261 1040 l 346 979 q 139 756 236 756 q 92 766 117 756 q -6 824 68 776 q -103 872 -81 872 q -150 847 -125 872 q -224 761 -175 822 l -312 829 z "},"̒":{"ha":0,"x_min":-135,"x_max":154,"o":"m 154 1076 q 60 917 75 1003 l 142 839 q 90 748 131 793 q 0 690 50 703 q -104 767 -74 718 q -135 867 -135 817 q -70 1023 -135 947 q 97 1146 -6 1099 l 154 1076 z "},"ऄ":{"ha":1247,"x_min":21,"x_max":1338,"o":"m 1303 747 l 1044 747 l 1150 675 l 1150 -26 l 1075 -64 l 892 32 l 892 279 q 846 271 871 271 q 756 292 806 271 q 764 226 764 258 q 692 45 764 117 q 500 -26 619 -26 q 251 63 376 -26 q 21 385 125 153 l 147 467 q 278 263 210 332 q 429 194 346 194 q 527 228 492 194 q 563 303 563 261 q 507 392 563 367 l 371 306 l 225 519 q 418 603 306 593 q 519 746 519 668 l 518 764 q 395 733 464 769 q 263 633 326 696 l 128 808 q 413 951 261 951 q 621 862 528 951 q 714 674 714 772 q 642 504 714 585 q 758 471 694 471 q 892 519 840 471 l 892 747 l 792 747 l 701 863 l 736 931 l 921 931 q 870 1004 910 978 q 708 1053 831 1031 q 525 1108 586 1075 q 371 1467 371 1192 l 515 1481 q 661 1317 533 1350 l 738 1301 q 958 1232 901 1275 q 1044 1117 1014 1189 q 1079 931 1074 1046 l 1247 931 l 1338 815 l 1303 747 z "},"अ":{"ha":1247,"x_min":21,"x_max":1338,"o":"m 1303 747 l 1044 747 l 1150 675 l 1150 -26 l 1075 -64 l 892 32 l 892 279 q 846 271 871 271 q 756 292 806 271 q 764 226 764 258 q 692 45 764 117 q 500 -26 619 -26 q 251 63 376 -26 q 21 385 125 153 l 147 467 q 278 263 210 332 q 429 194 346 194 q 527 228 492 194 q 563 303 563 261 q 507 392 563 367 l 371 306 l 225 519 q 418 603 306 593 q 519 746 519 668 l 518 764 q 395 733 464 769 q 263 633 326 696 l 128 808 q 413 951 261 951 q 621 862 528 951 q 714 674 714 772 q 642 504 714 585 q 758 471 694 471 q 892 519 840 471 l 892 747 l 792 747 l 701 863 l 736 931 l 1247 931 l 1338 815 l 1303 747 z "},"आ":{"ha":1686,"x_min":21,"x_max":1776,"o":"m 1742 747 l 1483 747 l 1589 675 l 1589 -26 l 1514 -64 l 1331 32 l 1331 747 l 1044 747 l 1150 675 l 1150 -26 l 1075 -64 l 892 32 l 892 279 q 846 271 871 271 q 756 292 806 271 q 764 226 764 258 q 692 45 764 117 q 500 -26 619 -26 q 251 63 376 -26 q 21 385 125 153 l 147 467 q 278 263 210 332 q 429 194 346 194 q 527 228 492 194 q 563 303 563 261 q 507 392 563 367 l 371 306 l 225 519 q 418 603 306 593 q 519 746 519 668 l 518 764 q 395 733 464 769 q 263 633 326 696 l 128 808 q 413 951 261 951 q 621 862 528 951 q 714 674 714 772 q 642 504 714 585 q 758 471 694 471 q 892 519 840 471 l 892 747 l 792 747 l 701 863 l 736 931 l 1686 931 l 1776 815 l 1742 747 z "},"इ":{"ha":833,"x_min":-90,"x_max":924,"o":"m 889 747 l 600 747 l 706 675 l 706 476 l 333 476 q 276 459 297 476 q 254 418 254 442 q 269 383 254 399 l 553 436 q 732 315 671 393 q 793 144 793 236 q 703 -35 793 26 q 490 -114 613 -96 l 660 -250 l 472 -385 l 293 -107 q 82 1 197 -81 l 135 200 l 251 197 l 335 81 l 371 78 q 525 122 450 78 q 615 219 600 165 l 396 161 q 133 302 229 214 q 38 485 38 390 q 107 621 38 567 q 306 675 176 675 l 475 675 l 475 747 l 0 747 l -90 863 l -56 931 l 833 931 l 924 815 l 889 747 z "},"ई":{"ha":833,"x_min":-90,"x_max":924,"o":"m 889 747 l 600 747 l 706 675 l 706 476 l 333 476 q 276 459 297 476 q 254 418 254 442 q 269 383 254 399 l 553 436 q 732 315 671 393 q 793 144 793 236 q 703 -35 793 26 q 490 -114 613 -96 l 660 -250 l 472 -385 l 293 -107 q 82 1 197 -81 l 135 200 l 251 197 l 335 81 l 371 78 q 525 122 450 78 q 615 219 600 165 l 396 161 q 133 302 229 214 q 38 485 38 390 q 107 621 38 567 q 306 675 176 675 l 475 675 l 475 747 l 0 747 l -90 863 l -56 931 l 429 931 q 317 1167 317 1053 q 387 1326 317 1260 q 560 1393 457 1393 q 690 1364 628 1393 q 790 1290 751 1335 l 756 1171 q 660 1193 708 1193 q 559 1160 600 1193 q 518 1067 518 1128 q 576 931 518 1003 l 833 931 l 924 815 l 889 747 z "},"उ":{"ha":833,"x_min":-90,"x_max":924,"o":"m 889 747 l 613 747 q 682 603 682 681 q 633 471 682 529 q 741 352 704 421 q 778 210 778 283 q 692 8 778 89 q 474 -72 607 -72 q 217 24 340 -72 q -12 361 94 121 l 121 433 q 253 221 186 293 q 406 149 319 149 q 509 188 471 149 q 547 275 547 226 q 494 367 547 338 l 356 278 l 203 503 q 301 564 242 539 q 414 592 360 589 q 453 665 453 622 q 406 747 453 708 l 0 747 l -90 863 l -56 931 l 833 931 l 924 815 l 889 747 z "},"ऊ":{"ha":1243,"x_min":-90,"x_max":1333,"o":"m 613 747 q 682 603 682 681 q 633 471 682 529 l 658 453 q 917 594 786 594 q 1124 498 1035 594 q 1214 281 1214 401 q 1006 -28 1214 113 l 833 160 q 970 280 924 233 q 1017 360 1017 326 q 982 390 1017 390 q 776 242 911 390 l 778 210 q 692 8 778 89 q 474 -72 607 -72 q 217 24 340 -72 q -12 361 94 121 l 121 433 q 253 221 186 293 q 406 149 319 149 q 509 188 471 149 q 547 275 547 226 q 494 367 547 338 l 356 278 l 203 503 q 301 564 242 539 q 414 592 360 589 q 453 665 453 622 q 406 747 453 708 l 0 747 l -90 863 l -56 931 l 1243 931 l 1333 815 l 1299 747 l 613 747 z "},"ऋ":{"ha":1351,"x_min":-90,"x_max":1442,"o":"m 721 747 l 826 675 l 826 432 l 875 428 q 1010 469 950 428 l 924 604 l 965 683 l 1196 678 q 1229 549 1229 619 q 1201 442 1229 485 q 1354 160 1354 281 q 1293 9 1354 78 q 1110 -81 1232 -60 l 975 57 l 989 129 q 1138 260 1138 174 q 1124 314 1138 283 q 1001 230 1075 263 q 849 197 926 197 l 826 199 l 826 -26 l 751 -64 l 568 32 l 568 217 l 306 11 l 128 219 l 461 436 q 381 472 419 472 q 303 447 347 472 q 153 346 260 421 l -4 586 q 257 706 157 706 q 476 596 361 706 l 568 508 l 568 747 l 0 747 l -90 863 l -56 931 l 1351 931 l 1442 815 l 1407 747 l 721 747 z "},"ॠ":{"ha":1363,"x_min":-90,"x_max":1536,"o":"m 1536 -304 q 1303 -408 1439 -408 q 1093 -330 1185 -408 q 1001 -153 1001 -251 q 1011 -96 1001 -128 q 876 85 876 -25 q 1125 288 876 224 l 1101 325 q 850 239 994 239 l 826 240 l 826 -26 l 751 -64 l 568 32 l 568 217 l 306 11 l 128 219 l 461 436 q 381 472 419 472 q 303 447 347 472 q 153 346 260 421 l -4 586 q 257 706 157 706 q 476 596 361 706 l 568 508 l 568 747 l 0 747 l -90 863 l -56 931 l 1379 931 l 1469 815 l 1435 747 l 721 747 l 826 675 l 826 446 l 878 442 q 1007 476 951 442 l 924 604 l 965 683 l 1196 678 q 1229 549 1229 619 q 1192 428 1229 475 l 1326 185 l 1289 113 q 1134 71 1207 101 q 1061 8 1061 40 q 1075 -17 1061 -6 q 1321 74 1160 47 l 1410 -51 l 1372 -124 q 1189 -206 1189 -161 q 1221 -226 1189 -226 q 1326 -192 1261 -226 q 1419 -121 1390 -158 l 1536 -304 z "},"ऌ":{"ha":1167,"x_min":-90,"x_max":1257,"o":"m 1222 747 l 774 747 l 879 675 l 879 632 q 1013 518 963 592 q 1064 361 1064 444 q 1024 214 1064 283 q 911 56 985 144 q 838 -51 838 -33 q 868 -83 838 -83 q 1022 93 939 -83 l 1199 -64 q 942 -268 1104 -268 q 724 -174 822 -268 q 626 28 626 -81 q 646 117 626 76 q 722 229 665 158 q 801 338 779 300 q 824 417 824 375 q 767 482 824 482 q 684 397 721 482 q 647 210 647 311 l 588 168 l 396 283 q 418 440 392 368 l 400 442 q 320 410 353 442 q 288 322 288 378 q 347 194 288 253 q 544 56 407 136 l 446 -76 q 17 417 17 149 q 90 598 17 526 q 271 669 163 669 q 353 656 317 669 l 481 551 q 631 650 540 621 l 631 747 l 0 747 l -90 863 l -56 931 l 1167 931 l 1257 815 l 1222 747 z "},"ॡ":{"ha":1167,"x_min":-90,"x_max":1329,"o":"m 1329 -282 q 1086 -440 1233 -440 q 910 -376 992 -440 q 811 -225 829 -312 q 671 -126 724 -190 q 618 14 618 -62 q 647 123 618 74 q 728 237 675 172 q 803 339 782 301 q 824 417 824 376 q 767 482 824 482 q 684 397 721 482 q 647 210 647 311 l 588 168 l 396 283 q 418 440 392 368 l 400 442 q 320 410 353 442 q 288 322 288 378 q 347 194 288 253 q 544 56 407 136 l 446 -76 q 17 417 17 149 q 90 598 17 526 q 271 669 163 669 q 353 656 317 669 l 481 551 q 631 650 540 621 l 631 747 l 0 747 l -90 863 l -56 931 l 1167 931 l 1257 815 l 1222 747 l 774 747 l 879 675 l 879 632 q 1013 518 963 592 q 1064 363 1064 444 q 949 110 1064 249 l 846 -8 q 821 -56 821 -39 q 836 -92 821 -76 q 1042 60 896 10 l 1164 -60 l 1150 -126 q 1000 -254 1000 -208 q 1021 -272 1000 -272 q 1106 -232 1053 -272 q 1188 -140 1158 -192 l 1329 -282 z "},"ऍ":{"ha":861,"x_min":-90,"x_max":951,"o":"m 917 747 l 683 747 l 789 675 l 789 460 q 747 281 789 349 q 578 151 704 213 l 450 322 l 531 393 l 531 747 l 211 747 l 317 675 l 317 243 l 608 103 q 842 -43 782 17 q 901 -176 901 -103 q 825 -347 901 -276 l 593 -246 q 639 -147 639 -187 q 563 -61 639 -99 l 293 71 q 56 417 56 188 l 56 747 l 0 747 l -90 863 l -56 931 l 861 931 l 951 815 l 917 747 m 747 1264 q 652 1063 726 1140 q 458 985 578 985 q 246 1059 344 985 q 93 1272 147 1133 l 208 1364 q 295 1237 251 1275 q 397 1199 339 1199 q 554 1367 526 1199 l 747 1264 z "},"ऎ":{"ha":861,"x_min":-90,"x_max":951,"o":"m 917 747 l 683 747 l 789 675 l 789 460 q 747 281 789 349 q 578 151 704 213 l 450 322 l 531 393 l 531 747 l 211 747 l 317 675 l 317 243 l 608 103 q 842 -43 782 17 q 901 -176 901 -103 q 825 -347 901 -276 l 593 -246 q 639 -147 639 -187 q 563 -61 639 -99 l 293 71 q 56 417 56 188 l 56 747 l 0 747 l -90 863 l -56 931 l 557 931 q 506 1004 546 978 q 344 1053 467 1031 q 161 1108 222 1075 q 7 1467 7 1192 l 151 1481 q 297 1317 169 1350 l 374 1301 q 594 1232 538 1275 q 680 1117 650 1189 q 715 931 710 1046 l 861 931 l 951 815 l 917 747 z "},"ए":{"ha":861,"x_min":-90,"x_max":951,"o":"m 917 747 l 683 747 l 789 675 l 789 460 q 747 281 789 349 q 578 151 704 213 l 450 322 l 531 393 l 531 747 l 211 747 l 317 675 l 317 243 l 608 103 q 842 -43 782 17 q 901 -176 901 -103 q 825 -347 901 -276 l 593 -246 q 639 -147 639 -187 q 563 -61 639 -99 l 293 71 q 56 417 56 188 l 56 747 l 0 747 l -90 863 l -56 931 l 861 931 l 951 815 l 917 747 z "},"ऐ":{"ha":861,"x_min":-90,"x_max":951,"o":"m 917 747 l 683 747 l 789 675 l 789 460 q 747 281 789 349 q 578 151 704 213 l 450 322 l 531 393 l 531 747 l 211 747 l 317 675 l 317 243 l 608 103 q 842 -43 782 17 q 901 -176 901 -103 q 825 -347 901 -276 l 593 -246 q 639 -147 639 -187 q 563 -61 639 -99 l 293 71 q 56 417 56 188 l 56 747 l 0 747 l -90 863 l -56 931 l 526 931 l 475 1024 q 324 1133 411 1133 q 128 1054 247 1133 l -7 1321 q 222 1394 114 1394 q 593 1111 425 1394 l 700 931 l 861 931 l 951 815 l 917 747 z "},"ऑ":{"ha":1686,"x_min":21,"x_max":1776,"o":"m 1272 985 q 1060 1059 1158 985 q 907 1272 961 1133 l 1022 1364 q 1109 1237 1065 1275 q 1211 1199 1153 1199 q 1368 1367 1340 1199 l 1561 1264 q 1466 1063 1540 1140 q 1272 985 1392 985 m 1742 747 l 1483 747 l 1589 675 l 1589 -26 l 1514 -64 l 1331 32 l 1331 747 l 1044 747 l 1150 675 l 1150 -26 l 1075 -64 l 892 32 l 892 279 q 846 271 871 271 q 756 292 806 271 q 764 226 764 258 q 692 45 764 117 q 500 -26 619 -26 q 251 63 376 -26 q 21 385 125 153 l 147 467 q 278 263 210 332 q 429 194 346 194 q 527 228 492 194 q 563 303 563 261 q 507 392 563 367 l 371 306 l 225 519 q 418 603 306 593 q 519 746 519 668 l 518 764 q 395 733 464 769 q 263 633 326 696 l 128 808 q 413 951 261 951 q 621 862 528 951 q 714 674 714 772 q 642 504 714 585 q 758 471 694 471 q 892 519 840 471 l 892 747 l 792 747 l 701 863 l 736 931 l 1686 931 l 1776 815 l 1742 747 z "},"ऒ":{"ha":1686,"x_min":21,"x_max":1776,"o":"m 1742 747 l 1483 747 l 1589 675 l 1589 -26 l 1514 -64 l 1331 32 l 1331 747 l 1044 747 l 1150 675 l 1150 -26 l 1075 -64 l 892 32 l 892 279 q 846 271 871 271 q 756 292 806 271 q 764 226 764 258 q 692 45 764 117 q 500 -26 619 -26 q 251 63 376 -26 q 21 385 125 153 l 147 467 q 278 263 210 332 q 429 194 346 194 q 527 228 492 194 q 563 303 563 261 q 507 392 563 367 l 371 306 l 225 519 q 418 603 306 593 q 519 746 519 668 l 518 764 q 395 733 464 769 q 263 633 326 696 l 128 808 q 413 951 261 951 q 621 862 528 951 q 714 674 714 772 q 642 504 714 585 q 758 471 694 471 q 892 519 840 471 l 892 747 l 792 747 l 701 863 l 736 931 l 1371 931 q 1320 1004 1360 978 q 1158 1053 1281 1031 q 975 1108 1036 1075 q 821 1467 821 1192 l 965 1481 q 1111 1317 983 1350 l 1188 1301 q 1408 1232 1351 1275 q 1494 1117 1464 1189 q 1529 931 1524 1046 l 1686 931 l 1776 815 l 1742 747 z "},"ओ":{"ha":1686,"x_min":21,"x_max":1776,"o":"m 1742 747 l 1483 747 l 1589 675 l 1589 -26 l 1514 -64 l 1331 32 l 1331 747 l 1044 747 l 1150 675 l 1150 -26 l 1075 -64 l 892 32 l 892 279 q 846 271 871 271 q 756 292 806 271 q 764 226 764 258 q 692 45 764 117 q 500 -26 619 -26 q 251 63 376 -26 q 21 385 125 153 l 147 467 q 278 263 210 332 q 429 194 346 194 q 527 228 492 194 q 563 303 563 261 q 507 392 563 367 l 371 306 l 225 519 q 418 603 306 593 q 519 746 519 668 l 518 764 q 395 733 464 769 q 263 633 326 696 l 128 808 q 413 951 261 951 q 621 862 528 951 q 714 674 714 772 q 642 504 714 585 q 758 471 694 471 q 892 519 840 471 l 892 747 l 792 747 l 701 863 l 736 931 l 1318 931 l 1274 1010 q 1122 1119 1210 1119 q 926 1040 1046 1119 l 792 1307 q 1021 1381 913 1381 q 1220 1307 1131 1381 q 1392 1097 1310 1233 l 1492 931 l 1686 931 l 1776 815 l 1742 747 z "},"ॲ":{"ha":1247,"x_min":21,"x_max":1338,"o":"m 1303 747 l 1044 747 l 1150 675 l 1150 -26 l 1075 -64 l 892 32 l 892 279 q 846 271 871 271 q 756 292 806 271 q 764 226 764 258 q 692 45 764 117 q 500 -26 619 -26 q 251 63 376 -26 q 21 385 125 153 l 147 467 q 278 263 210 332 q 429 194 346 194 q 527 228 492 194 q 563 303 563 261 q 507 392 563 367 l 371 306 l 225 519 q 418 603 306 593 q 519 746 519 668 l 518 764 q 395 733 464 769 q 263 633 326 696 l 128 808 q 413 951 261 951 q 621 862 528 951 q 714 674 714 772 q 642 504 714 585 q 758 471 694 471 q 892 519 840 471 l 892 747 l 792 747 l 701 863 l 736 931 l 1247 931 l 1338 815 l 1303 747 m 1272 1264 q 1177 1063 1251 1140 q 983 985 1103 985 q 771 1059 869 985 q 618 1272 672 1133 l 733 1364 q 820 1237 776 1275 q 922 1199 864 1199 q 1079 1367 1051 1199 l 1272 1264 z "},"ॳ":{"ha":1247,"x_min":21,"x_max":1338,"o":"m 1303 747 l 1044 747 l 1150 675 l 1150 -26 l 1075 -64 l 892 32 l 892 279 q 846 271 871 271 q 756 292 806 271 q 764 226 764 258 q 692 45 764 117 q 500 -26 619 -26 q 251 63 376 -26 q 21 385 125 153 l 147 467 q 278 263 210 332 q 429 194 346 194 q 527 228 492 194 q 563 303 563 261 q 507 392 563 367 l 371 306 l 225 519 q 418 603 306 593 q 519 746 519 668 l 518 764 q 395 733 464 769 q 263 633 326 696 l 128 808 q 413 951 261 951 q 621 862 528 951 q 714 674 714 772 q 642 504 714 585 q 758 471 694 471 q 892 519 840 471 l 892 747 l 792 747 l 701 863 l 736 931 l 917 931 l 917 1188 l 1094 1188 l 1094 931 l 1247 931 l 1338 815 l 1303 747 z "},"ॴ":{"ha":1686,"x_min":21,"x_max":1776,"o":"m 1742 747 l 1483 747 l 1589 675 l 1589 -26 l 1514 -64 l 1331 32 l 1331 747 l 1044 747 l 1150 675 l 1150 -26 l 1075 -64 l 892 32 l 892 279 q 846 271 871 271 q 756 292 806 271 q 764 226 764 258 q 692 45 764 117 q 500 -26 619 -26 q 251 63 376 -26 q 21 385 125 153 l 147 467 q 278 263 210 332 q 429 194 346 194 q 527 228 492 194 q 563 303 563 261 q 507 392 563 367 l 371 306 l 225 519 q 418 603 306 593 q 519 746 519 668 l 518 764 q 395 733 464 769 q 263 633 326 696 l 128 808 q 413 951 261 951 q 621 862 528 951 q 714 674 714 772 q 642 504 714 585 q 758 471 694 471 q 892 519 840 471 l 892 747 l 792 747 l 701 863 l 736 931 l 1351 931 l 1351 1188 l 1529 1188 l 1529 931 l 1686 931 l 1776 815 l 1742 747 z "},"ॵ":{"ha":1686,"x_min":21,"x_max":1776,"o":"m 1742 747 l 1483 747 l 1589 675 l 1589 -26 l 1514 -64 l 1331 32 l 1331 747 l 1044 747 l 1150 675 l 1150 -26 l 1075 -64 l 892 32 l 892 279 q 846 271 871 271 q 756 292 806 271 q 764 226 764 258 q 692 45 764 117 q 500 -26 619 -26 q 251 63 376 -26 q 21 385 125 153 l 147 467 q 278 263 210 332 q 429 194 346 194 q 527 228 492 194 q 563 303 563 261 q 507 392 563 367 l 371 306 l 225 519 q 418 603 306 593 q 519 746 519 668 l 518 764 q 395 733 464 769 q 263 633 326 696 l 128 808 q 413 951 261 951 q 621 862 528 951 q 714 674 714 772 q 642 504 714 585 q 758 471 694 471 q 892 519 840 471 l 892 747 l 792 747 l 701 863 l 736 931 l 1357 931 q 1301 982 1347 979 l 1122 983 q 903 1065 989 983 q 818 1272 818 1147 l 961 1313 q 1095 1156 990 1156 q 1226 1153 1200 1156 l 1271 1147 l 1274 1160 q 1175 1199 1263 1167 q 1063 1283 1101 1228 q 1024 1403 1024 1338 q 1058 1528 1024 1468 l 1208 1506 q 1190 1433 1190 1464 q 1267 1342 1190 1382 l 1356 1294 q 1489 1161 1446 1247 q 1532 978 1532 1075 l 1529 931 l 1686 931 l 1776 815 l 1742 747 z "},"ॶ":{"ha":1247,"x_min":21,"x_max":1338,"o":"m 1303 747 l 1044 747 l 1150 675 l 1150 -26 l 1075 -64 l 892 32 l 892 279 q 846 271 871 271 q 756 292 806 271 q 764 226 764 258 q 692 45 764 117 q 500 -26 619 -26 q 251 63 376 -26 q 21 385 125 153 l 147 467 q 278 263 210 332 q 429 194 346 194 q 527 228 492 194 q 563 303 563 261 q 507 392 563 367 l 371 306 l 225 519 q 418 603 306 593 q 519 746 519 668 l 518 764 q 395 733 464 769 q 263 633 326 696 l 128 808 q 413 951 261 951 q 621 862 528 951 q 714 674 714 772 q 642 504 714 585 q 758 471 694 471 q 892 519 840 471 l 892 747 l 792 747 l 701 863 l 736 931 l 1247 931 l 1338 815 l 1303 747 m 476 -89 q 707 -179 567 -179 q 974 -75 869 -179 l 1089 -261 q 962 -356 1046 -319 q 783 -393 878 -393 q 573 -338 672 -393 q 411 -167 474 -283 l 476 -89 z "},"ॷ":{"ha":1247,"x_min":21,"x_max":1338,"o":"m 1303 747 l 1044 747 l 1150 675 l 1150 -26 l 1075 -64 l 892 32 l 892 279 q 846 271 871 271 q 756 292 806 271 q 764 226 764 258 q 692 45 764 117 q 500 -26 619 -26 q 251 63 376 -26 q 21 385 125 153 l 147 467 q 278 263 210 332 q 429 194 346 194 q 527 228 492 194 q 563 303 563 261 q 507 392 563 367 l 371 306 l 225 519 q 418 603 306 593 q 519 746 519 668 l 518 764 q 395 733 464 769 q 263 633 326 696 l 128 808 q 413 951 261 951 q 621 862 528 951 q 714 674 714 772 q 642 504 714 585 q 758 471 694 471 q 892 519 840 471 l 892 747 l 792 747 l 701 863 l 736 931 l 1247 931 l 1338 815 l 1303 747 m 472 -408 q 703 -499 563 -499 q 969 -394 865 -499 l 1085 -581 q 958 -676 1042 -639 q 779 -712 874 -712 q 569 -658 668 -712 q 407 -486 469 -603 l 472 -408 m 472 -89 q 703 -179 563 -179 q 969 -75 865 -179 l 1085 -261 q 958 -356 1042 -319 q 779 -393 874 -393 q 569 -338 668 -393 q 407 -167 469 -283 l 472 -89 z "},"औ":{"ha":1686,"x_min":21,"x_max":1776,"o":"m 1742 747 l 1483 747 l 1589 675 l 1589 -26 l 1514 -64 l 1331 32 l 1331 747 l 1044 747 l 1150 675 l 1150 -26 l 1075 -64 l 892 32 l 892 279 q 846 271 871 271 q 756 292 806 271 q 764 226 764 258 q 692 45 764 117 q 500 -26 619 -26 q 251 63 376 -26 q 21 385 125 153 l 147 467 q 278 263 210 332 q 429 194 346 194 q 527 228 492 194 q 563 303 563 261 q 507 392 563 367 l 371 306 l 225 519 q 418 603 306 593 q 519 746 519 668 l 518 764 q 395 733 464 769 q 263 633 326 696 l 128 808 q 413 951 261 951 q 621 862 528 951 q 714 674 714 772 q 642 504 714 585 q 758 471 694 471 q 892 519 840 471 l 892 747 l 792 747 l 701 863 l 736 931 l 1304 931 l 1264 972 q 1125 1043 1194 1043 q 938 969 1060 1043 l 819 1182 q 1039 1265 940 1265 q 1289 1114 1160 1265 l 1413 960 l 1350 1108 q 1253 1276 1301 1225 q 1128 1326 1206 1326 q 968 1293 1064 1326 l 875 1549 q 1060 1588 978 1588 q 1286 1485 1194 1588 q 1451 1178 1378 1383 l 1540 931 l 1686 931 l 1776 815 l 1742 747 z "},"क":{"ha":1174,"x_min":-90,"x_max":1264,"o":"m 1229 747 l 614 747 l 719 675 l 719 593 q 861 638 786 638 q 1068 541 981 638 q 1156 321 1156 444 q 917 -31 1156 126 l 738 153 q 887 279 840 232 q 933 368 933 326 q 901 401 933 401 q 719 274 835 401 l 719 -26 l 644 -64 l 461 32 l 461 118 l 413 114 q 240 151 331 114 q 88 260 150 189 q 26 425 26 331 q 98 601 26 531 q 285 671 169 671 l 346 667 l 461 604 l 461 747 l 0 747 l -90 863 l -56 931 l 1174 931 l 1264 815 l 1229 747 m 300 289 q 461 390 396 308 l 461 474 q 410 482 435 482 q 315 442 351 482 q 279 351 279 401 q 300 289 279 314 z "},"ख":{"ha":1278,"x_min":-90,"x_max":1368,"o":"m 1333 747 l 1075 747 l 1181 675 l 1181 -26 l 1106 -64 l 982 0 q 686 -78 861 -78 q 300 46 479 -78 q 26 379 121 169 l 79 504 l 272 503 l 272 747 l 0 747 l -90 863 l -56 931 l 1278 931 l 1368 815 l 1333 747 m 922 747 l 421 747 l 526 675 l 526 529 q 603 642 547 597 q 740 686 658 686 l 806 679 l 922 607 l 922 747 m 922 501 q 861 511 892 511 q 769 474 803 511 q 735 392 735 438 q 751 339 735 360 l 771 338 q 922 417 858 338 l 922 501 m 664 108 q 922 174 814 108 l 922 182 l 874 178 q 640 249 747 178 q 518 425 533 319 q 407 301 497 358 l 336 258 q 474 147 386 185 q 664 108 561 108 z "},"ग":{"ha":958,"x_min":-90,"x_max":1049,"o":"m 1014 747 l 756 747 l 861 675 l 861 -26 l 786 -64 l 603 32 l 603 747 l 317 747 l 422 675 l 422 174 l 332 122 q 140 238 239 149 q 11 415 40 328 l 61 496 l 171 496 l 165 747 l 0 747 l -90 863 l -56 931 l 958 931 l 1049 815 l 1014 747 z "},"घ":{"ha":1011,"x_min":-118,"x_max":1101,"o":"m 1067 747 l 808 747 l 914 675 l 914 -26 l 839 -64 l 656 32 l 656 107 q 540 88 601 88 q 263 185 392 88 q 133 407 133 283 q 164 517 133 463 q 4 729 4 611 l 6 747 l -28 747 l -118 863 l -83 931 l 1011 931 l 1101 815 l 1067 747 m 656 747 l 314 747 q 264 657 264 717 q 272 615 264 636 q 418 647 336 647 q 507 638 464 647 l 607 472 l 572 404 l 533 407 q 416 376 460 407 q 374 307 372 346 q 379 285 374 294 l 413 281 q 550 324 478 281 q 656 424 622 367 l 656 747 z "},"ङ":{"ha":1069,"x_min":-90,"x_max":1160,"o":"m 1160 815 l 1125 747 l 621 747 l 726 675 l 726 476 l 403 476 q 296 425 296 476 q 317 383 296 404 l 563 453 q 743 330 679 411 q 807 153 807 249 q 722 -41 807 38 q 506 -119 638 -119 q -6 235 238 -119 l 103 326 q 429 103 250 103 q 560 140 506 103 q 626 232 615 176 l 444 163 q 174 310 272 222 q 75 493 75 397 q 146 630 75 578 q 336 683 217 682 l 496 683 l 496 747 l 0 747 l -90 863 l -56 931 l 1069 931 l 1160 815 m 897 539 q 983 485 938 524 q 1056 413 1029 447 q 1003 324 1039 369 q 929 253 967 278 q 840 306 890 268 q 765 379 790 343 q 897 539 822 494 z "},"च":{"ha":1025,"x_min":-90,"x_max":1115,"o":"m 1081 747 l 822 747 l 928 675 l 928 -26 l 853 -64 l 669 32 l 669 103 q 567 88 621 88 q 277 184 407 88 q 147 401 147 281 q 165 479 147 444 l 57 479 l -31 599 l 4 667 l 526 667 l 626 524 l 592 456 l 469 456 q 390 315 390 403 l 393 285 l 429 282 q 566 322 499 282 q 669 419 633 363 l 669 747 l 0 747 l -90 863 l -56 931 l 1025 931 l 1115 815 l 1081 747 z "},"छ":{"ha":1118,"x_min":-90,"x_max":1208,"o":"m 1174 747 l 838 747 l 943 675 l 943 629 q 1044 496 1007 576 q 1082 328 1082 415 q 937 8 1082 144 q 592 -128 792 -128 q 291 -31 419 -128 q 163 190 163 65 q 183 279 163 240 q 15 513 15 378 q 72 641 15 588 q 238 694 128 694 l 383 694 l 486 544 l 451 476 l 350 476 q 239 421 239 476 q 271 369 239 396 q 418 407 335 407 q 517 394 464 407 l 619 226 l 567 161 q 492 178 528 178 q 423 157 450 178 q 396 106 396 136 q 410 64 396 78 l 461 58 q 789 200 663 58 q 610 331 683 249 q 538 497 538 413 q 588 622 538 567 q 713 692 638 676 l 713 747 l 0 747 l -90 863 l -56 931 l 1118 931 l 1208 815 l 1174 747 m 761 440 q 847 288 761 338 q 879 422 879 354 q 853 532 879 500 l 836 533 q 761 440 761 533 z "},"ज":{"ha":1069,"x_min":-90,"x_max":1160,"o":"m 1125 747 l 867 747 l 972 675 l 972 -26 l 897 -64 l 714 32 l 714 418 l 578 418 q 651 246 651 340 q 589 91 651 151 q 426 31 526 31 q 158 177 267 31 q -14 565 49 324 l 147 619 q 251 353 207 418 q 353 289 296 289 q 415 313 393 289 q 436 371 436 336 q 368 478 436 443 l 272 508 l 272 635 l 714 635 l 714 747 l 0 747 l -90 863 l -56 931 l 1069 931 l 1160 815 l 1125 747 z "},"झ":{"ha":1233,"x_min":-90,"x_max":1324,"o":"m 1289 747 l 1031 747 l 1136 675 l 1136 -26 l 1061 -64 l 878 32 l 878 206 l 844 203 l 785 210 q 793 144 793 179 q 703 -35 793 26 q 490 -114 613 -96 l 660 -250 l 472 -385 l 293 -107 q 82 1 197 -81 l 135 200 l 251 197 l 335 81 l 371 78 q 525 122 450 78 q 615 219 600 165 l 396 161 q 133 302 229 214 q 38 485 38 390 q 107 621 38 567 q 306 675 176 675 l 475 675 l 475 747 l 0 747 l -90 863 l -56 931 l 1233 931 l 1324 815 l 1289 747 m 744 397 q 878 435 828 397 l 878 747 l 600 747 l 706 675 l 706 476 l 333 476 q 276 459 297 476 q 254 418 254 442 q 269 383 254 399 l 553 436 q 744 397 660 397 z "},"ञ":{"ha":1153,"x_min":-90,"x_max":1243,"o":"m 1208 747 l 950 747 l 1056 675 l 1056 -26 l 981 -64 l 797 32 l 797 250 q 725 269 757 257 q 626 124 699 181 q 454 68 553 68 q 208 156 340 68 q -44 472 75 244 l 83 558 q 231 355 167 415 q 372 294 296 294 q 476 333 439 294 q 513 424 513 371 q 461 524 513 489 l 314 404 l 164 603 q 383 708 254 708 q 599 631 499 708 q 729 439 700 553 q 797 443 764 438 l 797 747 l 0 747 l -90 863 l -56 931 l 1153 931 l 1243 815 l 1208 747 z "},"ट":{"ha":831,"x_min":-90,"x_max":921,"o":"m 886 747 l 565 747 l 671 675 l 671 376 l 433 376 q 313 343 354 376 q 272 258 272 310 q 296 192 272 226 q 392 171 338 171 q 551 206 468 171 q 688 296 633 240 l 828 83 q 676 -27 761 6 q 513 -60 592 -60 q 288 -3 401 -60 q 100 148 174 53 q 26 353 26 243 q 110 542 26 471 q 343 618 194 614 l 422 618 l 422 747 l 0 747 l -90 863 l -56 931 l 831 931 l 921 815 l 886 747 z "},"ठ":{"ha":917,"x_min":-90,"x_max":1007,"o":"m 972 747 l 572 747 l 678 675 l 678 510 q 818 366 764 450 q 872 190 872 282 q 782 -3 872 71 q 546 -78 692 -78 q 194 49 347 -78 q 40 335 40 175 q 133 531 40 457 q 382 604 226 604 l 429 604 l 429 747 l 0 747 l -90 863 l -56 931 l 917 931 l 1007 815 l 972 747 m 449 139 q 586 180 536 139 q 636 276 636 221 q 601 369 636 324 l 440 369 q 325 335 365 369 q 285 250 285 301 q 308 176 285 213 q 449 139 365 139 z "},"ड":{"ha":875,"x_min":-90,"x_max":965,"o":"m 931 747 l 649 747 l 754 675 l 754 490 l 404 490 q 304 443 304 490 q 332 399 304 419 l 590 451 q 772 324 713 407 q 832 154 832 242 q 747 -32 832 43 q 528 -107 661 -107 q 6 249 246 -107 l 114 340 q 458 110 268 110 q 587 140 526 110 q 660 226 647 169 l 458 164 q 188 316 289 224 q 86 511 86 408 q 154 646 86 594 q 354 697 222 697 l 524 697 l 524 747 l 0 747 l -90 863 l -56 931 l 875 931 l 965 815 l 931 747 z "},"ढ":{"ha":901,"x_min":-90,"x_max":992,"o":"m 957 747 l 636 747 l 742 675 l 742 414 l 465 414 q 325 365 375 414 q 275 247 275 317 q 321 125 275 176 q 496 83 399 83 l 397 149 q 376 240 376 196 q 431 356 376 314 q 567 397 485 397 q 774 312 685 397 q 863 121 863 226 q 778 -51 863 21 q 571 -122 694 -122 q 329 -59 456 -122 q 118 111 203 4 q 33 340 33 218 q 131 562 33 478 q 393 646 229 646 l 493 646 l 493 747 l 0 747 l -90 863 l -56 931 l 901 931 l 992 815 l 957 747 m 596 183 q 615 110 596 149 q 683 203 683 146 q 646 251 683 251 q 611 233 626 251 q 596 183 596 215 z "},"ण":{"ha":1088,"x_min":-118,"x_max":1178,"o":"m 1143 747 l 885 747 l 990 675 l 990 -26 l 915 -64 l 732 32 l 732 747 l 535 747 l 640 675 l 640 419 q 582 224 640 289 q 429 158 524 158 q 171 269 293 158 q 43 508 49 381 l 43 747 l -28 747 l -118 863 l -83 931 l 1088 931 l 1178 815 l 1143 747 m 392 747 l 190 747 l 288 675 l 288 358 q 326 346 303 346 q 392 422 392 346 l 392 747 z "},"त":{"ha":896,"x_min":-90,"x_max":986,"o":"m 951 747 l 693 747 l 799 675 l 799 -26 l 724 -64 l 540 32 l 540 388 l 414 388 q 319 360 353 388 q 286 286 286 332 q 324 187 286 239 q 447 49 361 135 l 311 -67 q 101 172 174 64 q 29 381 29 279 q 112 562 29 492 q 336 633 194 632 l 540 633 l 540 747 l 0 747 l -90 863 l -56 931 l 896 931 l 986 815 l 951 747 z "},"थ":{"ha":960,"x_min":21,"x_max":1050,"o":"m 1015 747 l 757 747 l 863 675 l 863 -26 l 788 -64 l 604 32 l 604 111 q 485 88 546 88 q 219 191 346 88 q 21 467 93 294 l 50 544 q 353 728 353 579 q 339 782 353 756 q 311 789 328 789 q 265 770 286 789 q 244 718 244 751 q 276 640 244 676 l 181 582 q 32 790 32 685 q 90 913 32 861 q 232 964 149 964 q 463 856 357 964 q 568 625 568 749 q 502 456 568 535 q 294 339 436 378 l 331 274 q 493 320 418 281 q 604 424 568 360 l 604 747 l 514 863 l 549 931 l 960 931 l 1050 815 l 1015 747 z "},"द":{"ha":874,"x_min":-90,"x_max":964,"o":"m 929 747 l 604 747 l 710 675 l 710 410 l 456 410 q 324 372 369 410 q 279 278 279 333 q 311 188 279 231 q 404 167 357 167 q 525 197 461 167 l 510 310 l 667 364 l 853 131 q 749 21 819 68 l 886 -215 l 643 -314 l 589 -53 l 518 -60 q 300 -3 414 -60 q 110 149 186 53 q 33 358 33 244 q 126 568 33 490 q 376 646 218 646 l 468 646 l 468 747 l 0 747 l -90 863 l -56 931 l 874 931 l 964 815 l 929 747 z "},"ध":{"ha":1007,"x_min":14,"x_max":1097,"o":"m 1063 747 l 804 747 l 910 675 l 910 -26 l 835 -64 l 651 32 l 651 107 q 536 88 597 88 q 258 185 388 88 q 129 407 129 283 q 168 531 129 472 q 14 772 14 642 q 78 916 14 857 q 239 975 143 975 q 402 918 335 975 q 538 753 469 861 l 442 672 q 367 768 388 747 l 344 769 q 279 745 306 769 q 253 682 253 721 q 274 618 253 649 q 411 647 332 647 q 503 638 458 647 l 603 472 l 568 404 l 529 407 q 412 376 456 407 q 369 307 368 346 q 375 285 369 294 l 408 281 q 546 324 474 281 q 651 424 618 367 l 651 747 l 561 863 l 596 931 l 1007 931 l 1097 815 l 1063 747 z "},"न":{"ha":875,"x_min":-90,"x_max":965,"o":"m 931 747 l 672 747 l 778 675 l 778 -26 l 703 -64 l 519 32 l 519 372 l 364 372 l 364 231 l 264 181 q 99 327 176 224 q 10 522 22 431 l 60 603 l 519 603 l 519 747 l 0 747 l -90 863 l -56 931 l 875 931 l 965 815 l 931 747 z "},"ऩ":{"ha":875,"x_min":-90,"x_max":965,"o":"m 931 747 l 672 747 l 778 675 l 778 -26 l 703 -64 l 519 32 l 519 372 l 364 372 l 364 231 l 264 181 q 99 327 176 224 q 10 522 22 431 l 60 603 l 519 603 l 519 747 l 0 747 l -90 863 l -56 931 l 875 931 l 965 815 l 931 747 m 338 -196 q 249 -143 299 -181 q 174 -69 199 -106 q 306 90 231 46 q 392 37 346 75 q 464 -36 438 -1 q 411 -125 447 -79 q 338 -196 375 -171 z "},"प":{"ha":879,"x_min":-90,"x_max":969,"o":"m 935 747 l 676 747 l 782 675 l 782 -26 l 707 -64 l 524 32 l 524 153 q 460 143 494 143 q 277 202 376 143 q 110 351 178 261 q 42 525 42 440 l 42 747 l 0 747 l -90 863 l -56 931 l 879 931 l 969 815 l 935 747 m 524 747 l 210 747 l 315 675 l 315 365 q 361 360 333 360 q 457 387 413 360 q 524 467 501 414 l 524 747 z "},"फ":{"ha":1207,"x_min":-90,"x_max":1297,"o":"m 1263 747 l 635 747 l 740 675 l 740 601 q 881 644 808 644 q 1088 548 1000 644 q 1175 328 1175 451 q 936 -24 1175 133 l 757 160 q 906 286 860 239 q 953 375 953 333 q 921 408 953 408 q 740 282 854 408 l 740 -26 l 665 -64 l 482 32 l 482 171 q 199 299 342 171 q 56 557 56 426 l 56 747 l 0 747 l -90 863 l -56 931 l 1207 931 l 1297 815 l 1263 747 m 482 747 l 224 747 l 329 675 l 329 393 q 378 382 351 382 q 482 429 438 382 l 482 747 z "},"ब":{"ha":925,"x_min":-90,"x_max":1015,"o":"m 981 747 l 722 747 l 828 675 l 828 -26 l 753 -64 l 569 32 l 569 94 q 478 81 529 81 q 276 128 382 81 q 98 260 169 176 q 26 442 26 343 q 106 625 26 550 q 306 700 186 700 q 385 692 343 700 l 569 604 l 569 747 l 0 747 l -90 863 l -56 931 l 925 931 l 1015 815 l 981 747 m 569 465 q 446 497 503 497 l 419 496 l 535 329 q 569 369 553 344 l 569 465 m 310 276 q 367 268 338 268 q 450 282 410 268 l 329 454 q 286 354 286 414 q 310 276 286 310 z "},"भ":{"ha":996,"x_min":-69,"x_max":1072,"o":"m 1038 747 l 779 747 l 885 675 l 885 -26 l 810 -64 l 626 32 l 626 271 l 488 271 l 488 151 l 397 100 q 203 223 304 126 q 76 407 101 319 l 126 488 l 240 488 l 239 694 q 224 782 239 757 q 162 763 188 783 q 136 710 136 742 q 189 621 136 664 l 96 550 q -69 776 -69 667 q -12 909 -69 854 q 132 964 46 964 q 375 854 263 964 q 488 614 488 744 l 488 488 l 626 488 l 626 747 l 536 863 l 571 931 l 982 931 l 1072 815 l 1038 747 z "},"म":{"ha":978,"x_min":-90,"x_max":1068,"o":"m 1033 747 l 775 747 l 881 675 l 881 -26 l 806 -64 l 622 32 l 622 261 l 422 261 l 422 149 l 332 97 q 138 220 239 124 q 11 404 36 317 l 61 485 l 175 485 l 164 747 l 0 747 l -90 863 l -56 931 l 978 931 l 1068 815 l 1033 747 m 622 747 l 317 747 l 422 675 l 422 485 l 622 485 l 622 747 z "},"य":{"ha":946,"x_min":-90,"x_max":1036,"o":"m 1001 747 l 743 747 l 849 675 l 849 -26 l 774 -64 l 590 32 l 590 110 q 485 88 542 88 q 219 191 346 88 q 21 467 93 294 l 50 544 q 261 646 261 569 q 185 747 261 696 l 0 747 l -90 863 l -56 931 l 946 931 l 1036 815 l 1001 747 m 590 747 l 378 747 q 501 538 501 646 q 303 336 501 388 l 331 274 q 482 316 411 274 q 590 424 553 358 l 590 747 z "},"र":{"ha":701,"x_min":-90,"x_max":792,"o":"m 757 747 l 435 747 l 540 675 l 540 492 q 505 376 540 421 q 388 281 469 332 l 674 122 l 674 47 l 501 -96 l 26 365 l 79 504 l 272 504 l 272 747 l 0 747 l -90 863 l -56 931 l 701 931 l 792 815 l 757 747 z "},"ऱ":{"ha":701,"x_min":-90,"x_max":792,"o":"m 757 747 l 435 747 l 540 675 l 540 492 q 505 376 540 421 q 388 281 469 332 l 674 122 l 674 47 l 501 -96 l 26 365 l 79 504 l 272 504 l 272 747 l 0 747 l -90 863 l -56 931 l 701 931 l 792 815 l 757 747 m 207 -237 q 118 -185 168 -222 q 43 -111 68 -147 q 175 49 100 4 q 261 -5 215 33 q 333 -78 307 -43 q 281 -167 317 -121 q 207 -237 244 -212 z "},"ल":{"ha":1094,"x_min":-90,"x_max":1185,"o":"m 1150 747 l 892 747 l 997 675 l 997 -26 l 922 -64 l 739 32 l 739 465 q 647 210 647 382 l 588 168 l 396 283 q 422 440 394 368 l 400 442 q 320 410 353 442 q 288 322 288 378 q 347 194 288 253 q 544 56 407 136 l 446 -76 q 17 417 17 149 q 90 598 17 526 q 271 669 163 669 q 353 656 317 669 l 490 543 q 739 644 586 639 l 739 747 l 0 747 l -90 863 l -56 931 l 1094 931 l 1185 815 l 1150 747 z "},"ळ":{"ha":1125,"x_min":-90,"x_max":1215,"o":"m 1181 747 l 785 747 l 890 675 l 890 585 q 1044 436 985 536 q 1104 226 1104 336 q 1029 21 1104 101 q 839 -60 954 -60 q 685 -22 749 -60 l 585 82 q 481 -27 531 6 q 364 -60 432 -60 q 124 53 225 -60 q 24 321 24 165 q 106 551 24 460 q 313 643 188 643 l 351 640 l 417 619 l 551 481 q 632 582 594 553 l 632 747 l 0 747 l -90 863 l -56 931 l 1125 931 l 1215 815 l 1181 747 m 750 135 q 842 183 807 135 q 878 294 878 231 q 806 443 878 390 l 650 183 q 750 135 699 135 m 317 99 q 483 360 397 204 q 381 411 432 411 q 288 362 324 411 q 253 254 253 313 q 269 170 253 215 q 317 99 286 125 z "},"ऴ":{"ha":1125,"x_min":-90,"x_max":1215,"o":"m 1181 747 l 785 747 l 890 675 l 890 585 q 1044 436 985 536 q 1104 226 1104 336 q 1029 21 1104 101 q 839 -60 954 -60 q 685 -22 749 -60 l 585 82 q 481 -27 531 6 q 364 -60 432 -60 q 124 53 225 -60 q 24 321 24 165 q 106 551 24 460 q 313 643 188 643 l 351 640 l 417 619 l 551 481 q 632 582 594 553 l 632 747 l 0 747 l -90 863 l -56 931 l 1125 931 l 1215 815 l 1181 747 m 750 135 q 842 183 807 135 q 878 294 878 231 q 806 443 878 390 l 650 183 q 750 135 699 135 m 317 99 q 483 360 397 204 q 381 411 432 411 q 288 362 324 411 q 253 254 253 313 q 269 170 253 215 q 317 99 286 125 m 593 -290 q 504 -237 554 -275 q 429 -164 454 -200 q 561 -4 486 -49 q 647 -58 601 -19 q 719 -131 693 -96 q 667 -219 703 -174 q 593 -290 631 -265 z "},"व":{"ha":924,"x_min":-90,"x_max":1014,"o":"m 979 747 l 721 747 l 826 675 l 826 -26 l 751 -64 l 568 32 l 568 107 q 475 89 521 89 q 275 134 381 89 q 99 260 169 179 q 28 439 28 340 q 106 619 28 546 q 303 692 183 692 q 383 683 339 692 l 568 603 l 568 747 l 0 747 l -90 863 l -56 931 l 924 931 l 1014 815 l 979 747 m 322 285 l 349 283 q 472 314 414 283 q 568 396 531 344 l 568 468 q 457 490 518 490 q 344 449 385 490 q 303 353 303 408 q 322 285 303 317 z "},"श":{"ha":1190,"x_min":-90,"x_max":1281,"o":"m 1246 747 l 988 747 l 1093 675 l 1093 -26 l 1018 -64 l 835 32 l 835 747 l 661 747 q 740 531 740 649 q 669 332 740 428 q 471 181 597 236 l 700 114 l 713 38 l 554 -122 l 260 113 q 63 182 138 119 l 128 390 l 201 406 l 276 338 q 383 393 339 363 q 174 501 254 428 q 93 668 93 575 q 108 747 93 708 l 0 747 l -90 863 l -56 931 l 1190 931 l 1281 815 l 1246 747 m 429 747 q 372 721 393 747 q 350 654 350 694 q 382 560 350 604 q 479 494 414 515 q 517 629 517 556 q 429 747 517 747 z "},"ष":{"ha":921,"x_min":-90,"x_max":1011,"o":"m 976 747 l 718 747 l 824 675 l 824 -26 l 749 -64 l 565 32 l 565 157 q 486 144 526 144 q 290 200 396 144 q 113 344 185 256 q 42 525 42 432 l 42 747 l 0 747 l -90 863 l -56 931 l 921 931 l 1011 815 l 976 747 m 565 747 l 374 747 l 564 474 q 565 476 565 474 l 565 747 m 364 357 q 496 396 438 357 l 308 665 l 308 365 q 364 357 333 357 z "},"स":{"ha":1124,"x_min":-104,"x_max":1214,"o":"m 1179 747 l 921 747 l 1026 675 l 1026 -26 l 951 -64 l 768 32 l 768 292 l 392 292 l 374 281 l 660 122 l 660 47 l 488 -96 l 13 365 l 65 504 l 258 504 l 258 747 l -14 747 l -104 863 l -69 931 l 1124 931 l 1214 815 l 1179 747 m 768 747 l 421 747 l 526 675 l 526 499 l 768 499 l 768 747 z "},"ह":{"ha":847,"x_min":-90,"x_max":938,"o":"m 903 747 l 635 747 l 740 675 l 740 471 l 357 471 q 269 417 269 471 l 272 399 q 422 424 342 424 q 690 341 579 424 q 800 138 800 258 q 667 -81 800 7 l 461 61 q 604 214 572 149 q 518 228 563 228 q 394 189 444 228 q 343 86 343 150 q 426 -42 343 10 q 756 -143 508 -94 l 707 -307 q 249 -135 419 -256 q 79 144 79 -14 q 160 332 79 256 q 57 514 57 418 q 117 635 57 585 q 288 685 178 685 l 510 685 l 510 747 l 0 747 l -90 863 l -56 931 l 847 931 l 938 815 l 903 747 z "},"क़":{"ha":1174,"x_min":-90,"x_max":1264,"o":"m 258 -172 q 169 -119 219 -157 q 94 -46 119 -82 q 226 114 151 69 q 313 60 267 99 q 385 -12 358 22 q 332 -101 368 -56 q 258 -172 296 -147 m 1229 747 l 614 747 l 719 675 l 719 593 q 861 638 786 638 q 1068 541 981 638 q 1156 321 1156 444 q 917 -31 1156 126 l 738 153 q 887 279 840 232 q 933 368 933 326 q 901 401 933 401 q 719 274 835 401 l 719 -26 l 644 -64 l 461 32 l 461 118 l 413 114 q 240 151 331 114 q 88 260 150 189 q 26 425 26 331 q 98 601 26 531 q 285 671 169 671 l 346 667 l 461 604 l 461 747 l 0 747 l -90 863 l -56 931 l 1174 931 l 1264 815 l 1229 747 m 300 289 q 461 390 396 308 l 461 474 q 410 482 435 482 q 315 442 351 482 q 279 351 279 401 q 300 289 279 314 z "},"ख़":{"ha":1278,"x_min":-90,"x_max":1368,"o":"m 1333 747 l 1075 747 l 1181 675 l 1181 -26 l 1106 -64 l 982 0 q 686 -78 861 -78 q 300 46 479 -78 q 26 379 121 169 l 79 504 l 272 503 l 272 747 l 0 747 l -90 863 l -56 931 l 1278 931 l 1368 815 l 1333 747 m 922 747 l 421 747 l 526 675 l 526 529 q 603 642 547 597 q 740 686 658 686 l 806 679 l 922 607 l 922 747 m 922 501 q 861 511 892 511 q 769 474 803 511 q 735 392 735 438 q 751 339 735 360 l 771 338 q 922 417 858 338 l 922 501 m 664 108 q 922 174 814 108 l 922 182 l 874 178 q 640 249 747 178 q 518 425 533 319 q 407 301 497 358 l 336 258 q 474 147 386 185 q 664 108 561 108 m 272 -272 q 183 -219 233 -257 q 108 -146 133 -182 q 240 14 165 -31 q 326 -40 281 -1 q 399 -112 372 -78 q 346 -201 382 -156 q 272 -272 310 -247 z "},"ग़":{"ha":958,"x_min":-90,"x_max":1049,"o":"m 1014 747 l 756 747 l 861 675 l 861 -26 l 786 -64 l 603 32 l 603 747 l 317 747 l 422 675 l 422 174 l 332 122 q 140 238 239 149 q 11 415 40 328 l 61 496 l 171 496 l 165 747 l 0 747 l -90 863 l -56 931 l 958 931 l 1049 815 l 1014 747 m 422 -187 q 333 -135 383 -172 q 258 -61 283 -97 q 390 99 315 54 q 476 45 431 83 q 549 -28 522 7 q 496 -117 532 -71 q 422 -187 460 -162 z "},"ज़":{"ha":1069,"x_min":-90,"x_max":1160,"o":"m 1125 747 l 867 747 l 972 675 l 972 -26 l 897 -64 l 714 32 l 714 418 l 578 418 q 651 246 651 340 q 589 91 651 151 q 426 31 526 31 q 158 177 267 31 q -14 565 49 324 l 147 619 q 251 353 207 418 q 353 289 296 289 q 415 313 393 289 q 436 371 436 336 q 368 478 436 443 l 272 508 l 272 635 l 714 635 l 714 747 l 0 747 l -90 863 l -56 931 l 1069 931 l 1160 815 l 1125 747 m 476 -276 q 388 -224 438 -261 q 313 -150 338 -186 q 444 10 369 -35 q 531 -44 485 -6 q 603 -117 576 -82 q 550 -206 586 -160 q 476 -276 514 -251 z "},"ड़":{"ha":875,"x_min":-90,"x_max":965,"o":"m 931 747 l 649 747 l 754 675 l 754 490 l 404 490 q 304 443 304 490 q 332 399 304 419 l 590 451 q 772 324 713 407 q 832 154 832 242 q 747 -32 832 43 q 528 -107 661 -107 q 6 249 246 -107 l 114 340 q 458 110 268 110 q 587 140 526 110 q 660 226 647 169 l 458 164 q 188 316 289 224 q 86 511 86 408 q 154 646 86 594 q 354 697 222 697 l 524 697 l 524 747 l 0 747 l -90 863 l -56 931 l 875 931 l 965 815 l 931 747 m 501 -407 q 413 -354 463 -392 q 338 -281 363 -317 q 469 -121 394 -165 q 556 -174 510 -136 q 628 -247 601 -212 q 575 -336 611 -290 q 501 -407 539 -382 z "},"ढ़":{"ha":901,"x_min":-90,"x_max":992,"o":"m 957 747 l 636 747 l 742 675 l 742 414 l 465 414 q 325 365 375 414 q 275 247 275 317 q 321 125 275 176 q 496 83 399 83 l 397 149 q 376 240 376 196 q 431 356 376 314 q 567 397 485 397 q 774 312 685 397 q 863 121 863 226 q 778 -51 863 21 q 571 -122 694 -122 q 329 -59 456 -122 q 118 111 203 4 q 33 340 33 218 q 131 562 33 478 q 393 646 229 646 l 493 646 l 493 747 l 0 747 l -90 863 l -56 931 l 901 931 l 992 815 l 957 747 m 596 183 q 615 110 596 149 q 683 203 683 146 q 646 251 683 251 q 611 233 626 251 q 596 183 596 215 m 547 -422 q 458 -369 508 -407 q 383 -296 408 -332 q 515 -136 440 -181 q 601 -190 556 -151 q 674 -262 647 -228 q 621 -351 657 -306 q 547 -422 585 -397 z "},"फ़":{"ha":1207,"x_min":-90,"x_max":1297,"o":"m 1263 747 l 635 747 l 740 675 l 740 601 q 881 644 808 644 q 1088 548 1000 644 q 1175 328 1175 451 q 936 -24 1175 133 l 757 160 q 906 286 860 239 q 953 375 953 333 q 921 408 953 408 q 740 282 854 408 l 740 -26 l 665 -64 l 482 32 l 482 171 q 199 299 342 171 q 56 557 56 426 l 56 747 l 0 747 l -90 863 l -56 931 l 1207 931 l 1297 815 l 1263 747 m 482 747 l 224 747 l 329 675 l 329 393 q 378 382 351 382 q 482 429 438 382 l 482 747 m 276 -118 q 188 -65 238 -103 q 113 8 138 -28 q 244 168 169 124 q 331 115 285 153 q 403 42 376 76 q 350 -47 386 -1 q 276 -118 314 -93 z "},"य़":{"ha":946,"x_min":-90,"x_max":1036,"o":"m 1001 747 l 743 747 l 849 675 l 849 -26 l 774 -64 l 590 32 l 590 110 q 485 88 542 88 q 219 191 346 88 q 21 467 93 294 l 50 544 q 261 646 261 569 q 185 747 261 696 l 0 747 l -90 863 l -56 931 l 946 931 l 1036 815 l 1001 747 m 590 747 l 378 747 q 501 538 501 646 q 303 336 501 388 l 331 274 q 482 316 411 274 q 590 424 553 358 l 590 747 m 317 -189 q 228 -136 278 -174 q 153 -62 178 -99 q 285 97 210 53 q 371 44 325 82 q 443 -29 417 6 q 390 -118 426 -72 q 317 -189 354 -164 z "},"ॹ":{"ha":1069,"x_min":-90,"x_max":1160,"o":"m 1125 747 l 867 747 l 972 675 l 972 -26 l 897 -64 l 714 32 l 714 418 l 578 418 q 651 246 651 340 q 589 91 651 151 q 426 31 526 31 q 158 177 267 31 q -14 565 49 324 l 147 619 q 251 353 207 418 q 353 289 296 289 q 415 313 393 289 q 436 371 436 336 q 368 478 436 443 l 272 508 l 272 635 l 714 635 l 714 747 l 0 747 l -90 863 l -56 931 l 1069 931 l 1160 815 l 1125 747 m 275 -268 q 186 -215 236 -253 q 111 -142 136 -178 q 243 18 168 -26 q 329 -35 283 3 q 401 -108 375 -74 q 349 -197 385 -151 q 275 -268 313 -243 m 458 -456 q 369 -403 419 -440 q 294 -329 319 -365 q 426 -169 351 -214 q 513 -223 467 -185 q 585 -296 558 -261 q 532 -385 568 -339 q 458 -456 496 -431 m 638 -268 q 549 -215 599 -253 q 474 -142 499 -178 q 606 18 531 -26 q 692 -35 646 3 q 764 -108 738 -74 q 711 -197 747 -151 q 638 -268 675 -243 z "},"ॺ":{"ha":946,"x_min":-90,"x_max":1036,"o":"m 1001 747 l 743 747 l 849 675 l 849 -26 l 774 -64 l 590 32 l 590 110 q 485 88 542 88 q 219 191 346 88 q 21 467 93 294 l 50 544 q 261 646 261 569 q 185 747 261 696 l 0 747 l -90 863 l -56 931 l 946 931 l 1036 815 l 1001 747 m 590 747 l 378 747 q 501 538 501 646 l 501 522 l 590 446 l 590 747 m 331 274 q 519 342 436 274 l 443 407 q 303 336 394 361 l 331 274 z "},"ॻ":{"ha":958,"x_min":-90,"x_max":1049,"o":"m 1014 747 l 756 747 l 861 675 l 861 -153 l 813 -221 l 171 -221 l 81 -106 l 115 -37 l 603 -37 l 603 747 l 317 747 l 422 675 l 422 174 l 332 122 q 140 238 239 149 q 11 415 40 328 l 61 496 l 171 496 l 165 747 l 0 747 l -90 863 l -56 931 l 958 931 l 1049 815 l 1014 747 z "},"ॼ":{"ha":1069,"x_min":-90,"x_max":1160,"o":"m 1125 747 l 867 747 l 972 675 l 972 -153 l 924 -221 l 185 -221 l 94 -106 l 129 -37 l 714 -37 l 714 418 l 578 418 q 651 246 651 340 q 589 91 651 151 q 426 31 526 31 q 158 177 267 31 q -14 565 49 324 l 147 619 q 251 353 207 418 q 353 289 296 289 q 415 313 393 289 q 436 371 436 336 q 368 478 436 443 l 272 508 l 272 635 l 714 635 l 714 747 l 0 747 l -90 863 l -56 931 l 1069 931 l 1160 815 l 1125 747 z "},"ॾ":{"ha":875,"x_min":-90,"x_max":965,"o":"m 965 815 l 931 747 l 649 747 l 754 675 l 754 490 l 404 490 q 304 443 304 490 q 332 399 304 419 l 590 451 q 772 324 713 407 q 832 154 832 242 q 747 -32 832 43 q 528 -107 661 -107 q 6 249 246 -107 l 114 340 q 458 110 268 110 q 587 140 526 110 q 660 226 647 169 l 458 164 q 188 316 289 224 q 86 511 86 408 q 154 646 86 594 q 354 697 222 697 l 524 697 l 524 747 l 0 747 l -90 863 l -56 931 l 875 931 l 965 815 m 779 -153 l 869 -268 l 835 -336 l 192 -336 l 101 -221 l 136 -153 l 779 -153 z "},"ॿ":{"ha":925,"x_min":-90,"x_max":1015,"o":"m 981 747 l 722 747 l 828 675 l 828 -153 l 779 -221 l 179 -221 l 89 -106 l 124 -37 l 569 -37 l 569 94 q 478 81 529 81 q 276 128 382 81 q 98 260 169 176 q 26 442 26 343 q 106 625 26 550 q 306 700 186 700 q 385 692 343 700 l 569 604 l 569 747 l 0 747 l -90 863 l -56 931 l 925 931 l 1015 815 l 981 747 m 569 465 q 446 497 503 497 l 419 496 l 535 329 q 569 369 553 344 l 569 465 m 310 276 q 367 268 338 268 q 450 282 410 268 l 329 454 q 286 354 286 414 q 310 276 286 310 z "},"ऽ":{"ha":806,"x_min":72,"x_max":743,"o":"m 332 631 q 358 590 332 607 q 435 546 383 572 q 743 188 743 392 q 664 10 743 83 q 464 -64 585 -64 q 226 25 331 -64 q 72 263 121 114 l 217 344 q 419 143 283 143 q 497 167 464 143 q 529 235 529 192 q 499 301 529 272 q 378 387 468 331 q 230 485 288 443 q 139 576 172 528 q 106 683 106 624 q 182 830 106 775 q 383 885 258 885 l 618 885 l 714 738 l 679 672 l 422 672 q 332 631 332 672 z "},"ॽ":{"ha":843,"x_min":119,"x_max":774,"o":"m 774 539 q 546 250 774 357 l 546 -26 l 471 -64 l 292 32 l 292 439 q 471 513 413 460 q 529 622 529 565 q 510 681 529 657 q 380 643 458 675 q 235 569 301 611 l 119 815 q 396 921 258 921 q 656 800 538 921 q 774 539 774 679 z "},"ा":{"ha":439,"x_min":-90,"x_max":529,"o":"m 494 747 l 236 747 l 342 675 l 342 -26 l 267 -64 l 83 32 l 83 747 l 0 747 l -90 863 l -56 931 l 439 931 l 529 815 l 494 747 z "},"ि":{"ha":439,"x_min":-90,"x_max":1122,"o":"m 461 1199 q 289 1155 357 1199 q 221 1033 221 1111 q 256 931 221 983 l 439 931 l 529 815 l 494 747 l 250 747 l 356 675 l 356 -26 l 281 -64 l 97 32 l 97 747 l 0 747 l -90 863 l -56 931 l 100 931 q 8 1146 8 1025 q 108 1354 8 1275 q 357 1433 207 1433 q 703 1343 504 1433 q 1122 1046 901 1253 l 1043 943 q 740 1131 890 1063 q 461 1199 590 1199 z "},"ी":{"ha":439,"x_min":-462,"x_max":529,"o":"m 494 747 l 236 747 l 342 675 l 342 -26 l 267 -64 l 83 32 l 83 747 l 0 747 l -90 863 l -56 931 l 93 931 q -5 1130 46 1057 q -136 1203 -56 1203 q -224 1170 -189 1203 q -258 1089 -258 1138 q -222 990 -258 1040 l -325 939 q -462 1194 -462 1043 q -390 1368 -462 1299 q -200 1438 -317 1438 q 85 1295 -25 1438 q 265 931 194 1153 l 439 931 l 529 815 l 494 747 z "},"ु":{"ha":0,"x_min":-768,"x_max":4,"o":"m -501 -83 q -404 19 -465 -19 q -276 57 -343 57 q -82 -34 -168 57 q 4 -237 4 -125 q -70 -409 4 -340 q -260 -478 -144 -478 q -768 -139 -499 -478 l -657 -35 l -521 -178 q -319 -285 -412 -285 q -221 -250 -260 -285 q -182 -168 -182 -215 q -207 -97 -182 -131 l -349 -231 l -501 -83 z "},"ू":{"ha":0,"x_min":-557,"x_max":208,"o":"m -65 -376 q -258 -474 -153 -474 q -465 -389 -372 -474 q -557 -194 -557 -304 q -479 -24 -557 -94 q -287 47 -401 47 q 50 -161 -112 47 q 208 -386 122 -254 l 90 -487 q -67 -270 -26 -321 q -147 -191 -107 -219 q -235 -162 -187 -162 q -329 -199 -289 -162 q -369 -283 -369 -236 q -357 -322 -369 -308 l -196 -222 l -65 -376 z "},"ृ":{"ha":0,"x_min":-539,"x_max":60,"o":"m -97 -93 q -256 -155 -182 -112 q -329 -237 -329 -197 q -275 -278 -329 -278 q -160 -241 -231 -278 q -42 -161 -90 -204 l 60 -383 q -59 -460 11 -433 q -194 -487 -129 -487 q -432 -397 -325 -487 q -539 -185 -539 -307 q -425 19 -539 -61 q -126 107 -311 99 l -97 107 l -97 -93 z "},"ॄ":{"ha":0,"x_min":-524,"x_max":164,"o":"m 164 -510 q -69 -614 67 -614 q -279 -535 -187 -614 q -371 -358 -371 -457 q -362 -308 -371 -332 q -524 -125 -524 -249 q -419 26 -524 -24 q -149 104 -314 76 l -97 104 l -97 -93 q -252 -135 -179 -104 q -325 -197 -325 -165 q -303 -226 -325 -215 q -51 -132 -222 -161 l 38 -257 l 0 -329 q -183 -411 -183 -367 q -151 -432 -183 -432 q -47 -398 -111 -432 q 47 -326 18 -364 l 164 -510 z "},"ॢ":{"ha":0,"x_min":-289,"x_max":290,"o":"m 290 -456 q 174 -532 250 -532 q 72 -490 117 -532 q 26 -394 26 -449 q 74 -297 26 -354 l 107 -257 q 126 -214 126 -233 q 100 -182 126 -182 q 57 -215 78 -182 q 31 -314 36 -249 l -89 -306 q -76 -204 -92 -254 q -107 -194 -90 -194 q -149 -243 -149 -194 q -125 -303 -149 -275 q -50 -368 -101 -331 l -118 -433 q -289 -206 -289 -326 q -249 -105 -289 -144 q -153 -65 -208 -65 q -39 -128 -85 -65 q 81 -68 7 -68 q 192 -115 147 -68 q 238 -224 238 -162 q 183 -353 238 -293 q 132 -424 132 -404 q 147 -440 132 -440 q 179 -424 160 -440 q 211 -387 199 -407 l 290 -456 z "},"ॣ":{"ha":0,"x_min":-311,"x_max":313,"o":"m 313 -542 q 203 -612 269 -612 q 124 -584 160 -612 q 89 -503 89 -556 q 4 -394 4 -467 q 51 -297 4 -354 l 85 -257 q 104 -214 104 -233 q 78 -182 104 -182 q 35 -215 56 -182 q 8 -314 14 -249 l -111 -306 q -99 -204 -114 -254 q -129 -194 -112 -194 q -171 -243 -171 -194 q -147 -303 -171 -275 q -72 -368 -124 -331 l -140 -433 q -311 -206 -311 -326 q -271 -105 -311 -144 q -175 -65 -231 -65 q -61 -128 -107 -65 q 58 -68 -15 -68 q 170 -115 125 -68 q 215 -224 215 -162 q 161 -353 215 -293 q 110 -424 110 -404 q 115 -436 110 -431 q 203 -389 144 -406 l 244 -462 q 180 -491 203 -472 q 157 -522 157 -510 q 175 -537 157 -537 q 247 -490 214 -537 l 313 -542 z "},"ॅ":{"ha":0,"x_min":-615,"x_max":39,"o":"m 39 1264 q -56 1063 18 1140 q -250 985 -131 985 q -462 1059 -364 985 q -615 1272 -561 1133 l -500 1364 q -413 1237 -457 1275 q -311 1199 -369 1199 q -154 1367 -182 1199 l 39 1264 z "},"ॆ":{"ha":0,"x_min":-854,"x_max":-144,"o":"m -710 1481 q -564 1317 -692 1350 l -471 1299 q -302 1252 -367 1281 q -192 1140 -237 1224 q -144 892 -146 1056 l -299 892 q -407 1028 -304 997 l -510 1051 q -687 1101 -618 1071 q -805 1218 -756 1132 q -854 1467 -854 1304 l -710 1481 z "},"े":{"ha":0,"x_min":-872,"x_max":-147,"o":"m -872 1321 q -643 1394 -751 1394 q -443 1320 -533 1394 q -272 1111 -353 1246 l -147 901 l -286 838 l -390 1024 q -542 1133 -454 1133 q -737 1054 -619 1133 l -872 1321 z "},"ै":{"ha":0,"x_min":-881,"x_max":-128,"o":"m -128 844 l -267 796 l -436 972 q -575 1043 -506 1043 q -762 969 -640 1043 l -881 1182 q -661 1265 -760 1265 q -411 1114 -540 1265 l -287 958 l -350 1108 q -447 1276 -399 1225 q -572 1326 -494 1326 q -732 1293 -636 1326 l -825 1549 q -640 1588 -722 1588 q -422 1494 -511 1588 q -260 1208 -333 1401 l -128 844 z "},"ॉ":{"ha":439,"x_min":-340,"x_max":529,"o":"m 494 747 l 236 747 l 342 675 l 342 -26 l 267 -64 l 83 32 l 83 747 l 0 747 l -90 863 l -56 931 l 439 931 l 529 815 l 494 747 m 314 1264 q 219 1063 293 1140 q 25 985 144 985 q -187 1059 -89 985 q -340 1272 -286 1133 l -225 1364 q -138 1237 -182 1275 q -36 1199 -94 1199 q 121 1367 93 1199 l 314 1264 z "},"ॊ":{"ha":439,"x_min":-426,"x_max":529,"o":"m 494 747 l 236 747 l 342 675 l 342 -26 l 267 -64 l 83 32 l 83 747 l 0 747 l -90 863 l -56 931 l 124 931 q 73 1004 113 978 q -89 1053 33 1031 q -272 1108 -211 1075 q -426 1467 -426 1192 l -282 1481 q -136 1317 -264 1350 l -60 1301 q 160 1232 104 1275 q 247 1117 217 1189 q 282 931 276 1046 l 439 931 l 529 815 l 494 747 z "},"ो":{"ha":439,"x_min":-456,"x_max":529,"o":"m 494 747 l 236 747 l 342 675 l 342 -26 l 267 -64 l 83 32 l 83 747 l 0 747 l -90 863 l -56 931 l 71 931 l 26 1010 q -125 1119 -37 1119 q -321 1040 -203 1119 l -456 1307 q -226 1381 -335 1381 q -27 1307 -117 1381 q 144 1097 63 1233 l 244 931 l 439 931 l 529 815 l 494 747 z "},"ौ":{"ha":439,"x_min":-428,"x_max":529,"o":"m 494 747 l 236 747 l 342 675 l 342 -26 l 267 -64 l 83 32 l 83 747 l 0 747 l -90 863 l -56 931 l 57 931 l 17 972 q -122 1043 -53 1043 q -310 969 -187 1043 l -428 1182 q -208 1265 -307 1265 q 42 1114 -87 1265 l 165 960 l 103 1108 q 6 1276 54 1225 q -119 1326 -42 1326 q -279 1293 -183 1326 l -372 1549 q -187 1588 -269 1588 q 39 1485 -53 1588 q 204 1178 131 1383 l 293 931 l 439 931 l 529 815 l 494 747 z "},"ॖ":{"ha":0,"x_min":-758,"x_max":-81,"o":"m -693 -89 q -462 -179 -603 -179 q -196 -75 -300 -179 l -81 -261 q -208 -356 -124 -319 q -386 -393 -292 -393 q -597 -338 -497 -393 q -758 -167 -696 -283 l -693 -89 z "},"ॗ":{"ha":0,"x_min":-758,"x_max":-81,"o":"m -693 -408 q -462 -499 -603 -499 q -196 -394 -300 -499 l -81 -581 q -208 -676 -124 -639 q -386 -712 -292 -712 q -597 -658 -497 -712 q -758 -486 -696 -603 l -693 -408 m -693 -89 q -462 -179 -603 -179 q -196 -75 -300 -179 l -81 -261 q -208 -356 -124 -319 q -386 -393 -292 -393 q -597 -338 -497 -393 q -758 -167 -696 -283 l -693 -89 z "},"ऺ":{"ha":0,"x_min":-337,"x_max":-160,"o":"m -160 811 l -203 783 l -337 849 l -337 1188 l -160 1188 l -160 811 z "},"ऻ":{"ha":439,"x_min":-90,"x_max":529,"o":"m 494 747 l 236 747 l 342 675 l 342 -26 l 267 -64 l 83 32 l 83 747 l 0 747 l -90 863 l -56 931 l 93 931 l 93 1188 l 271 1188 l 271 931 l 439 931 l 529 815 l 494 747 z "},"ॏ":{"ha":439,"x_min":-429,"x_max":529,"o":"m 494 747 l 236 747 l 342 675 l 342 -26 l 267 -64 l 83 32 l 83 747 l 0 747 l -90 863 l -56 931 l 110 931 q 54 982 100 979 l -125 983 q -344 1065 -258 983 q -429 1272 -429 1147 l -286 1313 q -152 1156 -257 1156 q -21 1153 -47 1156 l 24 1147 l 26 1160 q -72 1199 15 1167 q -185 1283 -146 1228 q -224 1403 -224 1338 q -189 1528 -224 1468 l -39 1506 q -57 1433 -57 1464 q 19 1342 -57 1382 l 108 1294 q 242 1161 199 1247 q 285 978 285 1075 l 282 931 l 439 931 l 529 815 l 494 747 z "},"ॕ":{"ha":518,"x_min":-103,"x_max":608,"o":"m 551 1264 q 456 1063 531 1140 q 263 985 382 985 q 50 1059 149 985 q -103 1272 -49 1133 l 13 1364 q 99 1237 56 1275 q 201 1199 143 1199 q 358 1367 331 1199 l 551 1264 m -90 863 l -56 931 l 518 931 l 608 815 l 574 747 l 0 747 l -90 863 z "},"्":{"ha":0,"x_min":-454,"x_max":181,"o":"m -164 -289 l -308 -364 l -454 -212 q -236 -112 -344 -112 q -43 -201 -137 -112 l 181 -414 l 86 -512 l -164 -289 z "},"ऀ":{"ha":0,"x_min":-704,"x_max":6,"o":"m -704 1249 q -594 1451 -682 1374 q -387 1528 -506 1528 q -153 1448 -261 1528 q 6 1240 -44 1368 l -110 1149 q -326 1314 -189 1314 q -447 1269 -394 1314 q -511 1146 -499 1225 l -704 1249 m -303 1244 q -233 1177 -267 1221 q -183 1092 -199 1133 q -251 1022 -208 1058 q -333 971 -294 986 q -460 1124 -401 1011 q -387 1193 -435 1157 q -303 1244 -340 1229 z "},"ँ":{"ha":0,"x_min":-676,"x_max":33,"o":"m -331 1226 q -415 1278 -368 1242 q -487 1347 -462 1314 q -361 1500 -429 1460 q -279 1449 -322 1485 q -211 1379 -236 1413 q -260 1294 -226 1338 q -331 1226 -294 1250 m 33 1250 q -77 1048 11 1125 q -283 971 -165 971 q -518 1051 -410 971 q -676 1258 -626 1131 l -561 1350 q -344 1185 -482 1185 q -224 1229 -276 1185 q -160 1353 -172 1274 l 33 1250 z "},"ं":{"ha":0,"x_min":-172,"x_max":132,"o":"m 0 1014 q -94 1069 -42 1029 q -172 1146 -146 1108 q -33 1314 -111 1268 q 57 1258 10 1297 q 132 1182 104 1218 q 76 1088 114 1136 q 0 1014 39 1040 z "},"ः":{"ha":508,"x_min":92,"x_max":392,"o":"m 256 407 q 167 460 217 422 q 92 533 117 497 q 224 693 149 649 q 310 640 264 678 q 382 567 356 601 q 329 478 365 524 q 256 407 293 432 m 265 22 q 176 75 226 38 q 101 149 126 113 q 233 308 158 264 q 319 255 274 293 q 392 182 365 217 q 339 93 375 139 q 265 22 303 47 z "},"़":{"ha":0,"x_min":-132,"x_max":158,"o":"m 32 -286 q -57 -233 -7 -271 q -132 -160 -107 -196 q 0 0 -75 -44 q 86 -53 40 -15 q 158 -126 132 -92 q 106 -215 142 -169 q 32 -286 69 -261 z "},"॑":{"ha":0,"x_min":-318,"x_max":-140,"o":"m -140 1022 l -183 994 l -318 1060 l -318 1399 l -275 1426 l -140 1361 l -140 1022 z "},"॒":{"ha":0,"x_min":-571,"x_max":-42,"o":"m -571 -176 l -543 -133 l -107 -133 l -42 -268 l -69 -311 l -506 -311 l -571 -176 z "},"॓":{"ha":0,"x_min":-496,"x_max":-94,"o":"m -94 1101 l -183 1000 l -242 1000 l -496 1256 l -401 1354 l -343 1354 l -94 1101 z "},"॔":{"ha":0,"x_min":-415,"x_max":-14,"o":"m -321 1000 l -415 1099 l -161 1354 l -103 1354 l -14 1247 l -262 1000 l -321 1000 z "},"ॱ":{"ha":576,"x_min":136,"x_max":440,"o":"m 308 693 q 215 748 267 708 q 136 825 163 788 q 275 993 197 947 q 365 937 318 976 q 440 861 413 897 q 385 767 422 815 q 308 693 347 719 z "},"०":{"ha":785,"x_min":29,"x_max":756,"o":"m 456 63 q 163 188 296 63 q 29 471 29 314 q 125 690 29 600 q 350 779 221 779 q 628 645 501 779 q 756 356 756 511 q 669 147 756 232 q 456 63 582 63 m 490 540 q 429 550 460 550 q 315 500 361 550 q 268 383 268 450 q 307 285 268 325 q 367 276 339 276 q 484 322 440 276 q 528 432 528 368 q 490 540 528 490 z "},"१":{"ha":661,"x_min":28,"x_max":626,"o":"m 626 17 q 571 -119 626 -64 l 326 -24 q 361 57 361 19 q 313 132 361 93 l 100 285 l 86 393 l 271 536 q 389 704 389 632 q 356 790 389 754 q 283 765 310 793 q 257 697 257 738 q 299 606 257 639 l 210 538 q 28 761 28 636 q 92 906 28 847 q 254 964 156 964 q 440 904 357 964 q 568 758 522 844 q 614 596 614 672 q 463 340 614 469 l 383 274 l 482 204 q 591 111 556 153 q 626 17 626 69 z "},"२":{"ha":838,"x_min":28,"x_max":768,"o":"m 768 67 l 768 -10 l 644 -106 l 279 206 q 76 278 147 218 l 154 508 l 224 521 l 282 451 q 457 530 394 474 q 519 658 519 586 q 461 779 519 729 q 178 607 349 747 l 28 832 q 190 931 100 897 q 360 964 279 964 q 637 848 515 964 q 758 581 758 732 q 685 383 758 469 q 488 246 613 296 l 768 67 z "},"३":{"ha":879,"x_min":14,"x_max":817,"o":"m 817 239 q 718 42 817 121 q 474 -37 619 -37 l 436 -36 l 625 -193 l 625 -268 l 501 -350 l 246 -19 q 81 81 150 21 l 172 294 l 250 297 l 310 196 q 392 185 354 185 q 525 222 469 185 q 581 310 581 258 q 511 385 581 364 l 307 307 l 171 522 q 268 574 207 556 q 388 593 329 593 l 428 590 l 436 588 q 506 694 506 631 q 457 779 506 744 q 164 607 329 744 l 14 832 q 181 930 85 896 q 360 964 276 964 q 624 867 507 964 q 742 649 742 769 q 665 475 742 554 q 817 239 817 374 z "},"४":{"ha":833,"x_min":-57,"x_max":843,"o":"m 563 465 l 606 414 q 713 167 713 278 q 647 -1 713 67 q 481 -69 581 -69 q 251 22 357 -69 q 144 228 144 113 q 267 492 144 333 q -57 783 138 617 l 63 926 q 393 639 268 753 q 667 925 514 774 l 843 758 q 563 465 708 624 m 381 122 q 422 113 401 113 q 472 135 453 113 q 492 192 492 157 q 433 314 492 236 q 365 175 365 225 q 381 122 365 146 z "},"५":{"ha":829,"x_min":14,"x_max":799,"o":"m 799 17 l 767 -53 l 568 -89 l 531 189 q 393 149 467 149 q 214 209 306 149 q 68 361 122 269 q 14 550 14 453 q 46 726 14 624 q 138 933 78 828 l 376 835 q 247 425 257 561 q 340 372 279 372 q 467 463 425 372 l 429 640 l 486 696 l 714 614 q 658 368 717 506 l 799 17 z "},"६":{"ha":842,"x_min":49,"x_max":828,"o":"m 828 -175 l 806 -243 l 658 -289 l 594 -24 q 492 -37 547 -37 q 292 13 392 -37 q 135 143 193 63 q 78 317 78 224 q 168 521 78 439 q 49 724 49 615 q 140 897 49 829 q 382 964 231 964 q 647 908 511 964 l 642 679 q 426 731 529 731 q 314 706 357 731 q 271 642 271 682 q 293 588 271 613 q 432 606 358 606 q 610 589 518 606 l 619 360 q 492 372 553 372 q 349 336 396 372 q 303 247 303 300 q 319 190 303 218 q 367 183 338 183 q 536 224 453 183 l 532 283 l 631 325 l 792 136 q 713 38 764 78 l 828 -175 z "},"७":{"ha":893,"x_min":-53,"x_max":879,"o":"m 506 833 q 693 753 607 833 q 829 551 779 674 q 879 308 879 428 q 788 53 879 149 q 554 -43 697 -43 q 270 67 401 -43 q 54 358 139 178 q -53 738 -31 538 l 147 800 q 295 345 194 482 q 515 208 396 208 q 669 321 629 208 q 622 315 649 315 q 406 415 513 315 q 300 628 300 514 q 359 773 300 713 q 506 833 418 833 m 532 472 q 682 525 606 472 q 594 610 663 610 q 530 581 553 610 q 507 514 507 551 q 517 474 507 493 l 532 472 z "},"८":{"ha":722,"x_min":56,"x_max":736,"o":"m 278 274 q 305 203 278 232 q 375 175 332 175 q 579 326 472 175 l 736 150 q 440 -47 617 -47 q 176 74 297 -47 q 56 331 56 194 q 167 594 56 454 l 439 928 l 607 726 l 350 417 q 278 274 278 325 z "},"९":{"ha":733,"x_min":21,"x_max":733,"o":"m 733 56 q 679 -81 733 -12 l 433 15 q 474 107 474 63 q 429 192 474 153 l 190 399 q 21 701 21 556 q 97 888 21 813 q 286 964 174 964 q 532 856 422 964 q 642 621 642 747 q 476 365 642 485 l 581 286 q 733 56 733 169 m 354 758 q 283 722 314 758 q 253 632 253 686 q 299 515 253 574 q 425 683 425 603 q 405 737 425 715 q 354 758 385 758 z "},"।":{"ha":694,"x_min":306,"x_max":564,"o":"m 564 -56 l 489 -93 l 306 32 l 306 926 l 381 964 l 564 839 l 564 -56 z "},"॥":{"ha":1083,"x_min":306,"x_max":953,"o":"m 564 -56 l 489 -93 l 306 32 l 306 926 l 381 964 l 564 839 l 564 -56 m 953 -56 l 878 -93 l 694 32 l 694 926 l 769 964 l 953 839 l 953 -56 z "},"॰":{"ha":593,"x_min":94,"x_max":663,"o":"m 419 163 q 193 257 292 163 q 94 479 94 351 q 169 658 94 586 q 350 729 243 729 q 568 633 474 729 q 663 411 663 536 q 594 233 663 304 q 419 163 526 163 m 444 529 q 404 536 421 536 q 328 503 358 536 q 299 426 299 471 q 321 356 299 388 l 361 351 q 441 383 411 351 q 471 457 471 414 q 444 529 471 497 z "},"ꣻ":{"ha":439,"x_min":-90,"x_max":529,"o":"m -90 863 l -56 931 l 439 931 l 529 815 l 494 747 l 0 747 l -90 863 z "},"࿕":{"ha":1344,"x_min":167,"x_max":1178,"o":"m 801 576 l 1088 576 l 1178 461 l 1178 26 l 1103 -11 l 933 114 l 933 351 l 801 351 l 801 69 l 739 0 l 269 0 l 179 150 l 214 218 l 557 218 l 557 351 l 257 351 l 167 453 l 167 903 l 242 940 l 411 815 l 411 576 l 557 576 l 557 861 l 619 931 l 1063 931 l 1153 781 l 1118 713 l 801 713 l 801 576 z "},"ॐ":{"ha":1594,"x_min":21,"x_max":1574,"o":"m 889 1081 q 804 1132 851 1096 q 732 1201 757 1168 q 858 1354 790 1314 q 940 1303 897 1339 q 1008 1233 983 1267 q 959 1148 993 1192 q 889 1081 925 1104 m 922 797 q 708 872 810 797 q 553 1085 607 946 l 668 1176 q 875 997 757 997 q 990 1047 946 997 q 1046 1179 1033 1096 l 1235 1090 q 1131 881 1219 965 q 922 797 1043 797 m 1236 831 q 1476 726 1378 831 q 1574 476 1574 621 q 1496 240 1574 356 q 1272 58 1418 125 l 1065 224 q 1276 396 1196 297 q 1356 572 1356 494 q 1340 624 1356 606 q 1301 643 1324 643 q 1256 621 1278 643 q 1163 469 1235 599 q 1024 288 1092 339 q 872 236 957 236 q 792 253 826 236 q 707 42 792 125 q 501 -40 622 -40 q 255 53 382 -40 q 21 385 128 147 l 147 467 q 285 250 215 322 q 442 178 354 178 q 549 215 508 178 q 590 301 590 251 q 535 392 590 365 l 399 306 l 253 519 q 429 600 324 585 q 533 746 533 665 l 532 764 q 409 733 478 769 q 276 633 340 696 l 142 808 q 426 951 275 951 q 635 862 542 951 q 728 674 728 772 q 644 492 728 578 q 733 404 696 456 l 763 400 q 832 428 803 400 q 926 580 861 457 q 1035 747 990 703 q 1126 810 1079 790 q 1236 831 1174 831 z "},"◌":{"ha":1017,"x_min":133,"x_max":883,"o":"m 510 632 q 447 697 447 632 q 510 763 447 763 q 556 743 539 763 q 572 697 572 724 q 556 651 572 671 q 510 632 539 632 m 351 592 q 289 657 289 592 q 351 722 289 722 q 397 703 381 722 q 414 657 414 683 q 397 611 414 631 q 351 592 381 592 m 665 592 q 603 657 603 592 q 665 722 603 722 q 711 703 694 722 q 728 657 728 683 q 711 611 728 631 q 665 592 694 592 m 236 476 q 174 542 174 476 q 236 607 174 607 q 282 588 265 607 q 299 542 299 568 q 282 496 299 515 q 236 476 265 476 m 782 476 q 719 542 719 476 q 782 607 719 607 q 828 588 811 607 q 844 542 844 568 q 828 496 844 515 q 782 476 811 476 m 196 319 q 133 385 133 319 q 196 450 133 450 q 242 431 225 450 q 258 385 258 411 q 242 339 258 358 q 196 319 225 319 m 821 319 q 758 385 758 319 q 821 450 758 450 q 867 431 850 450 q 883 385 883 411 q 867 339 883 358 q 821 319 850 319 m 236 164 q 174 229 174 164 q 236 294 174 294 q 282 275 265 294 q 299 229 299 256 q 282 183 299 203 q 236 164 265 164 m 782 164 q 719 229 719 164 q 782 294 719 294 q 828 275 811 294 q 844 229 844 256 q 828 183 844 203 q 782 164 811 164 m 353 47 q 290 113 290 47 q 353 178 290 178 q 399 158 382 178 q 415 113 415 139 q 399 67 415 86 q 353 47 382 47 m 665 47 q 603 113 603 47 q 665 178 603 178 q 711 158 694 178 q 728 113 728 139 q 711 67 728 86 q 665 47 694 47 m 511 8 q 449 74 449 8 q 511 139 449 139 q 557 119 540 139 q 574 74 574 100 q 557 28 574 47 q 511 8 540 8 z "},"‌":{"ha":0,"x_min":-96,"x_max":94,"o":"m 0 1107 l 72 1181 l 94 1157 l 22 1086 l 94 1013 l 72 990 l 0 1063 l -74 989 l -96 1013 l -24 1086 l -96 1157 l -74 1182 l 0 1107 z "},"‍":{"ha":0,"x_min":-137,"x_max":139,"o":"m 107 1071 l -106 1071 l -106 1007 l -137 1007 l -137 1101 l 139 1101 l 139 1007 l 107 1007 l 107 1071 z "}}}
